<?xml version="1.0" encoding="UTF-8" standalone="no"?>
<!DOCTYPE svg PUBLIC "-//W3C//DTD SVG 1.1//EN" "http://www.w3.org/Graphics/SVG/1.1/DTD/svg11.dtd">
<svg xmlns="http://www.w3.org/2000/svg" version="1.1" viewBox="0.00 0.00 188.00 187.00">
<g stroke-width="2.00" fill="none" stroke-linecap="butt">
<path stroke="#77b1d4" vector-effect="non-scaling-stroke" d="
  M 93.95 65.91
  L 55.18 65.94
  Q 54.61 65.94 54.66 66.50
  L 55.96 81.05
  Q 56.01 81.69 56.65 81.69
  L 94.14 81.69"
/>
<path stroke="#0389d1" vector-effect="non-scaling-stroke" d="
  M 94.14 81.69
  L 94.08 97.73"
/>
<path stroke="#77b1d4" vector-effect="non-scaling-stroke" d="
  M 94.08 97.73
  L 57.98 97.75
  Q 57.43 97.75 57.48 98.30
  L 58.79 113.03
  A 0.46 0.45 87.2 0 0 59.24 113.45
  L 93.93 113.43"
/>
<path stroke="#0389d1" vector-effect="non-scaling-stroke" d="
  M 93.93 113.43
  L 94.00 138.56"
/>
<path stroke="#77b1d4" vector-effect="non-scaling-stroke" d="
  M 94.00 138.56
  L 77.06 134.02
  Q 76.48 133.86 76.43 133.27
  L 75.41 121.73
  Q 75.38 121.34 74.98 121.34
  L 60.21 121.35
  Q 59.53 121.35 59.59 122.03
  L 61.67 145.45
  Q 61.71 145.96 62.21 146.09
  L 94.03 154.91"
/>
<path stroke="#0389d1" vector-effect="non-scaling-stroke" d="
  M 94.03 154.91
  L 94.00 170.62
  A 0.51 0.50 82.2 0 0 94.64 171.11
  L 135.21 159.73
  A 0.49 0.48 85.0 0 0 135.56 159.30
  L 145.23 50.76
  Q 145.28 50.24 144.76 50.24
  L 94.76 50.23
  A 0.84 0.83 -90.0 0 0 93.93 51.07
  L 93.95 65.91"
/>
<path stroke="#77c3e8" vector-effect="non-scaling-stroke" d="
  M 94.03 154.91
  Q 94.01 154.87 93.99 154.84"
/>
<path stroke="#81cdf2" vector-effect="non-scaling-stroke" d="
  M 93.99 154.84
  L 125.58 146.09
  Q 126.19 145.92 126.25 145.28
  L 133.29 66.25
  Q 133.32 65.92 132.98 65.92
  L 93.95 65.91"
/>
<path stroke="#f5f5f5" vector-effect="non-scaling-stroke" d="
  M 93.95 65.91
  L 94.08 81.71"
/>
<path stroke="#77c3e8" vector-effect="non-scaling-stroke" d="
  M 94.08 81.71
  Q 94.11 81.70 94.14 81.69"
/>
<path stroke="#f5f5f5" vector-effect="non-scaling-stroke" d="
  M 93.99 154.84
  L 94.00 138.56"
/>
<path stroke="#81cdf2" vector-effect="non-scaling-stroke" d="
  M 94.00 138.56
  L 110.89 133.97
  Q 111.42 133.83 111.47 133.27
  L 113.20 114.01
  Q 113.24 113.49 112.72 113.49
  L 93.96 113.44"
/>
<path stroke="#f5f5f5" vector-effect="non-scaling-stroke" d="
  M 93.96 113.44
  L 94.08 97.73"
/>
<path stroke="#81cdf2" vector-effect="non-scaling-stroke" d="
  M 94.08 97.73
  L 113.96 97.71
  Q 114.61 97.70 114.67 97.05
  L 115.96 82.26
  Q 116.01 81.74 115.49 81.74
  L 94.08 81.71"
/>
<path stroke="#77c3e8" vector-effect="non-scaling-stroke" d="
  M 93.96 113.44
  Q 93.95 113.44 93.93 113.43"
/>
</g>
<path fill="#000000" d="
  M 117.35 20.50
  L 106.75 20.41
  A 0.29 0.29 0.0 0 1 106.46 20.12
  L 106.43 5.22
  A 0.29 0.29 0.0 0 1 106.72 4.93
  L 125.21 4.90
  A 0.29 0.29 0.0 0 1 125.50 5.19
  L 125.53 11.49
  A 0.29 0.29 0.0 0 1 125.24 11.78
  L 114.64 11.80
  A 0.29 0.29 0.0 0 0 114.35 12.10
  L 114.37 12.89
  A 0.29 0.29 0.0 0 0 114.66 13.17
  L 125.22 13.22
  A 0.29 0.29 0.0 0 1 125.51 13.51
  L 125.50 28.92
  A 0.29 0.29 0.0 0 1 125.21 29.21
  L 106.74 29.22
  A 0.29 0.29 0.0 0 1 106.45 28.93
  L 106.43 22.11
  A 0.29 0.29 0.0 0 1 106.72 21.82
  L 117.31 21.75
  A 0.29 0.29 0.0 0 0 117.60 21.48
  L 117.63 20.80
  A 0.29 0.29 0.0 0 0 117.35 20.50
  Z"
/>
<path fill="#000000" d="
  M 68.70 13.20
  L 68.72 20.37
  A 0.39 0.39 0.0 0 0 69.11 20.76
  L 79.48 20.79
  A 0.39 0.39 0.0 0 1 79.87 21.18
  L 79.91 28.44
  A 0.39 0.39 0.0 0 1 79.52 28.83
  L 61.14 28.84
  A 0.39 0.39 0.0 0 1 60.75 28.45
  L 60.75 5.31
  A 0.39 0.39 0.0 0 1 61.14 4.92
  L 79.45 4.93
  A 0.39 0.39 0.0 0 1 79.84 5.32
  L 79.91 12.42
  A 0.39 0.39 0.0 0 1 79.52 12.81
  L 69.09 12.81
  A 0.39 0.39 0.0 0 0 68.70 13.20
  Z"
/>
<path fill="#000000" d="
  M 91.91 13.19
  L 102.34 13.21
  A 0.29 0.29 0.0 0 1 102.63 13.50
  L 102.62 28.92
  A 0.29 0.29 0.0 0 1 102.33 29.21
  L 83.97 29.22
  A 0.29 0.29 0.0 0 1 83.68 28.93
  L 83.68 22.11
  A 0.29 0.29 0.0 0 1 83.97 21.82
  L 94.49 21.76
  A 0.29 0.29 0.0 0 0 94.77 21.50
  L 94.84 20.81
  A 0.29 0.29 0.0 0 0 94.55 20.50
  L 83.97 20.41
  A 0.29 0.29 0.0 0 1 83.68 20.12
  L 83.67 5.22
  A 0.29 0.29 0.0 0 1 83.96 4.93
  L 102.32 4.92
  A 0.29 0.29 0.0 0 1 102.61 5.21
  L 102.66 11.48
  A 0.29 0.29 0.0 0 1 102.37 11.77
  L 91.86 11.81
  A 0.29 0.29 0.0 0 0 91.57 12.12
  L 91.62 12.92
  A 0.29 0.29 0.0 0 0 91.91 13.19
  Z"
/>
<path fill="#0277bd" d="
  M 92.02 181.57
  C 75.95 177.25 59.77 172.62 43.27 168.10
  Q 42.72 167.95 42.67 167.38
  L 31.39 40.40
  Q 31.33 39.75 31.98 39.75
  L 156.01 39.75
  Q 156.67 39.75 156.61 40.41
  L 145.33 167.37
  Q 145.28 167.90 144.76 168.04
  Q 120.07 174.87 95.74 181.60
  Q 93.97 182.09 92.02 181.57
  Z
  M 93.95 65.91
  L 55.18 65.94
  Q 54.61 65.94 54.66 66.50
  L 55.96 81.05
  Q 56.01 81.69 56.65 81.69
  L 94.14 81.69
  L 94.08 97.73
  L 57.98 97.75
  Q 57.43 97.75 57.48 98.30
  L 58.79 113.03
  A 0.46 0.45 87.2 0 0 59.24 113.45
  L 93.93 113.43
  L 94.00 138.56
  L 77.06 134.02
  Q 76.48 133.86 76.43 133.27
  L 75.41 121.73
  Q 75.38 121.34 74.98 121.34
  L 60.21 121.35
  Q 59.53 121.35 59.59 122.03
  L 61.67 145.45
  Q 61.71 145.96 62.21 146.09
  L 94.03 154.91
  L 94.00 170.62
  A 0.51 0.50 82.2 0 0 94.64 171.11
  L 135.21 159.73
  A 0.49 0.48 85.0 0 0 135.56 159.30
  L 145.23 50.76
  Q 145.28 50.24 144.76 50.24
  L 94.76 50.23
  A 0.84 0.83 -90.0 0 0 93.93 51.07
  L 93.95 65.91
  Z"
/>
<path fill="#039be5" d="
  M 94.03 154.91
  Q 94.01 154.87 93.99 154.84
  L 125.58 146.09
  Q 126.19 145.92 126.25 145.28
  L 133.29 66.25
  Q 133.32 65.92 132.98 65.92
  L 93.95 65.91
  L 93.93 51.07
  A 0.84 0.83 -90.0 0 1 94.76 50.23
  L 144.76 50.24
  Q 145.28 50.24 145.23 50.76
  L 135.56 159.30
  A 0.49 0.48 85.0 0 1 135.21 159.73
  L 94.64 171.11
  A 0.51 0.50 82.2 0 1 94.00 170.62
  L 94.03 154.91
  Z"
/>
<path fill="#ebebeb" d="
  M 93.95 65.91
  L 94.08 81.71
  Q 94.11 81.70 94.14 81.69
  L 56.65 81.69
  Q 56.01 81.69 55.96 81.05
  L 54.66 66.50
  Q 54.61 65.94 55.18 65.94
  L 93.95 65.91
  Z"
/>
<path fill="#ffffff" d="
  M 93.99 154.84
  L 94.00 138.56
  L 110.89 133.97
  Q 111.42 133.83 111.47 133.27
  L 113.20 114.01
  Q 113.24 113.49 112.72 113.49
  L 93.96 113.44
  L 94.08 97.73
  L 113.96 97.71
  Q 114.61 97.70 114.67 97.05
  L 115.96 82.26
  Q 116.01 81.74 115.49 81.74
  L 94.08 81.71
  L 93.95 65.91
  L 132.98 65.92
  Q 133.32 65.92 133.29 66.25
  L 126.25 145.28
  Q 126.19 145.92 125.58 146.09
  L 93.99 154.84
  Z"
/>
<path fill="#039be5" d="
  M 94.14 81.69
  Q 94.11 81.70 94.08 81.71
  L 115.49 81.74
  Q 116.01 81.74 115.96 82.26
  L 114.67 97.05
  Q 114.61 97.70 113.96 97.71
  L 94.08 97.73
  L 94.14 81.69
  Z"
/>
<path fill="#ebebeb" d="
  M 94.08 97.73
  L 93.96 113.44
  Q 93.95 113.44 93.93 113.43
  L 59.24 113.45
  A 0.46 0.45 87.2 0 1 58.79 113.03
  L 57.48 98.30
  Q 57.43 97.75 57.98 97.75
  L 94.08 97.73
  Z"
/>
<path fill="#039be5" d="
  M 93.93 113.43
  Q 93.95 113.44 93.96 113.44
  L 112.72 113.49
  Q 113.24 113.49 113.20 114.01
  L 111.47 133.27
  Q 111.42 133.83 110.89 133.97
  L 94.00 138.56
  L 93.93 113.43
  Z"
/>
<path fill="#ebebeb" d="
  M 94.00 138.56
  L 93.99 154.84
  Q 94.01 154.87 94.03 154.91
  L 62.21 146.09
  Q 61.71 145.96 61.67 145.45
  L 59.59 122.03
  Q 59.53 121.35 60.21 121.35
  L 74.98 121.34
  Q 75.38 121.34 75.41 121.73
  L 76.43 133.27
  Q 76.48 133.86 77.06 134.02
  L 94.00 138.56
  Z"
/>
</svg>
