<?xml version="1.0" encoding="UTF-8" standalone="no"?>
<!DOCTYPE svg PUBLIC "-//W3C//DTD SVG 1.1//EN" "http://www.w3.org/Graphics/SVG/1.1/DTD/svg11.dtd">
<svg xmlns="http://www.w3.org/2000/svg" version="1.1" viewBox="0.00 0.00 48.00 48.00">
<g stroke-width="2.00" fill="none" stroke-linecap="butt">
<path stroke="#848788" vector-effect="non-scaling-stroke" d="
  M 10.45 23.44
  L 26.76 23.44
  A 0.50 0.50 0.0 0 0 27.26 22.94
  C 27.31 18.04 24.69 13.43 19.49 12.77
  C 11.92 11.81 8.72 18.72 9.22 25.15
  Q 9.95 34.46 18.42 34.37
  C 22.87 34.32 26.23 31.76 26.91 27.19
  Q 26.92 27.12 26.85 27.11
  L 26.59 27.07
  Q 26.29 27.01 26.25 27.32
  C 25.57 31.89 21.71 34.12 17.36 33.77
  Q 10.04 33.18 9.77 24.14
  Q 9.75 23.44 10.45 23.44"
/>
<path stroke="#848788" vector-effect="non-scaling-stroke" d="
  M 36.94 21.87
  L 30.40 13.10
  Q 30.32 13.00 30.22 13.07
  L 30.00 13.23
  Q 29.79 13.38 29.95 13.59
  L 36.81 22.66
  Q 37.08 23.01 36.84 23.38
  Q 33.42 28.57 29.07 33.43
  Q 28.87 33.66 29.10 33.85
  L 29.33 34.04
  Q 29.48 34.17 29.61 34.01
  L 37.09 24.27
  Q 37.43 23.83 37.78 24.25
  L 45.66 33.93
  Q 45.80 34.10 45.97 33.96
  L 46.18 33.77
  Q 46.22 33.74 46.19 33.69
  Q 43.55 30.04 39.98 26.01
  Q 38.89 24.78 38.13 23.36
  A 0.83 0.81 51.1 0 1 38.22 22.45
  L 45.40 13.66
  Q 45.55 13.48 45.36 13.32
  L 45.15 13.15
  Q 45.10 13.11 45.05 13.16
  Q 41.34 17.54 37.94 21.88
  Q 37.43 22.53 36.94 21.87"
/>
<path stroke="#848788" vector-effect="non-scaling-stroke" d="
  M 10.20 22.77
  L 26.36 22.77
  A 0.28 0.28 0.0 0 0 26.64 22.49
  L 26.64 22.04
  A 8.73 8.31 90.0 0 0 18.33 13.31
  L 18.23 13.31
  A 8.73 8.31 -90.0 0 0 9.92 22.04
  L 9.92 22.49
  A 0.28 0.28 0.0 0 0 10.20 22.77"
/>
</g>
<path fill="#ffffff" d="
  M 0.00 0.00
  L 48.00 0.00
  L 48.00 48.00
  L 0.00 48.00
  L 0.00 0.00
  Z
  M 10.45 23.44
  L 26.76 23.44
  A 0.50 0.50 0.0 0 0 27.26 22.94
  C 27.31 18.04 24.69 13.43 19.49 12.77
  C 11.92 11.81 8.72 18.72 9.22 25.15
  Q 9.95 34.46 18.42 34.37
  C 22.87 34.32 26.23 31.76 26.91 27.19
  Q 26.92 27.12 26.85 27.11
  L 26.59 27.07
  Q 26.29 27.01 26.25 27.32
  C 25.57 31.89 21.71 34.12 17.36 33.77
  Q 10.04 33.18 9.77 24.14
  Q 9.75 23.44 10.45 23.44
  Z
  M 36.94 21.87
  L 30.40 13.10
  Q 30.32 13.00 30.22 13.07
  L 30.00 13.23
  Q 29.79 13.38 29.95 13.59
  L 36.81 22.66
  Q 37.08 23.01 36.84 23.38
  Q 33.42 28.57 29.07 33.43
  Q 28.87 33.66 29.10 33.85
  L 29.33 34.04
  Q 29.48 34.17 29.61 34.01
  L 37.09 24.27
  Q 37.43 23.83 37.78 24.25
  L 45.66 33.93
  Q 45.80 34.10 45.97 33.96
  L 46.18 33.77
  Q 46.22 33.74 46.19 33.69
  Q 43.55 30.04 39.98 26.01
  Q 38.89 24.78 38.13 23.36
  A 0.83 0.81 51.1 0 1 38.22 22.45
  L 45.40 13.66
  Q 45.55 13.48 45.36 13.32
  L 45.15 13.15
  Q 45.10 13.11 45.05 13.16
  Q 41.34 17.54 37.94 21.88
  Q 37.43 22.53 36.94 21.87
  Z"
/>
<path fill="#080e10" d="
  M 9.77 24.14
  Q 10.04 33.18 17.36 33.77
  C 21.71 34.12 25.57 31.89 26.25 27.32
  Q 26.29 27.01 26.59 27.07
  L 26.85 27.11
  Q 26.92 27.12 26.91 27.19
  C 26.23 31.76 22.87 34.32 18.42 34.37
  Q 9.95 34.46 9.22 25.15
  C 8.72 18.72 11.92 11.81 19.49 12.77
  C 24.69 13.43 27.31 18.04 27.26 22.94
  A 0.50 0.50 0.0 0 1 26.76 23.44
  L 10.45 23.44
  Q 9.75 23.44 9.77 24.14
  Z
  M 10.20 22.77
  L 26.36 22.77
  A 0.28 0.28 0.0 0 0 26.64 22.49
  L 26.64 22.04
  A 8.73 8.31 90.0 0 0 18.33 13.31
  L 18.23 13.31
  A 8.73 8.31 -90.0 0 0 9.92 22.04
  L 9.92 22.49
  A 0.28 0.28 0.0 0 0 10.20 22.77
  Z"
/>
<path fill="#ffffff" d="
  M 10.20 22.77
  A 0.28 0.28 0.0 0 1 9.92 22.49
  L 9.92 22.04
  A 8.73 8.31 90.0 0 1 18.23 13.31
  L 18.33 13.31
  A 8.73 8.31 90.0 0 1 26.64 22.04
  L 26.64 22.49
  A 0.28 0.28 0.0 0 1 26.36 22.77
  L 10.20 22.77
  Z"
/>
<path fill="#080e10" d="
  M 37.94 21.88
  Q 41.34 17.54 45.05 13.16
  Q 45.10 13.11 45.15 13.15
  L 45.36 13.32
  Q 45.55 13.48 45.40 13.66
  L 38.22 22.45
  A 0.83 0.81 51.1 0 0 38.13 23.36
  Q 38.89 24.78 39.98 26.01
  Q 43.55 30.04 46.19 33.69
  Q 46.22 33.74 46.18 33.77
  L 45.97 33.96
  Q 45.80 34.10 45.66 33.93
  L 37.78 24.25
  Q 37.43 23.83 37.09 24.27
  L 29.61 34.01
  Q 29.48 34.17 29.33 34.04
  L 29.10 33.85
  Q 28.87 33.66 29.07 33.43
  Q 33.42 28.57 36.84 23.38
  Q 37.08 23.01 36.81 22.66
  L 29.95 13.59
  Q 29.79 13.38 30.00 13.23
  L 30.22 13.07
  Q 30.32 13.00 30.40 13.10
  L 36.94 21.87
  Q 37.43 22.53 37.94 21.88
  Z"
/>
</svg>
