<?xml version="1.0" encoding="UTF-8" standalone="no"?>
<!DOCTYPE svg PUBLIC "-//W3C//DTD SVG 1.1//EN" "http://www.w3.org/Graphics/SVG/1.1/DTD/svg11.dtd">
<svg xmlns="http://www.w3.org/2000/svg" version="1.1" viewBox="0.00 0.00 188.00 187.00">
<g stroke-width="2.00" fill="none" stroke-linecap="butt">
<path stroke="#e89c89" vector-effect="non-scaling-stroke" d="
  M 94.23 65.51
  L 54.64 65.50
  A 0.46 0.46 0.0 0 0 54.18 66.01
  L 58.38 113.21
  A 0.42 0.41 -2.2 0 0 58.80 113.59
  L 94.06 113.60"
/>
<path stroke="#eb5928" vector-effect="non-scaling-stroke" d="
  M 94.06 113.60
  L 94.15 138.98"
/>
<path stroke="#f2a693" vector-effect="non-scaling-stroke" d="
  M 94.15 138.98
  Q 94.05 139.02 93.95 139.06"
/>
<path stroke="#e89c89" vector-effect="non-scaling-stroke" d="
  M 93.95 139.06
  L 76.78 134.37
  Q 76.30 134.24 76.26 133.75
  L 75.23 122.18
  Q 75.18 121.69 74.68 121.69
  L 59.54 121.67
  Q 59.13 121.67 59.16 122.08
  L 61.32 146.20
  A 0.48 0.48 0.0 0 0 61.67 146.62
  L 94.01 155.56"
/>
<path stroke="#eb5928" vector-effect="non-scaling-stroke" d="
  M 94.01 155.56
  L 94.03 171.45
  A 0.55 0.54 -8.1 0 0 94.73 171.97
  L 135.50 160.57
  A 0.92 0.92 0.0 0 0 136.17 159.77
  L 145.93 50.21
  A 0.51 0.51 0.0 0 0 145.42 49.65
  L 94.71 49.65
  Q 94.16 49.65 94.16 50.19
  L 94.23 65.51"
/>
<path stroke="#f8b294" vector-effect="non-scaling-stroke" d="
  M 94.01 155.56
  L 126.11 146.68
  Q 126.64 146.53 126.69 145.98
  L 130.93 98.30
  Q 130.98 97.80 130.48 97.80
  L 94.19 97.75"
/>
<path stroke="#eb5928" vector-effect="non-scaling-stroke" d="
  M 94.19 97.75
  L 94.10 81.49"
/>
<path stroke="#f8b294" vector-effect="non-scaling-stroke" d="
  M 94.10 81.49
  L 131.94 81.48
  Q 132.44 81.48 132.48 80.98
  L 133.80 66.20
  Q 133.86 65.53 133.18 65.53
  L 94.23 65.51"
/>
<path stroke="#f5f5f5" vector-effect="non-scaling-stroke" d="
  M 94.23 65.51
  L 93.87 81.51"
/>
<path stroke="#e89c89" vector-effect="non-scaling-stroke" d="
  M 93.87 81.51
  L 72.18 81.53
  Q 71.61 81.53 71.66 82.10
  L 72.99 97.06
  Q 73.05 97.68 73.67 97.68
  L 94.19 97.75"
/>
<path stroke="#f5f5f5" vector-effect="non-scaling-stroke" d="
  M 94.19 97.75
  L 94.05 98.05
  Q 93.93 98.31 93.93 98.59
  L 93.82 113.58"
/>
<path stroke="#eea88a" vector-effect="non-scaling-stroke" d="
  M 93.82 113.58
  Q 93.94 113.59 94.06 113.60"
/>
<path stroke="#f2a693" vector-effect="non-scaling-stroke" d="
  M 94.10 81.49
  Q 93.99 81.50 93.87 81.51"
/>
<path stroke="#f5f5f5" vector-effect="non-scaling-stroke" d="
  M 94.01 155.56
  L 93.95 139.06"
/>
<path stroke="#f8b294" vector-effect="non-scaling-stroke" d="
  M 94.15 138.98
  L 111.23 134.36
  Q 111.69 134.23 111.74 133.75
  L 113.48 114.21
  A 0.60 0.59 -87.4 0 0 112.89 113.56
  L 93.82 113.58"
/>
</g>
<path fill="#000000" d="
  M 57.40 19.84
  L 50.83 19.86
  A 0.38 0.38 0.0 0 0 50.45 20.24
  L 50.42 27.70
  A 0.38 0.38 0.0 0 1 50.04 28.08
  L 42.71 28.08
  A 0.38 0.38 0.0 0 1 42.33 27.70
  L 42.33 4.22
  A 0.38 0.38 0.0 0 1 42.71 3.84
  L 50.06 3.84
  A 0.38 0.38 0.0 0 1 50.44 4.22
  L 50.41 11.41
  A 0.38 0.38 0.0 0 0 50.79 11.79
  L 57.40 11.78
  A 0.38 0.38 0.0 0 0 57.78 11.40
  L 57.77 4.20
  A 0.38 0.38 0.0 0 1 58.15 3.82
  L 65.47 3.86
  A 0.38 0.38 0.0 0 1 65.85 4.24
  L 65.85 27.70
  A 0.38 0.38 0.0 0 1 65.47 28.08
  L 58.15 28.07
  A 0.38 0.38 0.0 0 1 57.77 27.69
  L 57.78 20.22
  A 0.38 0.38 0.0 0 0 57.40 19.84
  Z"
/>
<path fill="#000000" d="
  M 84.65 12.18
  L 84.65 27.69
  A 0.39 0.39 0.0 0 1 84.26 28.08
  L 76.94 28.07
  A 0.39 0.39 0.0 0 1 76.55 27.68
  L 76.56 12.20
  A 0.39 0.39 0.0 0 0 76.17 11.81
  L 69.73 11.81
  A 0.39 0.39 0.0 0 1 69.34 11.42
  L 69.36 4.23
  A 0.39 0.39 0.0 0 1 69.75 3.84
  L 91.35 3.84
  A 0.39 0.39 0.0 0 1 91.74 4.23
  L 91.76 11.43
  A 0.39 0.39 0.0 0 1 91.37 11.82
  L 85.04 11.79
  A 0.39 0.39 0.0 0 0 84.65 12.18
  Z"
/>
<path fill="#000000" d="
  M 102.83 28.07
  L 95.61 28.09
  A 0.35 0.35 0.0 0 1 95.26 27.74
  L 95.26 4.19
  A 0.35 0.35 0.0 0 1 95.61 3.84
  L 103.50 3.85
  A 0.35 0.35 0.0 0 1 103.80 4.02
  L 108.54 11.87
  A 0.35 0.35 0.0 0 0 109.14 11.87
  L 113.91 4.01
  A 0.35 0.35 0.0 0 1 114.21 3.84
  L 122.18 3.83
  A 0.35 0.35 0.0 0 1 122.53 4.18
  L 122.53 27.73
  A 0.35 0.35 0.0 0 1 122.18 28.08
  L 114.74 28.07
  A 0.35 0.35 0.0 0 1 114.39 27.72
  L 114.46 16.99
  A 0.35 0.35 0.0 0 0 113.82 16.80
  L 109.05 24.36
  A 0.35 0.35 0.0 0 1 108.46 24.36
  L 103.81 16.80
  A 0.35 0.35 0.0 0 0 103.16 16.98
  L 103.18 27.72
  A 0.35 0.35 0.0 0 1 102.83 28.07
  Z"
/>
<path fill="#000000" d="
  M 135.03 20.00
  L 145.56 19.96
  A 0.41 0.41 0.0 0 1 145.97 20.37
  L 146.02 27.66
  A 0.41 0.41 0.0 0 1 145.61 28.07
  L 126.95 28.07
  A 0.41 0.41 0.0 0 1 126.54 27.66
  L 126.54 4.25
  A 0.41 0.41 0.0 0 1 126.95 3.84
  L 134.21 3.83
  A 0.41 0.41 0.0 0 1 134.62 4.24
  L 134.62 19.59
  A 0.41 0.41 0.0 0 0 135.03 20.00
  Z"
/>
<path fill="#e44d26" d="
  M 42.09 168.49
  L 30.62 39.53
  A 0.38 0.38 0.0 0 1 31.00 39.12
  L 157.09 39.12
  A 0.38 0.38 0.0 0 1 157.47 39.53
  L 145.99 168.47
  A 0.38 0.38 0.0 0 1 145.72 168.80
  L 94.06 183.06
  A 0.38 0.38 0.0 0 1 93.86 183.06
  L 42.36 168.82
  A 0.38 0.38 0.0 0 1 42.09 168.49
  Z
  M 94.23 65.51
  L 54.64 65.50
  A 0.46 0.46 0.0 0 0 54.18 66.01
  L 58.38 113.21
  A 0.42 0.41 -2.2 0 0 58.80 113.59
  L 94.06 113.60
  L 94.15 138.98
  Q 94.05 139.02 93.95 139.06
  L 76.78 134.37
  Q 76.30 134.24 76.26 133.75
  L 75.23 122.18
  Q 75.18 121.69 74.68 121.69
  L 59.54 121.67
  Q 59.13 121.67 59.16 122.08
  L 61.32 146.20
  A 0.48 0.48 0.0 0 0 61.67 146.62
  L 94.01 155.56
  L 94.03 171.45
  A 0.55 0.54 -8.1 0 0 94.73 171.97
  L 135.50 160.57
  A 0.92 0.92 0.0 0 0 136.17 159.77
  L 145.93 50.21
  A 0.51 0.51 0.0 0 0 145.42 49.65
  L 94.71 49.65
  Q 94.16 49.65 94.16 50.19
  L 94.23 65.51
  Z"
/>
<path fill="#f16529" d="
  M 94.01 155.56
  L 126.11 146.68
  Q 126.64 146.53 126.69 145.98
  L 130.93 98.30
  Q 130.98 97.80 130.48 97.80
  L 94.19 97.75
  L 94.10 81.49
  L 131.94 81.48
  Q 132.44 81.48 132.48 80.98
  L 133.80 66.20
  Q 133.86 65.53 133.18 65.53
  L 94.23 65.51
  L 94.16 50.19
  Q 94.16 49.65 94.71 49.65
  L 145.42 49.65
  A 0.51 0.51 0.0 0 1 145.93 50.21
  L 136.17 159.77
  A 0.92 0.92 0.0 0 1 135.50 160.57
  L 94.73 171.97
  A 0.55 0.54 -8.1 0 1 94.03 171.45
  L 94.01 155.56
  Z"
/>
<path fill="#ebebeb" d="
  M 94.23 65.51
  L 93.87 81.51
  L 72.18 81.53
  Q 71.61 81.53 71.66 82.10
  L 72.99 97.06
  Q 73.05 97.68 73.67 97.68
  L 94.19 97.75
  L 94.05 98.05
  Q 93.93 98.31 93.93 98.59
  L 93.82 113.58
  Q 93.94 113.59 94.06 113.60
  L 58.80 113.59
  A 0.42 0.41 -2.2 0 1 58.38 113.21
  L 54.18 66.01
  A 0.46 0.46 0.0 0 1 54.64 65.50
  L 94.23 65.51
  Z"
/>
<path fill="#ffffff" d="
  M 94.23 65.51
  L 133.18 65.53
  Q 133.86 65.53 133.80 66.20
  L 132.48 80.98
  Q 132.44 81.48 131.94 81.48
  L 94.10 81.49
  Q 93.99 81.50 93.87 81.51
  L 94.23 65.51
  Z"
/>
<path fill="#e44d26" d="
  M 93.87 81.51
  Q 93.99 81.50 94.10 81.49
  L 94.19 97.75
  L 73.67 97.68
  Q 73.05 97.68 72.99 97.06
  L 71.66 82.10
  Q 71.61 81.53 72.18 81.53
  L 93.87 81.51
  Z"
/>
<path fill="#ffffff" d="
  M 94.19 97.75
  L 130.48 97.80
  Q 130.98 97.80 130.93 98.30
  L 126.69 145.98
  Q 126.64 146.53 126.11 146.68
  L 94.01 155.56
  L 93.95 139.06
  Q 94.05 139.02 94.15 138.98
  L 111.23 134.36
  Q 111.69 134.23 111.74 133.75
  L 113.48 114.21
  A 0.60 0.59 -87.4 0 0 112.89 113.56
  L 93.82 113.58
  L 93.93 98.59
  Q 93.93 98.31 94.05 98.05
  L 94.19 97.75
  Z"
/>
<path fill="#f16529" d="
  M 94.06 113.60
  Q 93.94 113.59 93.82 113.58
  L 112.89 113.56
  A 0.60 0.59 -87.4 0 1 113.48 114.21
  L 111.74 133.75
  Q 111.69 134.23 111.23 134.36
  L 94.15 138.98
  L 94.06 113.60
  Z"
/>
<path fill="#ebebeb" d="
  M 93.95 139.06
  L 94.01 155.56
  L 61.67 146.62
  A 0.48 0.48 0.0 0 1 61.32 146.20
  L 59.16 122.08
  Q 59.13 121.67 59.54 121.67
  L 74.68 121.69
  Q 75.18 121.69 75.23 122.18
  L 76.26 133.75
  Q 76.30 134.24 76.78 134.37
  L 93.95 139.06
  Z"
/>
</svg>
