<?xml version="1.0" encoding="UTF-8" standalone="no"?>
<!DOCTYPE svg PUBLIC "-//W3C//DTD SVG 1.1//EN" "http://www.w3.org/Graphics/SVG/1.1/DTD/svg11.dtd">
<svg xmlns="http://www.w3.org/2000/svg" version="1.1" viewBox="0.00 0.00 185.00 256.00">
<g stroke-width="2.00" fill="none" stroke-linecap="butt">
<path stroke="#8a7b6c" vector-effect="non-scaling-stroke" d="
  M 63.95 42.06
  Q 61.54 51.09 61.24 56.50
  C 61.03 60.43 63.07 65.61 63.63 70.37
  Q 63.89 72.54 61.80 73.16
  Q 59.25 73.91 56.08 73.89
  Q 55.57 73.89 55.43 73.40
  L 54.61 70.65"
/>
<path stroke="#8d8277" vector-effect="non-scaling-stroke" d="
  M 54.61 70.65
  Q 52.91 64.06 47.83 63.35
  Q 43.63 62.75 39.83 66.04
  Q 34.06 71.03 36.38 79.85
  Q 37.06 82.45 39.74 86.71"
/>
<path stroke="#8a7b6c" vector-effect="non-scaling-stroke" d="
  M 39.74 86.71
  Q 42.69 91.87 48.97 92.33
  A 1.65 1.61 -55.7 0 0 49.81 92.16
  L 56.58 88.70"
/>
<path stroke="#8d8277" vector-effect="non-scaling-stroke" d="
  M 56.58 88.70
  Q 57.72 90.88 56.49 92.26
  Q 54.79 94.15 53.53 96.11
  Q 53.24 96.56 53.34 97.08
  Q 55.17 107.49 60.57 117.52
  C 63.47 122.91 68.00 125.48 73.95 126.24"
/>
<path stroke="#8a7b6c" vector-effect="non-scaling-stroke" d="
  M 73.95 126.24
  L 82.82 127.37
  Q 83.37 127.43 83.70 127.00
  C 85.83 124.30 89.92 124.50 92.99 124.97
  Q 94.20 125.15 93.12 124.59
  C 86.81 121.33 80.98 114.23 76.81 108.38
  Q 74.63 105.32 74.21 101.54
  Q 74.10 100.52 74.69 101.36
  C 82.02 111.79 89.36 120.69 101.58 124.60
  Q 109.14 127.02 117.65 124.33
  C 124.45 122.18 132.16 118.55 136.06 113.25
  C 143.33 103.36 148.07 93.20 149.98 81.84
  Q 151.01 75.70 151.19 73.45
  Q 152.07 62.66 151.34 53.18
  Q 150.78 45.94 149.66 42.35
  C 147.80 36.33 139.60 30.57 133.25 34.75
  Q 132.91 34.97 132.67 34.63
  Q 132.59 34.51 132.51 34.33"
/>
<path stroke="#8d8277" vector-effect="non-scaling-stroke" d="
  M 132.51 34.33
  C 132.99 30.54 135.95 28.20 139.76 28.53
  Q 140.98 28.64 142.13 28.81
  Q 142.93 28.94 142.43 28.31
  L 138.85 23.77"
/>
<path stroke="#8a7b6c" vector-effect="non-scaling-stroke" d="
  M 138.85 23.77
  Q 134.35 17.34 128.79 13.94"
/>
<path stroke="#8d8277" vector-effect="non-scaling-stroke" d="
  M 128.79 13.94
  Q 121.97 9.94 114.73 7.96
  C 106.47 5.70 96.85 4.62 89.22 8.08
  Q 76.76 13.74 67.72 22.81
  Q 64.75 25.79 63.01 29.53
  A 1.29 1.27 49.1 0 0 62.95 30.48
  Q 64.59 35.39 63.95 42.06"
/>
<path stroke="#f4ddc2" vector-effect="non-scaling-stroke" d="
  M 128.79 13.94
  Q 115.75 11.14 103.21 12.82
  C 94.17 14.03 86.13 16.32 79.28 21.80
  Q 69.85 29.35 63.95 42.06"
/>
<path stroke="#f4ddc2" vector-effect="non-scaling-stroke" d="
  M 138.85 23.77
  C 133.75 24.74 129.42 28.88 131.21 34.21
  Q 131.38 34.72 131.91 34.64
  Q 132.26 34.59 132.51 34.33"
/>
<path stroke="#f4ddc2" vector-effect="non-scaling-stroke" d="
  M 73.95 126.24
  Q 64.44 116.79 61.39 104.51
  Q 59.62 97.34 59.04 91.77
  Q 58.79 89.34 56.58 88.70"
/>
<path stroke="#f4ddc2" vector-effect="non-scaling-stroke" d="
  M 39.74 86.71
  Q 38.95 79.92 40.88 73.74
  Q 41.08 73.08 40.75 72.79"
/>
<path stroke="#8a7b6c" vector-effect="non-scaling-stroke" d="
  M 40.75 72.79
  Q 42.26 70.80 43.82 71.25
  Q 44.35 71.41 44.17 71.92
  Q 42.27 77.52 44.50 82.27
  Q 45.50 84.39 45.47 82.05
  C 45.43 79.19 45.15 75.86 46.72 73.41
  Q 47.03 72.94 47.59 72.90
  C 50.18 72.74 51.48 76.92 52.70 78.78
  Q 53.12 79.43 53.26 78.67
  Q 54.07 74.30 51.31 70.42"
/>
<path stroke="#f4ddc2" vector-effect="non-scaling-stroke" d="
  M 51.31 70.42
  Q 52.62 70.13 54.61 70.65"
/>
<path stroke="#8d8277" vector-effect="non-scaling-stroke" d="
  M 51.31 70.42
  Q 43.45 63.83 40.56 72.41
  Q 40.51 72.55 40.57 72.62
  Q 40.63 72.70 40.75 72.79"
/>
<path stroke="#484547" vector-effect="non-scaling-stroke" d="
  M 53.97 27.96
  Q 56.51 27.74 58.94 27.85
  C 60.49 27.93 61.77 27.24 62.63 26.12
  C 64.43 23.80 66.15 20.11 68.78 17.78
  Q 70.01 16.69 70.90 15.30"
/>
<path stroke="#807c7c" vector-effect="non-scaling-stroke" d="
  M 70.90 15.30
  L 75.86 12.37
  Q 76.32 12.11 76.35 11.59
  Q 76.40 10.94 75.70 10.63
  A 0.75 0.75 0.0 0 0 75.21 10.60
  Q 62.22 14.21 52.47 23.32
  Q 49.71 25.91 47.92 29.26
  Q 47.57 29.92 48.29 29.70
  L 53.97 27.96"
/>
<path stroke="#a5a2a3" vector-effect="non-scaling-stroke" d="
  M 70.90 15.30
  Q 60.39 19.26 53.97 27.96"
/>
<path stroke="#484547" vector-effect="non-scaling-stroke" d="
  M 41.11 59.04
  C 42.75 59.07 44.28 58.43 45.63 58.42
  Q 56.64 58.32 58.65 69.01
  Q 58.75 69.55 59.28 69.37
  Q 60.17 69.04 60.43 68.15
  Q 60.80 66.89 60.43 65.68
  Q 58.16 58.48 58.97 53.14
  Q 60.21 44.96 60.72 37.76
  Q 60.79 36.78 60.25 34.28"
/>
<path stroke="#807c7c" vector-effect="non-scaling-stroke" d="
  M 60.25 34.28
  Q 60.15 33.05 59.68 31.96
  Q 59.48 31.50 58.98 31.54
  Q 49.81 32.36 43.37 38.74
  C 38.61 43.46 38.83 52.75 39.62 59.56
  Q 39.68 60.09 40.22 60.04
  Q 41.24 59.95 41.11 59.04"
/>
<path stroke="#a5a2a3" vector-effect="non-scaling-stroke" d="
  M 60.25 34.28
  Q 51.14 35.36 46.07 40.32
  Q 38.73 47.50 41.11 59.04"
/>
<path stroke="#7b2c2a" vector-effect="non-scaling-stroke" d="
  M 6.16 132.81
  Q 9.17 164.10 31.26 186.95
  Q 31.80 187.50 31.71 186.73
  C 30.87 178.92 29.53 171.24 26.77 163.94
  C 24.06 156.77 21.22 149.93 19.53 142.74
  Q 18.41 137.99 22.37 135.78
  Q 27.51 132.92 32.35 129.81
  C 38.94 125.58 45.48 121.86 52.17 117.92
  C 55.42 116.00 53.72 112.58 52.16 110.29
  C 49.91 106.99 48.76 103.02 48.25 99.05
  A 0.92 0.92 0.0 0 0 47.53 98.26
  Q 40.06 96.62 35.92 90.31
  Q 30.94 82.72 31.06 70.91"
/>
<path stroke="#892e2d" vector-effect="non-scaling-stroke" d="
  M 31.06 70.91
  Q 31.50 67.14 33.70 63.38
  C 34.79 61.49 34.50 60.52 34.36 58.57
  Q 34.30 57.64 33.62 58.28
  Q 22.63 68.75 15.69 82.18
  Q 3.52 105.72 6.16 132.81"
/>
<path stroke="#e13b37" vector-effect="non-scaling-stroke" d="
  M 31.06 70.91
  Q 15.92 87.51 10.74 109.01
  Q 8.00 120.38 6.16 132.81"
/>
<path stroke="#7b2c2a" vector-effect="non-scaling-stroke" d="
  M 148.28 101.48
  C 147.29 104.16 145.47 106.68 144.16 109.28
  Q 142.66 112.25 145.14 114.50
  Q 151.12 119.95 157.70 125.65
  C 163.31 130.50 161.51 134.53 159.42 141.51
  Q 153.86 160.02 148.13 175.95
  Q 147.70 177.15 148.82 176.55
  Q 157.26 172.00 165.14 171.00
  Q 165.65 170.93 165.95 170.51
  Q 166.84 169.27 167.59 167.91
  Q 177.06 150.71 178.60 132.30
  Q 181.62 96.11 159.55 67.56
  Q 157.73 65.21 155.69 63.13
  Q 155.25 62.68 155.24 63.31
  Q 154.99 83.22 148.28 101.48"
/>
<path stroke="#2b3841" vector-effect="non-scaling-stroke" d="
  M 140.62 126.65
  Q 141.82 131.46 142.14 134.00
  Q 143.01 140.70 140.72 147.29
  Q 140.55 147.79 140.86 148.23
  L 143.64 152.17
  A 0.57 0.54 43.6 0 1 143.67 152.77
  L 127.93 179.18
  Q 127.51 179.89 128.31 179.67
  Q 132.49 178.48 137.42 178.57
  Q 139.84 178.62 141.78 177.60
  Q 143.14 176.89 144.30 174.21
  Q 151.94 156.53 155.94 137.92"
/>
<path stroke="#364956" vector-effect="non-scaling-stroke" d="
  M 155.94 137.92
  Q 157.01 133.47 154.21 131.05
  Q 146.92 124.75 139.92 117.76
  A 0.50 0.50 0.0 0 0 139.23 117.75
  L 134.11 122.58
  Q 133.76 122.91 134.23 122.79
  L 134.68 122.68
  Q 135.13 122.56 135.57 122.71
  Q 138.89 123.80 140.62 126.65"
/>
<path stroke="#3e6176" vector-effect="non-scaling-stroke" d="
  M 155.94 137.92
  L 140.62 126.65"
/>
<path stroke="#2b3841" vector-effect="non-scaling-stroke" d="
  M 40.78 209.55
  C 50.93 215.01 60.53 220.23 71.01 220.77
  Q 71.66 220.81 71.58 220.17
  L 68.07 192.28"
/>
<path stroke="#364956" vector-effect="non-scaling-stroke" d="
  M 68.07 192.28
  L 67.79 189.46
  A 2.10 2.10 0.0 0 0 65.68 187.56
  L 55.77 187.68"
/>
<path stroke="#2b3841" vector-effect="non-scaling-stroke" d="
  M 55.77 187.68
  C 55.68 185.22 58.52 185.00 60.26 184.41
  A 1.43 1.43 0.0 0 0 60.88 182.11
  Q 59.58 180.62 59.27 178.97
  A 0.58 0.58 0.0 0 1 60.12 178.36
  L 65.52 181.41
  Q 66.03 181.70 66.19 181.14
  Q 67.71 176.08 67.13 171.43
  C 66.68 167.84 65.54 160.52 67.77 157.95
  Q 68.17 157.50 68.62 157.90
  Q 69.25 158.46 69.50 159.47"
/>
<path stroke="#364956" vector-effect="non-scaling-stroke" d="
  M 69.50 159.47
  L 69.13 180.77
  Q 69.09 183.08 71.39 182.84
  L 73.44 182.63"
/>
<path stroke="#2b3841" vector-effect="non-scaling-stroke" d="
  M 73.44 182.63
  Q 92.54 180.15 110.95 179.65
  Q 112.29 179.62 111.05 179.09
  Q 102.99 175.62 94.29 171.17
  C 87.96 167.94 91.44 164.83 93.84 160.77
  Q 94.30 160.00 93.46 160.34
  C 88.86 162.21 86.85 159.19 85.65 155.42
  Q 83.44 148.54 81.94 141.15
  Q 81.75 140.22 80.88 139.86
  Q 71.42 135.87 62.89 129.63"
/>
<path stroke="#364956" vector-effect="non-scaling-stroke" d="
  M 62.89 129.63
  L 56.87 122.82
  A 0.71 0.70 57.8 0 0 56.06 122.63
  C 44.41 127.46 35.00 134.45 25.20 141.85
  A 0.63 0.62 -31.5 0 0 25.01 142.61
  Q 28.42 149.91 30.68 157.83
  Q 35.48 174.64 37.06 191.77
  Q 37.75 199.27 38.09 207.42
  A 1.33 1.30 19.5 0 0 38.56 208.38
  Q 39.47 209.15 40.78 209.55"
/>
<path stroke="#3e6176" vector-effect="non-scaling-stroke" d="
  M 62.89 129.63
  L 33.83 142.55
  Q 33.49 142.70 33.57 143.06
  Q 36.82 157.42 39.32 171.92
  Q 42.07 187.82 41.70 203.25
  Q 41.64 205.56 40.78 209.55"
/>
<path stroke="#3e6176" vector-effect="non-scaling-stroke" d="
  M 73.44 182.63
  Q 73.34 173.91 73.43 165.40
  Q 73.46 163.27 72.43 161.94
  Q 71.16 160.29 69.50 159.47"
/>
<path stroke="#3e6176" vector-effect="non-scaling-stroke" d="
  M 55.77 187.68
  Q 55.40 187.19 54.56 187.47
  Q 54.05 187.64 54.44 188.00
  Q 57.07 190.47 58.41 190.66
  Q 63.14 191.35 68.07 192.28"
/>
<path stroke="#7b2c2a" vector-effect="non-scaling-stroke" d="
  M 122.10 142.45
  Q 121.86 143.43 122.05 143.99
  Q 122.21 144.50 122.71 144.61
  Q 130.15 146.33 137.23 146.53
  Q 137.75 146.55 137.96 146.07
  C 139.81 141.89 138.92 135.73 137.85 131.75"
/>
<path stroke="#892e2d" vector-effect="non-scaling-stroke" d="
  M 137.85 131.75
  Q 136.63 126.18 131.86 128.06
  Q 128.42 129.42 121.27 134.26
  Q 120.86 134.54 121.01 135.02
  L 121.60 136.98
  Q 121.83 137.73 122.60 137.59
  Q 124.76 137.18 126.79 138.13
  Q 127.46 138.44 126.72 138.44
  Q 124.73 138.44 122.83 139.19
  Q 122.35 139.39 122.31 139.90
  L 122.10 142.45"
/>
<path stroke="#e13b37" vector-effect="non-scaling-stroke" d="
  M 137.85 131.75
  C 134.94 131.71 127.60 131.49 128.58 136.45
  Q 129.42 140.71 124.85 141.15
  Q 124.28 141.20 123.92 141.64
  Q 123.18 142.54 122.10 142.45"
/>
<path stroke="#918f90" vector-effect="non-scaling-stroke" d="
  M 72.04 129.11
  C 71.19 128.95 70.52 128.45 69.69 128.24
  Q 69.16 128.11 69.02 128.64
  Q 68.71 129.85 69.71 130.59
  Q 74.83 134.36 80.83 135.27
  Q 81.19 135.33 81.25 134.97
  L 81.98 130.61
  Q 82.05 130.24 81.67 130.23
  Q 76.66 130.02 72.04 129.11"
/>
<path stroke="#8a7b6c" vector-effect="non-scaling-stroke" d="
  M 105.83 129.98
  C 108.47 132.61 112.90 133.41 116.57 133.11
  A 1.72 1.68 23.4 0 0 117.48 132.76
  L 122.58 128.80
  Q 123.58 128.03 122.35 128.32
  Q 116.54 129.71 110.49 130.42
  Q 108.72 130.63 106.04 129.65
  Q 105.17 129.32 105.83 129.98"
/>
<path stroke="#7b2c2a" vector-effect="non-scaling-stroke" d="
  M 87.44 151.36
  L 88.72 155.46
  A 1.88 1.88 0.0 0 0 90.86 156.74
  Q 95.76 155.81 99.57 153.75
  Q 103.46 151.65 109.90 146.16
  A 1.61 1.58 -20.6 0 0 110.46 144.95
  L 110.47 142.95
  Q 110.47 142.23 109.77 142.08
  L 103.21 140.70"
/>
<path stroke="#892e2d" vector-effect="non-scaling-stroke" d="
  M 103.21 140.70
  L 108.53 139.01
  Q 112.01 137.91 108.53 136.82
  C 107.67 136.55 106.89 136.41 106.10 135.91
  Q 99.21 131.54 89.76 129.32
  C 87.11 128.69 85.67 130.86 85.27 133.26
  Q 83.66 142.95 87.44 151.36"
/>
<path stroke="#e13b37" vector-effect="non-scaling-stroke" d="
  M 103.21 140.70
  Q 103.84 136.76 102.14 136.10
  Q 95.89 133.68 89.27 134.77
  A 2.16 2.16 0.0 0 0 87.48 136.57
  Q 87.16 138.69 87.49 140.97
  Q 88.25 146.10 87.44 151.36"
/>
<path stroke="#7b2c2a" vector-effect="non-scaling-stroke" d="
  M 112.92 141.45
  L 113.19 142.83
  Q 113.30 143.34 113.79 143.48
  Q 118.16 144.73 118.79 140.54
  Q 119.32 137.01 116.11 136.26"
/>
<path stroke="#892e2d" vector-effect="non-scaling-stroke" d="
  M 116.11 136.26
  Q 114.26 136.19 112.91 137.07
  A 0.83 0.83 0.0 0 0 112.54 137.86
  L 112.92 141.45"
/>
<path stroke="#e13b37" vector-effect="non-scaling-stroke" d="
  M 116.11 136.26
  Q 116.05 139.95 112.92 141.45"
/>
<path stroke="#918f90" vector-effect="non-scaling-stroke" d="
  M 124.84 172.81
  Q 126.96 162.64 126.67 153.14"
/>
<path stroke="#807c7c" vector-effect="non-scaling-stroke" d="
  M 126.67 153.14
  L 126.95 150.10
  Q 127.00 149.50 126.41 149.41
  Q 123.69 148.99 121.16 147.01
  A 3.75 3.74 48.9 0 0 116.95 146.72
  Q 115.25 147.72 113.20 147.57
  A 2.04 2.03 74.1 0 0 111.41 150.80
  C 112.98 152.96 114.56 155.21 115.70 157.65
  Q 120.00 166.88 123.71 175.10
  Q 124.27 176.36 124.49 175.00
  L 124.84 172.81"
/>
<path stroke="#eeecec" vector-effect="non-scaling-stroke" d="
  M 126.67 153.14
  L 119.94 149.97
  Q 119.49 149.76 119.03 149.93
  Q 115.22 151.28 116.67 155.15
  Q 117.96 158.61 119.51 162.01
  Q 119.62 162.24 119.62 162.50
  Q 119.62 162.73 119.74 162.93
  Q 122.19 167.29 124.84 172.81"
/>
<path stroke="#526872" vector-effect="non-scaling-stroke" d="
  M 126.75 175.79
  Q 134.05 165.35 140.28 154.15
  Q 140.57 153.62 140.21 153.14
  Q 136.30 147.94 130.29 149.79
  Q 129.71 149.97 129.67 150.57
  C 129.06 159.18 128.65 167.53 126.27 176.19
  Q 126.22 176.39 126.41 176.32
  Q 126.55 176.26 126.59 176.13
  Q 126.64 175.95 126.75 175.79"
/>
<path stroke="#526872" vector-effect="non-scaling-stroke" d="
  M 104.45 170.55
  Q 111.72 174.12 119.60 176.69
  Q 120.13 176.87 119.92 176.35
  C 116.59 168.17 113.20 159.98 107.95 152.70
  Q 107.65 152.28 107.21 152.55
  C 101.67 155.96 97.07 159.52 95.14 165.18
  Q 94.95 165.73 95.46 166.00
  Q 100.20 168.47 104.45 170.55"
/>
<path stroke="#807c7c" vector-effect="non-scaling-stroke" d="
  M 148.59 183.13
  Q 147.60 183.52 147.15 184.08
  Q 146.84 184.47 146.95 184.96
  Q 149.24 195.24 149.84 205.61
  Q 149.88 206.29 150.56 206.24
  Q 157.60 205.73 164.16 205.78
  Q 166.04 205.80 167.75 206.35
  Q 168.74 206.68 167.72 206.92
  L 158.53 209.06
  Q 157.30 209.34 158.48 209.78
  Q 160.21 210.41 162.11 210.39
  C 167.86 210.32 173.38 209.82 176.20 203.99
  Q 178.91 198.39 175.81 190.57"
/>
<path stroke="#918f90" vector-effect="non-scaling-stroke" d="
  M 175.81 190.57
  Q 175.25 184.99 172.92 180.10
  C 171.73 177.59 168.16 174.85 165.06 175.92
  C 162.87 176.68 160.93 177.91 158.73 178.63
  Q 154.43 180.04 150.66 181.63
  Q 149.44 182.15 148.59 183.13"
/>
<path stroke="#eeecec" vector-effect="non-scaling-stroke" d="
  M 175.81 190.57
  L 172.42 201.10
  Q 172.28 201.56 171.80 201.54
  L 152.07 200.51
  A 0.73 0.73 0.0 0 1 151.39 199.91
  L 148.59 183.13"
/>
<path stroke="#807c7c" vector-effect="non-scaling-stroke" d="
  M 139.83 203.92
  L 140.18 207.41
  Q 140.30 208.68 141.53 208.36
  L 145.43 207.35
  Q 146.55 207.05 146.48 205.90
  L 146.21 201.48"
/>
<path stroke="#918f90" vector-effect="non-scaling-stroke" d="
  M 146.21 201.48
  Q 146.14 192.76 142.63 184.86
  Q 142.40 184.36 141.85 184.36
  L 137.82 184.33
  Q 137.16 184.33 137.25 184.98
  L 139.83 203.92"
/>
<path stroke="#eeecec" vector-effect="non-scaling-stroke" d="
  M 146.21 201.48
  L 139.83 203.92"
/>
<path stroke="#807c7c" vector-effect="non-scaling-stroke" d="
  M 105.28 250.45
  Q 115.16 250.58 124.65 248.01
  Q 125.11 247.88 125.05 247.41
  Q 123.76 238.29 123.23 223.94
  Q 122.66 208.49 120.77 186.28
  Q 120.73 185.81 120.27 185.74
  L 116.96 185.26"
/>
<path stroke="#918f90" vector-effect="non-scaling-stroke" d="
  M 116.96 185.26
  Q 114.47 184.80 111.26 184.66
  Q 90.57 183.80 70.70 187.86
  Q 70.20 187.96 70.25 188.48
  Q 73.19 218.44 82.01 246.56
  Q 82.16 247.04 82.64 247.18
  Q 93.79 250.41 105.28 250.45"
/>
<path stroke="#eeecec" vector-effect="non-scaling-stroke" d="
  M 116.96 185.26
  Q 116.35 205.33 117.99 225.25
  Q 118.73 234.37 120.37 243.46
  Q 120.46 243.96 119.99 244.17
  L 105.28 250.45"
/>
<path stroke="#2b3841" vector-effect="non-scaling-stroke" d="
  M 124.41 193.37
  L 125.46 213.58
  Q 125.48 213.85 125.74 213.81
  L 134.47 212.32
  A 0.22 0.22 0.0 0 0 134.65 212.08
  L 132.75 190.91"
/>
<path stroke="#364956" vector-effect="non-scaling-stroke" d="
  M 132.75 190.91
  L 131.91 186.25
  Q 131.68 184.95 130.36 185.09
  L 125.12 185.66
  Q 124.11 185.77 124.15 186.79
  L 124.41 193.37"
/>
<path stroke="#3e6176" vector-effect="non-scaling-stroke" d="
  M 132.75 190.91
  Q 128.76 193.46 124.41 193.37"
/>
<path stroke="#807c7c" vector-effect="non-scaling-stroke" d="
  M 133.26 236.96
  A 1.27 1.25 -8.8 0 0 134.25 235.62
  C 134.06 233.57 134.13 231.55 133.73 229.52
  Q 132.67 224.15 131.78 218.82
  A 1.18 1.17 79.7 0 0 130.40 217.86
  L 127.02 218.54
  Q 125.78 218.79 125.85 220.06
  L 126.80 237.57
  Q 126.84 238.36 127.61 238.19
  L 133.26 236.96"
/>
<path stroke="#8a7b6c" vector-effect="non-scaling-stroke" d="
  M 79.21 43.13
  Q 79.24 44.51 79.89 45.48
  A 0.84 0.84 0.0 0 0 81.35 45.36
  C 84.25 38.94 89.17 34.42 96.86 35.86
  A 1.02 1.02 0.0 0 0 98.06 34.99
  Q 98.40 32.36 94.63 30.42"
/>
<path stroke="#f4ddc2" vector-effect="non-scaling-stroke" d="
  M 94.63 30.42
  Q 93.75 26.54 87.95 28.47
  Q 80.80 30.85 78.43 38.35
  Q 77.18 42.31 79.21 43.13"
/>
<path stroke="#8d8277" vector-effect="non-scaling-stroke" d="
  M 94.63 30.42
  Q 82.91 30.95 79.21 43.13"
/>
<path stroke="#f4ddc2" vector-effect="non-scaling-stroke" d="
  M 142.93 48.94
  Q 137.74 50.41 137.22 55.28
  Q 136.99 57.39 139.10 57.15
  Q 141.96 56.83 144.58 55.48"
/>
<path stroke="#8a7b6c" vector-effect="non-scaling-stroke" d="
  M 144.58 55.48
  Q 148.06 59.48 138.32 59.21
  A 1.52 1.52 0.0 0 0 136.77 60.86
  Q 137.08 64.27 141.54 63.95
  Q 145.79 63.66 149.14 60.61
  A 1.42 1.41 -34.7 0 0 149.45 58.92
  L 143.51 47.22
  Q 143.02 46.25 142.98 47.33
  L 142.93 48.94"
/>
<path stroke="#8d8277" vector-effect="non-scaling-stroke" d="
  M 144.58 55.48
  L 142.93 48.94"
/>
<path stroke="#f4ddc2" vector-effect="non-scaling-stroke" d="
  M 102.19 49.04
  Q 98.97 49.49 96.57 51.31
  C 93.48 53.65 93.93 57.40 97.98 58.37
  Q 102.16 59.38 104.99 57.13"
/>
<path stroke="#8a7b6c" vector-effect="non-scaling-stroke" d="
  M 104.99 57.13
  L 106.55 60.10
  Q 106.80 60.58 106.35 60.90
  C 103.95 62.59 99.43 61.67 96.67 61.10
  Q 94.99 60.76 94.88 62.47
  Q 94.77 64.11 96.44 65.37
  A 2.75 2.75 0.0 0 0 97.32 65.81
  Q 103.01 67.40 106.97 65.99
  C 110.27 64.81 112.10 60.86 109.10 58.21
  C 105.98 55.47 104.36 51.49 102.85 47.71
  Q 102.56 47.00 102.29 47.71
  Q 102.10 48.19 102.19 49.04"
/>
<path stroke="#8d8277" vector-effect="non-scaling-stroke" d="
  M 104.99 57.13
  Q 102.52 53.05 102.19 49.04"
/>
<path stroke="#f4ddc2" vector-effect="non-scaling-stroke" d="
  M 115.98 84.50
  L 120.89 81.02
  A 1.02 1.02 0.0 0 0 121.26 79.87
  Q 120.40 77.42 118.36 77.25
  A 1.46 1.44 12.1 0 0 116.86 78.21
  L 115.28 82.67"
/>
<path stroke="#8a7b6c" vector-effect="non-scaling-stroke" d="
  M 115.28 82.67
  Q 112.35 87.17 115.89 91.34
  Q 116.22 91.72 116.73 91.76
  C 125.80 92.38 133.13 89.19 140.77 84.18
  Q 141.18 83.91 141.29 83.43
  C 141.85 81.12 143.69 77.56 141.73 75.60
  Q 133.28 67.17 127.41 58.14
  Q 125.41 55.06 124.22 51.23
  Q 123.93 50.27 122.96 50.53
  Q 122.49 50.65 122.48 51.15
  C 122.46 60.77 130.78 69.75 136.66 76.72
  C 138.25 78.60 138.30 82.28 135.90 83.49
  Q 129.53 86.70 124.27 88.25
  C 122.54 88.76 118.61 88.92 117.27 87.54
  Q 116.13 86.36 115.98 84.50"
/>
<path stroke="#8d8277" vector-effect="non-scaling-stroke" d="
  M 115.28 82.67
  L 115.98 84.50"
/>
<path stroke="#8a7b6c" vector-effect="non-scaling-stroke" d="
  M 144.71 88.66
  C 139.33 91.27 135.27 93.92 129.33 94.85
  Q 128.75 94.94 128.75 95.54
  L 128.77 100.41
  Q 128.78 100.87 129.24 100.86
  C 136.40 100.72 141.90 95.28 145.02 88.98
  Q 145.33 88.36 144.71 88.66"
/>
<path stroke="#8a7b6c" vector-effect="non-scaling-stroke" d="
  M 102.59 92.30
  A 0.28 0.28 0.0 0 0 102.22 92.67
  C 105.60 100.36 119.45 101.52 126.41 101.20
  Q 126.65 101.19 126.63 100.95
  L 126.21 95.53
  Q 126.19 95.22 125.87 95.22
  C 118.20 95.25 109.68 95.45 102.59 92.30"
/>
<path stroke="#f4ddc2" vector-effect="non-scaling-stroke" d="
  M 95.26 101.36
  C 95.93 98.89 95.62 96.80 98.13 95.22
  A 0.41 0.41 0.0 0 0 98.07 94.49
  Q 95.46 93.46 93.02 94.55
  A 0.98 0.98 0.0 0 0 92.44 95.41
  Q 92.34 99.06 93.54 101.52
  Q 94.61 103.71 95.26 101.36"
/>
<path stroke="#8a7b6c" vector-effect="non-scaling-stroke" d="
  M 112.91 106.01
  C 108.12 105.43 103.48 103.18 101.27 98.76
  Q 100.71 97.64 99.54 98.07
  L 99.04 98.25
  Q 97.92 98.66 98.73 99.53
  C 103.75 104.96 105.18 110.62 114.03 111.31
  C 118.69 111.67 127.90 111.60 129.84 107.12
  Q 130.15 106.38 129.36 106.44
  Q 121.29 107.02 112.91 106.01"
/>
<path stroke="#918f90" vector-effect="non-scaling-stroke" d="
  M 122.38 153.51
  A 1.77 1.77 0.0 0 0 120.61 151.74
  A 1.77 1.77 0.0 0 0 118.84 153.51
  A 1.77 1.77 0.0 0 0 120.61 155.28
  A 1.77 1.77 0.0 0 0 122.38 153.51"
/>
<path stroke="#918f90" vector-effect="non-scaling-stroke" d="
  M 124.26 162.24
  A 1.76 1.76 0.0 0 0 122.50 160.48
  A 1.76 1.76 0.0 0 0 120.74 162.24
  A 1.76 1.76 0.0 0 0 122.50 164.00
  A 1.76 1.76 0.0 0 0 124.26 162.24"
/>
<path stroke="#918f90" vector-effect="non-scaling-stroke" d="
  M 152.92 188.41
  C 157.16 188.31 160.96 184.35 165.14 183.09
  Q 165.63 182.95 165.13 182.82
  Q 164.62 182.69 164.22 182.98
  Q 157.45 182.97 152.66 187.81
  Q 152.04 188.43 152.92 188.41"
/>
<path stroke="#918f90" vector-effect="non-scaling-stroke" d="
  M 155.14 191.74
  L 167.65 191.42
  A 0.04 0.04 0.0 0 0 167.69 191.37
  L 167.69 191.33
  A 6.15 1.70 -1.5 0 0 161.50 189.80
  L 161.20 189.80
  A 6.15 1.70 -1.5 0 0 155.09 191.66
  L 155.09 191.70
  A 0.04 0.04 0.0 0 0 155.14 191.74"
/>
<path stroke="#918f90" vector-effect="non-scaling-stroke" d="
  M 155.14 197.63
  L 169.13 198.27
  A 0.12 0.12 0.0 0 0 169.25 198.15
  L 169.26 198.09
  A 6.98 1.34 2.6 0 0 162.34 196.44
  L 162.06 196.42
  A 6.98 1.34 2.6 0 0 155.03 197.45
  L 155.03 197.51
  A 0.12 0.12 0.0 0 0 155.14 197.63"
/>
</g>
<path fill="#231f20" d="
  M 105.89 256.00
  L 98.96 256.00
  Q 95.00 255.45 91.01 255.14
  Q 85.13 254.69 79.83 252.87
  A 0.67 0.65 -0.7 0 1 79.41 252.47
  Q 74.62 239.25 71.28 226.84
  Q 71.10 226.16 70.39 226.20
  C 61.17 226.76 52.26 222.53 44.02 218.25
  C 39.70 216.00 33.14 215.65 33.11 209.25
  Q 33.07 202.71 32.46 196.44
  A 1.85 1.85 0.0 0 0 31.86 195.25
  Q 1.79 167.58 0.00 126.20
  L 0.00 121.00
  Q 2.04 78.56 33.51 50.84
  A 0.99 0.96 71.5 0 0 33.84 50.15
  C 34.17 42.75 35.73 35.06 42.69 31.10
  Q 43.14 30.85 43.29 30.36
  Q 45.65 22.51 52.08 17.98
  C 62.92 10.34 76.06 3.39 89.02 1.17
  Q 104.87 -1.54 119.92 2.95
  C 128.84 5.61 135.30 11.11 141.60 17.86
  Q 148.87 25.65 151.50 33.95
  Q 154.58 43.65 155.13 54.03
  A 1.22 1.20 21.3 0 0 155.47 54.79
  Q 180.57 79.83 184.01 113.97
  Q 187.08 144.43 172.04 171.39
  Q 171.76 171.88 172.18 172.27
  Q 172.46 172.52 172.82 172.66
  C 176.53 174.03 179.08 182.88 180.35 186.70
  Q 182.38 192.82 182.01 197.59
  Q 181.48 204.29 177.86 209.80
  C 174.31 215.19 162.12 214.23 156.50 213.07
  Q 155.95 212.96 155.62 212.52
  L 154.24 210.67
  Q 153.93 210.24 153.40 210.21
  Q 146.84 209.85 141.68 211.97
  Q 141.08 212.22 141.08 212.87
  Q 141.08 215.85 137.85 216.53
  A 1.16 1.16 0.0 0 0 136.96 217.40
  C 136.01 221.38 137.73 227.30 138.68 231.33
  C 139.11 233.14 139.43 237.03 138.56 238.72
  C 136.94 241.86 133.15 242.37 130.05 243.01
  A 0.84 0.84 0.0 0 0 129.38 243.89
  L 129.73 249.15
  Q 129.77 249.64 129.52 250.06
  Q 127.03 254.29 121.39 254.84
  Q 111.43 255.80 105.89 256.00
  Z
  M 63.95 42.06
  Q 61.54 51.09 61.24 56.50
  C 61.03 60.43 63.07 65.61 63.63 70.37
  Q 63.89 72.54 61.80 73.16
  Q 59.25 73.91 56.08 73.89
  Q 55.57 73.89 55.43 73.40
  L 54.61 70.65
  Q 52.91 64.06 47.83 63.35
  Q 43.63 62.75 39.83 66.04
  Q 34.06 71.03 36.38 79.85
  Q 37.06 82.45 39.74 86.71
  Q 42.69 91.87 48.97 92.33
  A 1.65 1.61 -55.7 0 0 49.81 92.16
  L 56.58 88.70
  Q 57.72 90.88 56.49 92.26
  Q 54.79 94.15 53.53 96.11
  Q 53.24 96.56 53.34 97.08
  Q 55.17 107.49 60.57 117.52
  C 63.47 122.91 68.00 125.48 73.95 126.24
  L 82.82 127.37
  Q 83.37 127.43 83.70 127.00
  C 85.83 124.30 89.92 124.50 92.99 124.97
  Q 94.20 125.15 93.12 124.59
  C 86.81 121.33 80.98 114.23 76.81 108.38
  Q 74.63 105.32 74.21 101.54
  Q 74.10 100.52 74.69 101.36
  C 82.02 111.79 89.36 120.69 101.58 124.60
  Q 109.14 127.02 117.65 124.33
  C 124.45 122.18 132.16 118.55 136.06 113.25
  C 143.33 103.36 148.07 93.20 149.98 81.84
  Q 151.01 75.70 151.19 73.45
  Q 152.07 62.66 151.34 53.18
  Q 150.78 45.94 149.66 42.35
  C 147.80 36.33 139.60 30.57 133.25 34.75
  Q 132.91 34.97 132.67 34.63
  Q 132.59 34.51 132.51 34.33
  C 132.99 30.54 135.95 28.20 139.76 28.53
  Q 140.98 28.64 142.13 28.81
  Q 142.93 28.94 142.43 28.31
  L 138.85 23.77
  Q 134.35 17.34 128.79 13.94
  Q 121.97 9.94 114.73 7.96
  C 106.47 5.70 96.85 4.62 89.22 8.08
  Q 76.76 13.74 67.72 22.81
  Q 64.75 25.79 63.01 29.53
  A 1.29 1.27 49.1 0 0 62.95 30.48
  Q 64.59 35.39 63.95 42.06
  Z
  M 53.97 27.96
  Q 56.51 27.74 58.94 27.85
  C 60.49 27.93 61.77 27.24 62.63 26.12
  C 64.43 23.80 66.15 20.11 68.78 17.78
  Q 70.01 16.69 70.90 15.30
  L 75.86 12.37
  Q 76.32 12.11 76.35 11.59
  Q 76.40 10.94 75.70 10.63
  A 0.75 0.75 0.0 0 0 75.21 10.60
  Q 62.22 14.21 52.47 23.32
  Q 49.71 25.91 47.92 29.26
  Q 47.57 29.92 48.29 29.70
  L 53.97 27.96
  Z
  M 41.11 59.04
  C 42.75 59.07 44.28 58.43 45.63 58.42
  Q 56.64 58.32 58.65 69.01
  Q 58.75 69.55 59.28 69.37
  Q 60.17 69.04 60.43 68.15
  Q 60.80 66.89 60.43 65.68
  Q 58.16 58.48 58.97 53.14
  Q 60.21 44.96 60.72 37.76
  Q 60.79 36.78 60.25 34.28
  Q 60.15 33.05 59.68 31.96
  Q 59.48 31.50 58.98 31.54
  Q 49.81 32.36 43.37 38.74
  C 38.61 43.46 38.83 52.75 39.62 59.56
  Q 39.68 60.09 40.22 60.04
  Q 41.24 59.95 41.11 59.04
  Z
  M 6.16 132.81
  Q 9.17 164.10 31.26 186.95
  Q 31.80 187.50 31.71 186.73
  C 30.87 178.92 29.53 171.24 26.77 163.94
  C 24.06 156.77 21.22 149.93 19.53 142.74
  Q 18.41 137.99 22.37 135.78
  Q 27.51 132.92 32.35 129.81
  C 38.94 125.58 45.48 121.86 52.17 117.92
  C 55.42 116.00 53.72 112.58 52.16 110.29
  C 49.91 106.99 48.76 103.02 48.25 99.05
  A 0.92 0.92 0.0 0 0 47.53 98.26
  Q 40.06 96.62 35.92 90.31
  Q 30.94 82.72 31.06 70.91
  Q 31.50 67.14 33.70 63.38
  C 34.79 61.49 34.50 60.52 34.36 58.57
  Q 34.30 57.64 33.62 58.28
  Q 22.63 68.75 15.69 82.18
  Q 3.52 105.72 6.16 132.81
  Z
  M 148.28 101.48
  C 147.29 104.16 145.47 106.68 144.16 109.28
  Q 142.66 112.25 145.14 114.50
  Q 151.12 119.95 157.70 125.65
  C 163.31 130.50 161.51 134.53 159.42 141.51
  Q 153.86 160.02 148.13 175.95
  Q 147.70 177.15 148.82 176.55
  Q 157.26 172.00 165.14 171.00
  Q 165.65 170.93 165.95 170.51
  Q 166.84 169.27 167.59 167.91
  Q 177.06 150.71 178.60 132.30
  Q 181.62 96.11 159.55 67.56
  Q 157.73 65.21 155.69 63.13
  Q 155.25 62.68 155.24 63.31
  Q 154.99 83.22 148.28 101.48
  Z
  M 140.62 126.65
  Q 141.82 131.46 142.14 134.00
  Q 143.01 140.70 140.72 147.29
  Q 140.55 147.79 140.86 148.23
  L 143.64 152.17
  A 0.57 0.54 43.6 0 1 143.67 152.77
  L 127.93 179.18
  Q 127.51 179.89 128.31 179.67
  Q 132.49 178.48 137.42 178.57
  Q 139.84 178.62 141.78 177.60
  Q 143.14 176.89 144.30 174.21
  Q 151.94 156.53 155.94 137.92
  Q 157.01 133.47 154.21 131.05
  Q 146.92 124.75 139.92 117.76
  A 0.50 0.50 0.0 0 0 139.23 117.75
  L 134.11 122.58
  Q 133.76 122.91 134.23 122.79
  L 134.68 122.68
  Q 135.13 122.56 135.57 122.71
  Q 138.89 123.80 140.62 126.65
  Z
  M 40.78 209.55
  C 50.93 215.01 60.53 220.23 71.01 220.77
  Q 71.66 220.81 71.58 220.17
  L 68.07 192.28
  L 67.79 189.46
  A 2.10 2.10 0.0 0 0 65.68 187.56
  L 55.77 187.68
  C 55.68 185.22 58.52 185.00 60.26 184.41
  A 1.43 1.43 0.0 0 0 60.88 182.11
  Q 59.58 180.62 59.27 178.97
  A 0.58 0.58 0.0 0 1 60.12 178.36
  L 65.52 181.41
  Q 66.03 181.70 66.19 181.14
  Q 67.71 176.08 67.13 171.43
  C 66.68 167.84 65.54 160.52 67.77 157.95
  Q 68.17 157.50 68.62 157.90
  Q 69.25 158.46 69.50 159.47
  L 69.13 180.77
  Q 69.09 183.08 71.39 182.84
  L 73.44 182.63
  Q 92.54 180.15 110.95 179.65
  Q 112.29 179.62 111.05 179.09
  Q 102.99 175.62 94.29 171.17
  C 87.96 167.94 91.44 164.83 93.84 160.77
  Q 94.30 160.00 93.46 160.34
  C 88.86 162.21 86.85 159.19 85.65 155.42
  Q 83.44 148.54 81.94 141.15
  Q 81.75 140.22 80.88 139.86
  Q 71.42 135.87 62.89 129.63
  L 56.87 122.82
  A 0.71 0.70 57.8 0 0 56.06 122.63
  C 44.41 127.46 35.00 134.45 25.20 141.85
  A 0.63 0.62 -31.5 0 0 25.01 142.61
  Q 28.42 149.91 30.68 157.83
  Q 35.48 174.64 37.06 191.77
  Q 37.75 199.27 38.09 207.42
  A 1.33 1.30 19.5 0 0 38.56 208.38
  Q 39.47 209.15 40.78 209.55
  Z
  M 122.10 142.45
  Q 121.86 143.43 122.05 143.99
  Q 122.21 144.50 122.71 144.61
  Q 130.15 146.33 137.23 146.53
  Q 137.75 146.55 137.96 146.07
  C 139.81 141.89 138.92 135.73 137.85 131.75
  Q 136.63 126.18 131.86 128.06
  Q 128.42 129.42 121.27 134.26
  Q 120.86 134.54 121.01 135.02
  L 121.60 136.98
  Q 121.83 137.73 122.60 137.59
  Q 124.76 137.18 126.79 138.13
  Q 127.46 138.44 126.72 138.44
  Q 124.73 138.44 122.83 139.19
  Q 122.35 139.39 122.31 139.90
  L 122.10 142.45
  Z
  M 72.04 129.11
  C 71.19 128.95 70.52 128.45 69.69 128.24
  Q 69.16 128.11 69.02 128.64
  Q 68.71 129.85 69.71 130.59
  Q 74.83 134.36 80.83 135.27
  Q 81.19 135.33 81.25 134.97
  L 81.98 130.61
  Q 82.05 130.24 81.67 130.23
  Q 76.66 130.02 72.04 129.11
  Z
  M 105.83 129.98
  C 108.47 132.61 112.90 133.41 116.57 133.11
  A 1.72 1.68 23.4 0 0 117.48 132.76
  L 122.58 128.80
  Q 123.58 128.03 122.35 128.32
  Q 116.54 129.71 110.49 130.42
  Q 108.72 130.63 106.04 129.65
  Q 105.17 129.32 105.83 129.98
  Z
  M 87.44 151.36
  L 88.72 155.46
  A 1.88 1.88 0.0 0 0 90.86 156.74
  Q 95.76 155.81 99.57 153.75
  Q 103.46 151.65 109.90 146.16
  A 1.61 1.58 -20.6 0 0 110.46 144.95
  L 110.47 142.95
  Q 110.47 142.23 109.77 142.08
  L 103.21 140.70
  L 108.53 139.01
  Q 112.01 137.91 108.53 136.82
  C 107.67 136.55 106.89 136.41 106.10 135.91
  Q 99.21 131.54 89.76 129.32
  C 87.11 128.69 85.67 130.86 85.27 133.26
  Q 83.66 142.95 87.44 151.36
  Z
  M 112.92 141.45
  L 113.19 142.83
  Q 113.30 143.34 113.79 143.48
  Q 118.16 144.73 118.79 140.54
  Q 119.32 137.01 116.11 136.26
  Q 114.26 136.19 112.91 137.07
  A 0.83 0.83 0.0 0 0 112.54 137.86
  L 112.92 141.45
  Z
  M 124.84 172.81
  Q 126.96 162.64 126.67 153.14
  L 126.95 150.10
  Q 127.00 149.50 126.41 149.41
  Q 123.69 148.99 121.16 147.01
  A 3.75 3.74 48.9 0 0 116.95 146.72
  Q 115.25 147.72 113.20 147.57
  A 2.04 2.03 74.1 0 0 111.41 150.80
  C 112.98 152.96 114.56 155.21 115.70 157.65
  Q 120.00 166.88 123.71 175.10
  Q 124.27 176.36 124.49 175.00
  L 124.84 172.81
  Z
  M 126.75 175.79
  Q 134.05 165.35 140.28 154.15
  Q 140.57 153.62 140.21 153.14
  Q 136.30 147.94 130.29 149.79
  Q 129.71 149.97 129.67 150.57
  C 129.06 159.18 128.65 167.53 126.27 176.19
  Q 126.22 176.39 126.41 176.32
  Q 126.55 176.26 126.59 176.13
  Q 126.64 175.95 126.75 175.79
  Z
  M 104.45 170.55
  Q 111.72 174.12 119.60 176.69
  Q 120.13 176.87 119.92 176.35
  C 116.59 168.17 113.20 159.98 107.95 152.70
  Q 107.65 152.28 107.21 152.55
  C 101.67 155.96 97.07 159.52 95.14 165.18
  Q 94.95 165.73 95.46 166.00
  Q 100.20 168.47 104.45 170.55
  Z
  M 148.59 183.13
  Q 147.60 183.52 147.15 184.08
  Q 146.84 184.47 146.95 184.96
  Q 149.24 195.24 149.84 205.61
  Q 149.88 206.29 150.56 206.24
  Q 157.60 205.73 164.16 205.78
  Q 166.04 205.80 167.75 206.35
  Q 168.74 206.68 167.72 206.92
  L 158.53 209.06
  Q 157.30 209.34 158.48 209.78
  Q 160.21 210.41 162.11 210.39
  C 167.86 210.32 173.38 209.82 176.20 203.99
  Q 178.91 198.39 175.81 190.57
  Q 175.25 184.99 172.92 180.10
  C 171.73 177.59 168.16 174.85 165.06 175.92
  C 162.87 176.68 160.93 177.91 158.73 178.63
  Q 154.43 180.04 150.66 181.63
  Q 149.44 182.15 148.59 183.13
  Z
  M 139.83 203.92
  L 140.18 207.41
  Q 140.30 208.68 141.53 208.36
  L 145.43 207.35
  Q 146.55 207.05 146.48 205.90
  L 146.21 201.48
  Q 146.14 192.76 142.63 184.86
  Q 142.40 184.36 141.85 184.36
  L 137.82 184.33
  Q 137.16 184.33 137.25 184.98
  L 139.83 203.92
  Z
  M 105.28 250.45
  Q 115.16 250.58 124.65 248.01
  Q 125.11 247.88 125.05 247.41
  Q 123.76 238.29 123.23 223.94
  Q 122.66 208.49 120.77 186.28
  Q 120.73 185.81 120.27 185.74
  L 116.96 185.26
  Q 114.47 184.80 111.26 184.66
  Q 90.57 183.80 70.70 187.86
  Q 70.20 187.96 70.25 188.48
  Q 73.19 218.44 82.01 246.56
  Q 82.16 247.04 82.64 247.18
  Q 93.79 250.41 105.28 250.45
  Z
  M 124.41 193.37
  L 125.46 213.58
  Q 125.48 213.85 125.74 213.81
  L 134.47 212.32
  A 0.22 0.22 0.0 0 0 134.65 212.08
  L 132.75 190.91
  L 131.91 186.25
  Q 131.68 184.95 130.36 185.09
  L 125.12 185.66
  Q 124.11 185.77 124.15 186.79
  L 124.41 193.37
  Z
  M 133.26 236.96
  A 1.27 1.25 -8.8 0 0 134.25 235.62
  C 134.06 233.57 134.13 231.55 133.73 229.52
  Q 132.67 224.15 131.78 218.82
  A 1.18 1.17 79.7 0 0 130.40 217.86
  L 127.02 218.54
  Q 125.78 218.79 125.85 220.06
  L 126.80 237.57
  Q 126.84 238.36 127.61 238.19
  L 133.26 236.96
  Z"
/>
<path fill="#f7e4cd" d="
  M 128.79 13.94
  Q 115.75 11.14 103.21 12.82
  C 94.17 14.03 86.13 16.32 79.28 21.80
  Q 69.85 29.35 63.95 42.06
  Q 64.59 35.39 62.95 30.48
  A 1.29 1.27 49.1 0 1 63.01 29.53
  Q 64.75 25.79 67.72 22.81
  Q 76.76 13.74 89.22 8.08
  C 96.85 4.62 106.47 5.70 114.73 7.96
  Q 121.97 9.94 128.79 13.94
  Z"
/>
<path fill="#dcd9d8" d="
  M 70.90 15.30
  Q 60.39 19.26 53.97 27.96
  L 48.29 29.70
  Q 47.57 29.92 47.92 29.26
  Q 49.71 25.91 52.47 23.32
  Q 62.22 14.21 75.21 10.60
  A 0.75 0.75 0.0 0 1 75.70 10.63
  Q 76.40 10.94 76.35 11.59
  Q 76.32 12.11 75.86 12.37
  L 70.90 15.30
  Z"
/>
<path fill="#f0d6b7" d="
  M 128.79 13.94
  Q 134.35 17.34 138.85 23.77
  C 133.75 24.74 129.42 28.88 131.21 34.21
  Q 131.38 34.72 131.91 34.64
  Q 132.26 34.59 132.51 34.33
  Q 132.59 34.51 132.67 34.63
  Q 132.91 34.97 133.25 34.75
  C 139.60 30.57 147.80 36.33 149.66 42.35
  Q 150.78 45.94 151.34 53.18
  Q 152.07 62.66 151.19 73.45
  Q 151.01 75.70 149.98 81.84
  C 148.07 93.20 143.33 103.36 136.06 113.25
  C 132.16 118.55 124.45 122.18 117.65 124.33
  Q 109.14 127.02 101.58 124.60
  C 89.36 120.69 82.02 111.79 74.69 101.36
  Q 74.10 100.52 74.21 101.54
  Q 74.63 105.32 76.81 108.38
  C 80.98 114.23 86.81 121.33 93.12 124.59
  Q 94.20 125.15 92.99 124.97
  C 89.92 124.50 85.83 124.30 83.70 127.00
  Q 83.37 127.43 82.82 127.37
  L 73.95 126.24
  Q 64.44 116.79 61.39 104.51
  Q 59.62 97.34 59.04 91.77
  Q 58.79 89.34 56.58 88.70
  L 49.81 92.16
  A 1.65 1.61 -55.7 0 1 48.97 92.33
  Q 42.69 91.87 39.74 86.71
  Q 38.95 79.92 40.88 73.74
  Q 41.08 73.08 40.75 72.79
  Q 42.26 70.80 43.82 71.25
  Q 44.35 71.41 44.17 71.92
  Q 42.27 77.52 44.50 82.27
  Q 45.50 84.39 45.47 82.05
  C 45.43 79.19 45.15 75.86 46.72 73.41
  Q 47.03 72.94 47.59 72.90
  C 50.18 72.74 51.48 76.92 52.70 78.78
  Q 53.12 79.43 53.26 78.67
  Q 54.07 74.30 51.31 70.42
  Q 52.62 70.13 54.61 70.65
  L 55.43 73.40
  Q 55.57 73.89 56.08 73.89
  Q 59.25 73.91 61.80 73.16
  Q 63.89 72.54 63.63 70.37
  C 63.07 65.61 61.03 60.43 61.24 56.50
  Q 61.54 51.09 63.95 42.06
  Q 69.85 29.35 79.28 21.80
  C 86.13 16.32 94.17 14.03 103.21 12.82
  Q 115.75 11.14 128.79 13.94
  Z
  M 79.21 43.13
  Q 79.24 44.51 79.89 45.48
  A 0.84 0.84 0.0 0 0 81.35 45.36
  C 84.25 38.94 89.17 34.42 96.86 35.86
  A 1.02 1.02 0.0 0 0 98.06 34.99
  Q 98.40 32.36 94.63 30.42
  Q 93.75 26.54 87.95 28.47
  Q 80.80 30.85 78.43 38.35
  Q 77.18 42.31 79.21 43.13
  Z
  M 142.93 48.94
  Q 137.74 50.41 137.22 55.28
  Q 136.99 57.39 139.10 57.15
  Q 141.96 56.83 144.58 55.48
  Q 148.06 59.48 138.32 59.21
  A 1.52 1.52 0.0 0 0 136.77 60.86
  Q 137.08 64.27 141.54 63.95
  Q 145.79 63.66 149.14 60.61
  A 1.42 1.41 -34.7 0 0 149.45 58.92
  L 143.51 47.22
  Q 143.02 46.25 142.98 47.33
  L 142.93 48.94
  Z
  M 102.19 49.04
  Q 98.97 49.49 96.57 51.31
  C 93.48 53.65 93.93 57.40 97.98 58.37
  Q 102.16 59.38 104.99 57.13
  L 106.55 60.10
  Q 106.80 60.58 106.35 60.90
  C 103.95 62.59 99.43 61.67 96.67 61.10
  Q 94.99 60.76 94.88 62.47
  Q 94.77 64.11 96.44 65.37
  A 2.75 2.75 0.0 0 0 97.32 65.81
  Q 103.01 67.40 106.97 65.99
  C 110.27 64.81 112.10 60.86 109.10 58.21
  C 105.98 55.47 104.36 51.49 102.85 47.71
  Q 102.56 47.00 102.29 47.71
  Q 102.10 48.19 102.19 49.04
  Z
  M 115.98 84.50
  L 120.89 81.02
  A 1.02 1.02 0.0 0 0 121.26 79.87
  Q 120.40 77.42 118.36 77.25
  A 1.46 1.44 12.1 0 0 116.86 78.21
  L 115.28 82.67
  Q 112.35 87.17 115.89 91.34
  Q 116.22 91.72 116.73 91.76
  C 125.80 92.38 133.13 89.19 140.77 84.18
  Q 141.18 83.91 141.29 83.43
  C 141.85 81.12 143.69 77.56 141.73 75.60
  Q 133.28 67.17 127.41 58.14
  Q 125.41 55.06 124.22 51.23
  Q 123.93 50.27 122.96 50.53
  Q 122.49 50.65 122.48 51.15
  C 122.46 60.77 130.78 69.75 136.66 76.72
  C 138.25 78.60 138.30 82.28 135.90 83.49
  Q 129.53 86.70 124.27 88.25
  C 122.54 88.76 118.61 88.92 117.27 87.54
  Q 116.13 86.36 115.98 84.50
  Z
  M 144.71 88.66
  C 139.33 91.27 135.27 93.92 129.33 94.85
  Q 128.75 94.94 128.75 95.54
  L 128.77 100.41
  Q 128.78 100.87 129.24 100.86
  C 136.40 100.72 141.90 95.28 145.02 88.98
  Q 145.33 88.36 144.71 88.66
  Z
  M 102.59 92.30
  A 0.28 0.28 0.0 0 0 102.22 92.67
  C 105.60 100.36 119.45 101.52 126.41 101.20
  Q 126.65 101.19 126.63 100.95
  L 126.21 95.53
  Q 126.19 95.22 125.87 95.22
  C 118.20 95.25 109.68 95.45 102.59 92.30
  Z
  M 95.26 101.36
  C 95.93 98.89 95.62 96.80 98.13 95.22
  A 0.41 0.41 0.0 0 0 98.07 94.49
  Q 95.46 93.46 93.02 94.55
  A 0.98 0.98 0.0 0 0 92.44 95.41
  Q 92.34 99.06 93.54 101.52
  Q 94.61 103.71 95.26 101.36
  Z
  M 112.91 106.01
  C 108.12 105.43 103.48 103.18 101.27 98.76
  Q 100.71 97.64 99.54 98.07
  L 99.04 98.25
  Q 97.92 98.66 98.73 99.53
  C 103.75 104.96 105.18 110.62 114.03 111.31
  C 118.69 111.67 127.90 111.60 129.84 107.12
  Q 130.15 106.38 129.36 106.44
  Q 121.29 107.02 112.91 106.01
  Z"
/>
<path fill="#6d6b6d" d="
  M 70.90 15.30
  Q 70.01 16.69 68.78 17.78
  C 66.15 20.11 64.43 23.80 62.63 26.12
  C 61.77 27.24 60.49 27.93 58.94 27.85
  Q 56.51 27.74 53.97 27.96
  Q 60.39 19.26 70.90 15.30
  Z"
/>
<path fill="#f7e4cd" d="
  M 138.85 23.77
  L 142.43 28.31
  Q 142.93 28.94 142.13 28.81
  Q 140.98 28.64 139.76 28.53
  C 135.95 28.20 132.99 30.54 132.51 34.33
  Q 132.26 34.59 131.91 34.64
  Q 131.38 34.72 131.21 34.21
  C 129.42 28.88 133.75 24.74 138.85 23.77
  Z"
/>
<path fill="#f7e4cd" d="
  M 94.63 30.42
  Q 82.91 30.95 79.21 43.13
  Q 77.18 42.31 78.43 38.35
  Q 80.80 30.85 87.95 28.47
  Q 93.75 26.54 94.63 30.42
  Z"
/>
<path fill="#231f20" d="
  M 94.63 30.42
  Q 98.40 32.36 98.06 34.99
  A 1.02 1.02 0.0 0 1 96.86 35.86
  C 89.17 34.42 84.25 38.94 81.35 45.36
  A 0.84 0.84 0.0 0 1 79.89 45.48
  Q 79.24 44.51 79.21 43.13
  Q 82.91 30.95 94.63 30.42
  Z"
/>
<path fill="#dcd9d8" d="
  M 60.25 34.28
  Q 51.14 35.36 46.07 40.32
  Q 38.73 47.50 41.11 59.04
  Q 41.24 59.95 40.22 60.04
  Q 39.68 60.09 39.62 59.56
  C 38.83 52.75 38.61 43.46 43.37 38.74
  Q 49.81 32.36 58.98 31.54
  Q 59.48 31.50 59.68 31.96
  Q 60.15 33.05 60.25 34.28
  Z"
/>
<path fill="#6d6b6d" d="
  M 60.25 34.28
  Q 60.79 36.78 60.72 37.76
  Q 60.21 44.96 58.97 53.14
  Q 58.16 58.48 60.43 65.68
  Q 60.80 66.89 60.43 68.15
  Q 60.17 69.04 59.28 69.37
  Q 58.75 69.55 58.65 69.01
  Q 56.64 58.32 45.63 58.42
  C 44.28 58.43 42.75 59.07 41.11 59.04
  Q 38.73 47.50 46.07 40.32
  Q 51.14 35.36 60.25 34.28
  Z"
/>
<path fill="#231f20" d="
  M 144.58 55.48
  L 142.93 48.94
  L 142.98 47.33
  Q 143.02 46.25 143.51 47.22
  L 149.45 58.92
  A 1.42 1.41 -34.7 0 1 149.14 60.61
  Q 145.79 63.66 141.54 63.95
  Q 137.08 64.27 136.77 60.86
  A 1.52 1.52 0.0 0 1 138.32 59.21
  Q 148.06 59.48 144.58 55.48
  Z"
/>
<path fill="#231f20" d="
  M 104.99 57.13
  Q 102.52 53.05 102.19 49.04
  Q 102.10 48.19 102.29 47.71
  Q 102.56 47.00 102.85 47.71
  C 104.36 51.49 105.98 55.47 109.10 58.21
  C 112.10 60.86 110.27 64.81 106.97 65.99
  Q 103.01 67.40 97.32 65.81
  A 2.75 2.75 0.0 0 1 96.44 65.37
  Q 94.77 64.11 94.88 62.47
  Q 94.99 60.76 96.67 61.10
  C 99.43 61.67 103.95 62.59 106.35 60.90
  Q 106.80 60.58 106.55 60.10
  L 104.99 57.13
  Z"
/>
<path fill="#f7e4cd" d="
  M 102.19 49.04
  Q 102.52 53.05 104.99 57.13
  Q 102.16 59.38 97.98 58.37
  C 93.93 57.40 93.48 53.65 96.57 51.31
  Q 98.97 49.49 102.19 49.04
  Z"
/>
<path fill="#f7e4cd" d="
  M 142.93 48.94
  L 144.58 55.48
  Q 141.96 56.83 139.10 57.15
  Q 136.99 57.39 137.22 55.28
  Q 137.74 50.41 142.93 48.94
  Z"
/>
<path fill="#231f20" d="
  M 115.28 82.67
  L 115.98 84.50
  Q 116.13 86.36 117.27 87.54
  C 118.61 88.92 122.54 88.76 124.27 88.25
  Q 129.53 86.70 135.90 83.49
  C 138.30 82.28 138.25 78.60 136.66 76.72
  C 130.78 69.75 122.46 60.77 122.48 51.15
  Q 122.49 50.65 122.96 50.53
  Q 123.93 50.27 124.22 51.23
  Q 125.41 55.06 127.41 58.14
  Q 133.28 67.17 141.73 75.60
  C 143.69 77.56 141.85 81.12 141.29 83.43
  Q 141.18 83.91 140.77 84.18
  C 133.13 89.19 125.80 92.38 116.73 91.76
  Q 116.22 91.72 115.89 91.34
  Q 112.35 87.17 115.28 82.67
  Z"
/>
<path fill="#ef3d3a" d="
  M 31.06 70.91
  Q 15.92 87.51 10.74 109.01
  Q 8.00 120.38 6.16 132.81
  Q 3.52 105.72 15.69 82.18
  Q 22.63 68.75 33.62 58.28
  Q 34.30 57.64 34.36 58.57
  C 34.50 60.52 34.79 61.49 33.70 63.38
  Q 31.50 67.14 31.06 70.91
  Z"
/>
<path fill="#d33833" d="
  M 148.28 101.48
  Q 154.99 83.22 155.24 63.31
  Q 155.25 62.68 155.69 63.13
  Q 157.73 65.21 159.55 67.56
  Q 181.62 96.11 178.60 132.30
  Q 177.06 150.71 167.59 167.91
  Q 166.84 169.27 165.95 170.51
  Q 165.65 170.93 165.14 171.00
  Q 157.26 172.00 148.82 176.55
  Q 147.70 177.15 148.13 175.95
  Q 153.86 160.02 159.42 141.51
  C 161.51 134.53 163.31 130.50 157.70 125.65
  Q 151.12 119.95 145.14 114.50
  Q 142.66 112.25 144.16 109.28
  C 145.47 106.68 147.29 104.16 148.28 101.48
  Z"
/>
<path fill="#f7e4cd" d="
  M 54.61 70.65
  Q 52.62 70.13 51.31 70.42
  Q 43.45 63.83 40.56 72.41
  Q 40.51 72.55 40.57 72.62
  Q 40.63 72.70 40.75 72.79
  Q 41.08 73.08 40.88 73.74
  Q 38.95 79.92 39.74 86.71
  Q 37.06 82.45 36.38 79.85
  Q 34.06 71.03 39.83 66.04
  Q 43.63 62.75 47.83 63.35
  Q 52.91 64.06 54.61 70.65
  Z"
/>
<path fill="#231f20" d="
  M 51.31 70.42
  Q 54.07 74.30 53.26 78.67
  Q 53.12 79.43 52.70 78.78
  C 51.48 76.92 50.18 72.74 47.59 72.90
  Q 47.03 72.94 46.72 73.41
  C 45.15 75.86 45.43 79.19 45.47 82.05
  Q 45.50 84.39 44.50 82.27
  Q 42.27 77.52 44.17 71.92
  Q 44.35 71.41 43.82 71.25
  Q 42.26 70.80 40.75 72.79
  Q 40.63 72.70 40.57 72.62
  Q 40.51 72.55 40.56 72.41
  Q 43.45 63.83 51.31 70.42
  Z"
/>
<path fill="#d33833" d="
  M 31.06 70.91
  Q 30.94 82.72 35.92 90.31
  Q 40.06 96.62 47.53 98.26
  A 0.92 0.92 0.0 0 1 48.25 99.05
  C 48.76 103.02 49.91 106.99 52.16 110.29
  C 53.72 112.58 55.42 116.00 52.17 117.92
  C 45.48 121.86 38.94 125.58 32.35 129.81
  Q 27.51 132.92 22.37 135.78
  Q 18.41 137.99 19.53 142.74
  C 21.22 149.93 24.06 156.77 26.77 163.94
  C 29.53 171.24 30.87 178.92 31.71 186.73
  Q 31.80 187.50 31.26 186.95
  Q 9.17 164.10 6.16 132.81
  Q 8.00 120.38 10.74 109.01
  Q 15.92 87.51 31.06 70.91
  Z"
/>
<path fill="#f7e4cd" d="
  M 115.98 84.50
  L 115.28 82.67
  L 116.86 78.21
  A 1.46 1.44 12.1 0 1 118.36 77.25
  Q 120.40 77.42 121.26 79.87
  A 1.02 1.02 0.0 0 1 120.89 81.02
  L 115.98 84.50
  Z"
/>
<path fill="#231f20" d="
  M 129.33 94.85
  C 135.27 93.92 139.33 91.27 144.71 88.66
  Q 145.33 88.36 145.02 88.98
  C 141.90 95.28 136.40 100.72 129.24 100.86
  Q 128.78 100.87 128.77 100.41
  L 128.75 95.54
  Q 128.75 94.94 129.33 94.85
  Z"
/>
<path fill="#f7e4cd" d="
  M 56.58 88.70
  Q 58.79 89.34 59.04 91.77
  Q 59.62 97.34 61.39 104.51
  Q 64.44 116.79 73.95 126.24
  C 68.00 125.48 63.47 122.91 60.57 117.52
  Q 55.17 107.49 53.34 97.08
  Q 53.24 96.56 53.53 96.11
  Q 54.79 94.15 56.49 92.26
  Q 57.72 90.88 56.58 88.70
  Z"
/>
<path fill="#231f20" d="
  M 102.59 92.30
  C 109.68 95.45 118.20 95.25 125.87 95.22
  Q 126.19 95.22 126.21 95.53
  L 126.63 100.95
  Q 126.65 101.19 126.41 101.20
  C 119.45 101.52 105.60 100.36 102.22 92.67
  A 0.28 0.28 0.0 0 1 102.59 92.30
  Z"
/>
<path fill="#f7e4cd" d="
  M 98.13 95.22
  C 95.62 96.80 95.93 98.89 95.26 101.36
  Q 94.61 103.71 93.54 101.52
  Q 92.34 99.06 92.44 95.41
  A 0.98 0.98 0.0 0 1 93.02 94.55
  Q 95.46 93.46 98.07 94.49
  A 0.41 0.41 0.0 0 1 98.13 95.22
  Z"
/>
<path fill="#231f20" d="
  M 101.27 98.76
  C 103.48 103.18 108.12 105.43 112.91 106.01
  Q 121.29 107.02 129.36 106.44
  Q 130.15 106.38 129.84 107.12
  C 127.90 111.60 118.69 111.67 114.03 111.31
  C 105.18 110.62 103.75 104.96 98.73 99.53
  Q 97.92 98.66 99.04 98.25
  L 99.54 98.07
  Q 100.71 97.64 101.27 98.76
  Z"
/>
<path fill="#49728b" d="
  M 155.94 137.92
  L 140.62 126.65
  Q 138.89 123.80 135.57 122.71
  Q 135.13 122.56 134.68 122.68
  L 134.23 122.79
  Q 133.76 122.91 134.11 122.58
  L 139.23 117.75
  A 0.50 0.50 0.0 0 1 139.92 117.76
  Q 146.92 124.75 154.21 131.05
  Q 157.01 133.47 155.94 137.92
  Z"
/>
<path fill="#49728b" d="
  M 62.89 129.63
  L 33.83 142.55
  Q 33.49 142.70 33.57 143.06
  Q 36.82 157.42 39.32 171.92
  Q 42.07 187.82 41.70 203.25
  Q 41.64 205.56 40.78 209.55
  Q 39.47 209.15 38.56 208.38
  A 1.33 1.30 19.5 0 1 38.09 207.42
  Q 37.75 199.27 37.06 191.77
  Q 35.48 174.64 30.68 157.83
  Q 28.42 149.91 25.01 142.61
  A 0.63 0.62 -31.5 0 1 25.20 141.85
  C 35.00 134.45 44.41 127.46 56.06 122.63
  A 0.71 0.70 57.8 0 1 56.87 122.82
  L 62.89 129.63
  Z"
/>
<path fill="#335061" d="
  M 140.62 126.65
  L 155.94 137.92
  Q 151.94 156.53 144.30 174.21
  Q 143.14 176.89 141.78 177.60
  Q 139.84 178.62 137.42 178.57
  Q 132.49 178.48 128.31 179.67
  Q 127.51 179.89 127.93 179.18
  L 143.67 152.77
  A 0.57 0.54 43.6 0 0 143.64 152.17
  L 140.86 148.23
  Q 140.55 147.79 140.72 147.29
  Q 143.01 140.70 142.14 134.00
  Q 141.82 131.46 140.62 126.65
  Z"
/>
<path fill="#ef3d3a" d="
  M 137.85 131.75
  C 134.94 131.71 127.60 131.49 128.58 136.45
  Q 129.42 140.71 124.85 141.15
  Q 124.28 141.20 123.92 141.64
  Q 123.18 142.54 122.10 142.45
  L 122.31 139.90
  Q 122.35 139.39 122.83 139.19
  Q 124.73 138.44 126.72 138.44
  Q 127.46 138.44 126.79 138.13
  Q 124.76 137.18 122.60 137.59
  Q 121.83 137.73 121.60 136.98
  L 121.01 135.02
  Q 120.86 134.54 121.27 134.26
  Q 128.42 129.42 131.86 128.06
  Q 136.63 126.18 137.85 131.75
  Z"
/>
<path fill="#ffffff" d="
  M 72.04 129.11
  Q 76.66 130.02 81.67 130.23
  Q 82.05 130.24 81.98 130.61
  L 81.25 134.97
  Q 81.19 135.33 80.83 135.27
  Q 74.83 134.36 69.71 130.59
  Q 68.71 129.85 69.02 128.64
  Q 69.16 128.11 69.69 128.24
  C 70.52 128.45 71.19 128.95 72.04 129.11
  Z"
/>
<path fill="#f0d6b7" d="
  M 116.57 133.11
  C 112.90 133.41 108.47 132.61 105.83 129.98
  Q 105.17 129.32 106.04 129.65
  Q 108.72 130.63 110.49 130.42
  Q 116.54 129.71 122.35 128.32
  Q 123.58 128.03 122.58 128.80
  L 117.48 132.76
  A 1.72 1.68 23.4 0 1 116.57 133.11
  Z"
/>
<path fill="#ef3d3a" d="
  M 103.21 140.70
  Q 103.84 136.76 102.14 136.10
  Q 95.89 133.68 89.27 134.77
  A 2.16 2.16 0.0 0 0 87.48 136.57
  Q 87.16 138.69 87.49 140.97
  Q 88.25 146.10 87.44 151.36
  Q 83.66 142.95 85.27 133.26
  C 85.67 130.86 87.11 128.69 89.76 129.32
  Q 99.21 131.54 106.10 135.91
  C 106.89 136.41 107.67 136.55 108.53 136.82
  Q 112.01 137.91 108.53 139.01
  L 103.21 140.70
  Z"
/>
<path fill="#335061" d="
  M 62.89 129.63
  Q 71.42 135.87 80.88 139.86
  Q 81.75 140.22 81.94 141.15
  Q 83.44 148.54 85.65 155.42
  C 86.85 159.19 88.86 162.21 93.46 160.34
  Q 94.30 160.00 93.84 160.77
  C 91.44 164.83 87.96 167.94 94.29 171.17
  Q 102.99 175.62 111.05 179.09
  Q 112.29 179.62 110.95 179.65
  Q 92.54 180.15 73.44 182.63
  Q 73.34 173.91 73.43 165.40
  Q 73.46 163.27 72.43 161.94
  Q 71.16 160.29 69.50 159.47
  Q 69.25 158.46 68.62 157.90
  Q 68.17 157.50 67.77 157.95
  C 65.54 160.52 66.68 167.84 67.13 171.43
  Q 67.71 176.08 66.19 181.14
  Q 66.03 181.70 65.52 181.41
  L 60.12 178.36
  A 0.58 0.58 0.0 0 0 59.27 178.97
  Q 59.58 180.62 60.88 182.11
  A 1.43 1.43 0.0 0 1 60.26 184.41
  C 58.52 185.00 55.68 185.22 55.77 187.68
  Q 55.40 187.19 54.56 187.47
  Q 54.05 187.64 54.44 188.00
  Q 57.07 190.47 58.41 190.66
  Q 63.14 191.35 68.07 192.28
  L 71.58 220.17
  Q 71.66 220.81 71.01 220.77
  C 60.53 220.23 50.93 215.01 40.78 209.55
  Q 41.64 205.56 41.70 203.25
  Q 42.07 187.82 39.32 171.92
  Q 36.82 157.42 33.57 143.06
  Q 33.49 142.70 33.83 142.55
  L 62.89 129.63
  Z"
/>
<path fill="#d33833" d="
  M 137.85 131.75
  C 138.92 135.73 139.81 141.89 137.96 146.07
  Q 137.75 146.55 137.23 146.53
  Q 130.15 146.33 122.71 144.61
  Q 122.21 144.50 122.05 143.99
  Q 121.86 143.43 122.10 142.45
  Q 123.18 142.54 123.92 141.64
  Q 124.28 141.20 124.85 141.15
  Q 129.42 140.71 128.58 136.45
  C 127.60 131.49 134.94 131.71 137.85 131.75
  Z"
/>
<path fill="#d33833" d="
  M 103.21 140.70
  L 109.77 142.08
  Q 110.47 142.23 110.47 142.95
  L 110.46 144.95
  A 1.61 1.58 -20.6 0 1 109.90 146.16
  Q 103.46 151.65 99.57 153.75
  Q 95.76 155.81 90.86 156.74
  A 1.88 1.88 0.0 0 1 88.72 155.46
  L 87.44 151.36
  Q 88.25 146.10 87.49 140.97
  Q 87.16 138.69 87.48 136.57
  A 2.16 2.16 0.0 0 1 89.27 134.77
  Q 95.89 133.68 102.14 136.10
  Q 103.84 136.76 103.21 140.70
  Z"
/>
<path fill="#ef3d3a" d="
  M 116.11 136.26
  Q 116.05 139.95 112.92 141.45
  L 112.54 137.86
  A 0.83 0.83 0.0 0 1 112.91 137.07
  Q 114.26 136.19 116.11 136.26
  Z"
/>
<path fill="#d33833" d="
  M 116.11 136.26
  Q 119.32 137.01 118.79 140.54
  Q 118.16 144.73 113.79 143.48
  Q 113.30 143.34 113.19 142.83
  L 112.92 141.45
  Q 116.05 139.95 116.11 136.26
  Z"
/>
<path fill="#dcd9d8" d="
  M 126.67 153.14
  L 119.94 149.97
  Q 119.49 149.76 119.03 149.93
  Q 115.22 151.28 116.67 155.15
  Q 117.96 158.61 119.51 162.01
  Q 119.62 162.24 119.62 162.50
  Q 119.62 162.73 119.74 162.93
  Q 122.19 167.29 124.84 172.81
  L 124.49 175.00
  Q 124.27 176.36 123.71 175.10
  Q 120.00 166.88 115.70 157.65
  C 114.56 155.21 112.98 152.96 111.41 150.80
  A 2.04 2.03 74.1 0 1 113.20 147.57
  Q 115.25 147.72 116.95 146.72
  A 3.75 3.74 48.9 0 1 121.16 147.01
  Q 123.69 148.99 126.41 149.41
  Q 127.00 149.50 126.95 150.10
  L 126.67 153.14
  Z"
/>
<path fill="#81b0c4" d="
  M 126.59 176.13
  Q 126.55 176.26 126.41 176.32
  Q 126.22 176.39 126.27 176.19
  C 128.65 167.53 129.06 159.18 129.67 150.57
  Q 129.71 149.97 130.29 149.79
  Q 136.30 147.94 140.21 153.14
  Q 140.57 153.62 140.28 154.15
  Q 134.05 165.35 126.75 175.79
  Q 126.64 175.95 126.59 176.13
  Z"
/>
<path fill="#ffffff" d="
  M 126.67 153.14
  Q 126.96 162.64 124.84 172.81
  Q 122.19 167.29 119.74 162.93
  Q 119.62 162.73 119.62 162.50
  Q 119.62 162.24 119.51 162.01
  Q 117.96 158.61 116.67 155.15
  Q 115.22 151.28 119.03 149.93
  Q 119.49 149.76 119.94 149.97
  L 126.67 153.14
  Z
  M 122.38 153.51
  A 1.77 1.77 0.0 0 0 120.61 151.74
  A 1.77 1.77 0.0 0 0 118.84 153.51
  A 1.77 1.77 0.0 0 0 120.61 155.28
  A 1.77 1.77 0.0 0 0 122.38 153.51
  Z
  M 124.26 162.24
  A 1.76 1.76 0.0 0 0 122.50 160.48
  A 1.76 1.76 0.0 0 0 120.74 162.24
  A 1.76 1.76 0.0 0 0 122.50 164.00
  A 1.76 1.76 0.0 0 0 124.26 162.24
  Z"
/>
<circle fill="#231f20" cx="120.61" cy="153.51" r="1.77"/>
<path fill="#81b0c4" d="
  M 104.45 170.55
  Q 100.20 168.47 95.46 166.00
  Q 94.95 165.73 95.14 165.18
  C 97.07 159.52 101.67 155.96 107.21 152.55
  Q 107.65 152.28 107.95 152.70
  C 113.20 159.98 116.59 168.17 119.92 176.35
  Q 120.13 176.87 119.60 176.69
  Q 111.72 174.12 104.45 170.55
  Z"
/>
<path fill="#49728b" d="
  M 73.44 182.63
  L 71.39 182.84
  Q 69.09 183.08 69.13 180.77
  L 69.50 159.47
  Q 71.16 160.29 72.43 161.94
  Q 73.46 163.27 73.43 165.40
  Q 73.34 173.91 73.44 182.63
  Z"
/>
<circle fill="#231f20" cx="122.50" cy="162.24" r="1.76"/>
<path fill="#ffffff" d="
  M 175.81 190.57
  L 172.42 201.10
  Q 172.28 201.56 171.80 201.54
  L 152.07 200.51
  A 0.73 0.73 0.0 0 1 151.39 199.91
  L 148.59 183.13
  Q 149.44 182.15 150.66 181.63
  Q 154.43 180.04 158.73 178.63
  C 160.93 177.91 162.87 176.68 165.06 175.92
  C 168.16 174.85 171.73 177.59 172.92 180.10
  Q 175.25 184.99 175.81 190.57
  Z
  M 152.92 188.41
  C 157.16 188.31 160.96 184.35 165.14 183.09
  Q 165.63 182.95 165.13 182.82
  Q 164.62 182.69 164.22 182.98
  Q 157.45 182.97 152.66 187.81
  Q 152.04 188.43 152.92 188.41
  Z
  M 155.14 191.74
  L 167.65 191.42
  A 0.04 0.04 0.0 0 0 167.69 191.37
  L 167.69 191.33
  A 6.15 1.70 -1.5 0 0 161.50 189.80
  L 161.20 189.80
  A 6.15 1.70 -1.5 0 0 155.09 191.66
  L 155.09 191.70
  A 0.04 0.04 0.0 0 0 155.14 191.74
  Z
  M 155.14 197.63
  L 169.13 198.27
  A 0.12 0.12 0.0 0 0 169.25 198.15
  L 169.26 198.09
  A 6.98 1.34 2.6 0 0 162.34 196.44
  L 162.06 196.42
  A 6.98 1.34 2.6 0 0 155.03 197.45
  L 155.03 197.51
  A 0.12 0.12 0.0 0 0 155.14 197.63
  Z"
/>
<path fill="#231f20" d="
  M 165.14 183.09
  C 160.96 184.35 157.16 188.31 152.92 188.41
  Q 152.04 188.43 152.66 187.81
  Q 157.45 182.97 164.22 182.98
  Q 164.62 182.69 165.13 182.82
  Q 165.63 182.95 165.14 183.09
  Z"
/>
<path fill="#dcd9d8" d="
  M 148.59 183.13
  L 151.39 199.91
  A 0.73 0.73 0.0 0 0 152.07 200.51
  L 171.80 201.54
  Q 172.28 201.56 172.42 201.10
  L 175.81 190.57
  Q 178.91 198.39 176.20 203.99
  C 173.38 209.82 167.86 210.32 162.11 210.39
  Q 160.21 210.41 158.48 209.78
  Q 157.30 209.34 158.53 209.06
  L 167.72 206.92
  Q 168.74 206.68 167.75 206.35
  Q 166.04 205.80 164.16 205.78
  Q 157.60 205.73 150.56 206.24
  Q 149.88 206.29 149.84 205.61
  Q 149.24 195.24 146.95 184.96
  Q 146.84 184.47 147.15 184.08
  Q 147.60 183.52 148.59 183.13
  Z"
/>
<path fill="#ffffff" d="
  M 146.21 201.48
  L 139.83 203.92
  L 137.25 184.98
  Q 137.16 184.33 137.82 184.33
  L 141.85 184.36
  Q 142.40 184.36 142.63 184.86
  Q 146.14 192.76 146.21 201.48
  Z"
/>
<path fill="#ffffff" d="
  M 116.96 185.26
  Q 116.35 205.33 117.99 225.25
  Q 118.73 234.37 120.37 243.46
  Q 120.46 243.96 119.99 244.17
  L 105.28 250.45
  Q 93.79 250.41 82.64 247.18
  Q 82.16 247.04 82.01 246.56
  Q 73.19 218.44 70.25 188.48
  Q 70.20 187.96 70.70 187.86
  Q 90.57 183.80 111.26 184.66
  Q 114.47 184.80 116.96 185.26
  Z"
/>
<path fill="#dcd9d8" d="
  M 116.96 185.26
  L 120.27 185.74
  Q 120.73 185.81 120.77 186.28
  Q 122.66 208.49 123.23 223.94
  Q 123.76 238.29 125.05 247.41
  Q 125.11 247.88 124.65 248.01
  Q 115.16 250.58 105.28 250.45
  L 119.99 244.17
  Q 120.46 243.96 120.37 243.46
  Q 118.73 234.37 117.99 225.25
  Q 116.35 205.33 116.96 185.26
  Z"
/>
<path fill="#49728b" d="
  M 132.75 190.91
  Q 128.76 193.46 124.41 193.37
  L 124.15 186.79
  Q 124.11 185.77 125.12 185.66
  L 130.36 185.09
  Q 131.68 184.95 131.91 186.25
  L 132.75 190.91
  Z"
/>
<path fill="#49728b" d="
  M 55.77 187.68
  L 65.68 187.56
  A 2.10 2.10 0.0 0 1 67.79 189.46
  L 68.07 192.28
  Q 63.14 191.35 58.41 190.66
  Q 57.07 190.47 54.44 188.00
  Q 54.05 187.64 54.56 187.47
  Q 55.40 187.19 55.77 187.68
  Z"
/>
<path fill="#231f20" d="
  M 155.14 191.74
  A 0.04 0.04 0.0 0 1 155.09 191.70
  L 155.09 191.66
  A 6.15 1.70 -1.5 0 1 161.20 189.80
  L 161.50 189.80
  A 6.15 1.70 -1.5 0 1 167.69 191.33
  L 167.69 191.37
  A 0.04 0.04 0.0 0 1 167.65 191.42
  L 155.14 191.74
  Z"
/>
<path fill="#335061" d="
  M 132.75 190.91
  L 134.65 212.08
  A 0.22 0.22 0.0 0 1 134.47 212.32
  L 125.74 213.81
  Q 125.48 213.85 125.46 213.58
  L 124.41 193.37
  Q 128.76 193.46 132.75 190.91
  Z"
/>
<path fill="#231f20" d="
  M 155.14 197.63
  A 0.12 0.12 0.0 0 1 155.03 197.51
  L 155.03 197.45
  A 6.98 1.34 2.6 0 1 162.06 196.42
  L 162.34 196.44
  A 6.98 1.34 2.6 0 1 169.26 198.09
  L 169.25 198.15
  A 0.12 0.12 0.0 0 1 169.13 198.27
  L 155.14 197.63
  Z"
/>
<path fill="#dcd9d8" d="
  M 146.21 201.48
  L 146.48 205.90
  Q 146.55 207.05 145.43 207.35
  L 141.53 208.36
  Q 140.30 208.68 140.18 207.41
  L 139.83 203.92
  L 146.21 201.48
  Z"
/>
<path fill="#dcd9d8" d="
  M 133.26 236.96
  L 127.61 238.19
  Q 126.84 238.36 126.80 237.57
  L 125.85 220.06
  Q 125.78 218.79 127.02 218.54
  L 130.40 217.86
  A 1.18 1.17 79.7 0 1 131.78 218.82
  Q 132.67 224.15 133.73 229.52
  C 134.13 231.55 134.06 233.57 134.25 235.62
  A 1.27 1.25 -8.8 0 1 133.26 236.96
  Z"
/>
</svg>
