<?xml version="1.0" encoding="UTF-8" standalone="no"?>
<!DOCTYPE svg PUBLIC "-//W3C//DTD SVG 1.1//EN" "http://www.w3.org/Graphics/SVG/1.1/DTD/svg11.dtd">
<svg xmlns="http://www.w3.org/2000/svg" version="1.1" viewBox="0.00 0.00 187.00 187.00">
<g stroke-width="2.00" fill="none" stroke-linecap="butt">
<path stroke="#806b01" vector-effect="non-scaling-stroke" d="
  M 80.55 161.65
  C 93.11 160.19 99.99 151.35 100.00 139.00
  Q 100.04 110.51 100.04 84.05
  Q 100.04 83.75 99.74 83.75
  L 84.28 83.75
  Q 83.75 83.75 83.75 84.28
  Q 83.72 110.41 83.77 135.87
  C 83.78 139.13 82.93 143.72 79.34 144.81
  C 73.07 146.72 67.68 143.73 64.42 138.15
  A 0.68 0.68 0.0 0 0 63.48 137.91
  L 51.63 145.15
  A 0.57 0.57 0.0 0 0 51.43 145.90
  C 57.47 156.97 68.04 163.10 80.55 161.65"
/>
<path stroke="#806b01" vector-effect="non-scaling-stroke" d="
  M 133.12 97.62
  C 138.02 96.88 142.35 99.12 144.53 103.62
  Q 144.84 104.25 145.43 103.87
  L 156.71 96.67
  Q 157.22 96.34 156.92 95.81
  Q 152.20 87.36 143.31 84.88
  Q 134.24 82.35 126.20 85.06
  Q 111.09 90.15 111.87 106.70
  C 112.60 122.02 126.89 126.23 138.46 131.51
  C 141.33 132.82 144.42 134.83 145.07 138.14
  C 146.50 145.35 140.55 148.23 134.39 147.88
  C 128.02 147.52 123.74 142.99 120.89 137.68
  A 0.61 0.60 -30.6 0 0 120.02 137.46
  L 108.58 145.16
  A 0.49 0.49 0.0 0 0 108.41 145.79
  Q 116.20 160.62 132.74 161.73
  C 145.08 162.56 158.48 158.17 161.26 145.15
  C 164.04 132.17 157.34 122.39 145.51 117.42
  Q 136.09 113.46 131.48 111.06
  C 125.31 107.85 125.75 98.74 133.12 97.62"
/>
</g>
<path fill="#ffd600" d="
  M 181.26 180.96
  A 0.30 0.30 0.0 0 1 180.96 181.26
  L 6.06 181.26
  A 0.30 0.30 0.0 0 1 5.76 180.96
  L 5.76 6.06
  A 0.30 0.30 0.0 0 1 6.06 5.76
  L 180.96 5.76
  A 0.30 0.30 0.0 0 1 181.26 6.06
  L 181.26 180.96
  Z
  M 80.55 161.65
  C 93.11 160.19 99.99 151.35 100.00 139.00
  Q 100.04 110.51 100.04 84.05
  Q 100.04 83.75 99.74 83.75
  L 84.28 83.75
  Q 83.75 83.75 83.75 84.28
  Q 83.72 110.41 83.77 135.87
  C 83.78 139.13 82.93 143.72 79.34 144.81
  C 73.07 146.72 67.68 143.73 64.42 138.15
  A 0.68 0.68 0.0 0 0 63.48 137.91
  L 51.63 145.15
  A 0.57 0.57 0.0 0 0 51.43 145.90
  C 57.47 156.97 68.04 163.10 80.55 161.65
  Z
  M 133.12 97.62
  C 138.02 96.88 142.35 99.12 144.53 103.62
  Q 144.84 104.25 145.43 103.87
  L 156.71 96.67
  Q 157.22 96.34 156.92 95.81
  Q 152.20 87.36 143.31 84.88
  Q 134.24 82.35 126.20 85.06
  Q 111.09 90.15 111.87 106.70
  C 112.60 122.02 126.89 126.23 138.46 131.51
  C 141.33 132.82 144.42 134.83 145.07 138.14
  C 146.50 145.35 140.55 148.23 134.39 147.88
  C 128.02 147.52 123.74 142.99 120.89 137.68
  A 0.61 0.60 -30.6 0 0 120.02 137.46
  L 108.58 145.16
  A 0.49 0.49 0.0 0 0 108.41 145.79
  Q 116.20 160.62 132.74 161.73
  C 145.08 162.56 158.48 158.17 161.26 145.15
  C 164.04 132.17 157.34 122.39 145.51 117.42
  Q 136.09 113.46 131.48 111.06
  C 125.31 107.85 125.75 98.74 133.12 97.62
  Z"
/>
<path fill="#000001" d="
  M 100.00 139.00
  C 99.99 151.35 93.11 160.19 80.55 161.65
  C 68.04 163.10 57.47 156.97 51.43 145.90
  A 0.57 0.57 0.0 0 1 51.63 145.15
  L 63.48 137.91
  A 0.68 0.68 0.0 0 1 64.42 138.15
  C 67.68 143.73 73.07 146.72 79.34 144.81
  C 82.93 143.72 83.78 139.13 83.77 135.87
  Q 83.72 110.41 83.75 84.28
  Q 83.75 83.75 84.28 83.75
  L 99.74 83.75
  Q 100.04 83.75 100.04 84.05
  Q 100.04 110.51 100.00 139.00
  Z"
/>
<path fill="#000001" d="
  M 133.12 97.62
  C 125.75 98.74 125.31 107.85 131.48 111.06
  Q 136.09 113.46 145.51 117.42
  C 157.34 122.39 164.04 132.17 161.26 145.15
  C 158.48 158.17 145.08 162.56 132.74 161.73
  Q 116.20 160.62 108.41 145.79
  A 0.49 0.49 0.0 0 1 108.58 145.16
  L 120.02 137.46
  A 0.61 0.60 -30.6 0 1 120.89 137.68
  C 123.74 142.99 128.02 147.52 134.39 147.88
  C 140.55 148.23 146.50 145.35 145.07 138.14
  C 144.42 134.83 141.33 132.82 138.46 131.51
  C 126.89 126.23 112.60 122.02 111.87 106.70
  Q 111.09 90.15 126.20 85.06
  Q 134.24 82.35 143.31 84.88
  Q 152.20 87.36 156.92 95.81
  Q 157.22 96.34 156.71 96.67
  L 145.43 103.87
  Q 144.84 104.25 144.53 103.62
  C 142.35 99.12 138.02 96.88 133.12 97.62
  Z"
/>
</svg>
