<svg id="et2AbSyNQao1" xmlns="http://www.w3.org/2000/svg" xmlns:xlink="http://www.w3.org/1999/xlink" viewBox="0 0 32 32" height="30" width="30" shape-rendering="geometricPrecision" text-rendering="geometricPrecision"><g transform="matrix(.056239 0 0 0.056239 4.392589 4.000025)" opacity="0.71"><g><path d="M229.948,103.316c-5.832-13.268-19.063-29.615-49.624-16.18L153.393,98.975L127.73,40.598C112.274,5.439,73.904,2.839,54.426,21.427C40.324,34.886,33.911,56.34,43.187,77.441l91.016,208.341c-22.169-16.79-64.508-16.601-83.459,2.916l.494-.748c-20.129,20.73-16.758,50.112,13.786,75.783L228.021,492.019L461.529,389.367l1.27-20.347c3.306-52.939-6.108-105.899-27.454-154.456L417.67,174.357c-.916-2.084-1.919-4.12-3.004-6.104-12.326-22.537-39.916-31.826-63.473-21.583l-17.547,7.63-19.83-45.109c-8.679-19.743-31.814-28.723-51.494-19.901l-32.374,14.026Z" fill="#3c4ad7"/><path d="M444.501,210.539l-17.676-40.206c-1.028-2.34-2.168-4.656-3.385-6.878-7.161-13.093-18.911-22.95-33.088-27.756-14.133-4.792-29.455-4.151-43.146,1.801l-8.412,3.658-15.823-35.992c-5.29-12.033-14.965-21.264-27.242-25.992-12.219-4.706-25.509-4.363-37.435.963l-23.937,10.37c-4.167-6.298-9.306-11.049-15.351-14.177-11.874-6.145-26.241-5.589-42.706,1.65l-17.777,7.815-21.639-49.223c-8.288-18.853-23.643-31.785-42.127-35.48-17.351-3.467-35.005,1.43-47.234,13.101-18.429,17.587-23.724,43.993-13.5,67.251l80.667,184.65c-24.236-5.899-52.415-1.223-68.77,13.384-.664.417-1.288.919-1.857,1.504-10.81,11.134-16.141,24.582-15.416,38.889.911,18.004,11.266,35.818,29.943,51.516.082.069.165.137.249.203L221.837,499.877c1.795,1.412,3.979,2.142,6.186,2.142c1.362,0,2.732-.278,4.023-.846L465.554,398.521c3.425-1.505,5.723-4.797,5.956-8.531l1.271-20.347c3.39-54.289-6.388-109.307-28.28-159.104Zm-92.012,11.47c1.647,3.747,5.313,5.978,9.159,5.978c1.344,0,2.711-.272,4.02-.848c5.056-2.223,7.353-8.123,5.13-13.179l-23.956-54.492l8.339-3.627c19.022-8.271,40.822-.872,50.714,17.214.942,1.721,1.824,3.513,2.621,5.326l17.676,40.207c20.612,46.888,29.819,98.691,26.628,149.809l-.891,14.267-222.438,97.785L71.339,355.976c-14.24-12.003-22.096-24.836-22.718-37.116-.407-8.047,2.353-15.514,8.208-22.226.381-.293.745-.616,1.09-.971c14.6-15.038,50.97-16.116,69.865-2.182l40.575,38.97c1.938,1.862,4.434,2.788,6.926,2.788c2.627,0,5.25-1.029,7.213-3.073c3.826-3.983,3.698-10.313-.285-14.139l-39.644-38.076L52.342,73.416c-8.261-18.79-.772-35.438,8.989-44.755c7.402-7.066,18.705-10.114,29.506-7.957c12.177,2.434,22.027,10.928,27.738,23.917l68.24,155.229c1.646,3.747,5.313,5.978,9.159,5.978c1.344,0,2.711-.272,4.02-.848c5.056-2.223,7.353-8.123,5.13-13.179l-38.553-87.698l17.777-7.815c10.657-4.686,19.225-5.425,25.465-2.196c4.429,2.292,8.123,6.749,10.979,13.245c0,.001.001.002.001.002l40.244,91.546c1.647,3.747,5.313,5.978,9.159,5.978c1.344,0,2.711-.272,4.02-.848c5.056-2.223,7.353-8.123,5.13-13.179l-36.198-82.342l23.15-10.029c.038-.017.076-.034.115-.051c7.039-3.156,14.897-3.361,22.127-.577c7.267,2.799,12.992,8.26,16.121,15.377l47.828,108.795Z" fill="#3c4ad7"/></g></g><g transform="matrix(.056239 0 0 0.056239 3.392589 1.000025)" opacity="0.71"><g><path d="M229.948,103.316c-5.832-13.268-19.063-29.615-49.624-16.18L153.393,98.975L127.73,40.598C112.274,5.439,73.904,2.839,54.426,21.427C40.324,34.886,33.911,56.34,43.187,77.441l91.016,208.341c-22.169-16.79-64.508-16.601-83.459,2.916l.494-.748c-20.129,20.73-16.758,50.112,13.786,75.783L228.021,492.019L461.529,389.367l1.27-20.347c3.306-52.939-6.108-105.899-27.454-154.456L417.67,174.357c-.916-2.084-1.919-4.12-3.004-6.104-12.326-22.537-39.916-31.826-63.473-21.583l-17.547,7.63-19.83-45.109c-8.679-19.743-31.814-28.723-51.494-19.901l-32.374,14.026Z" fill="#e558fb"/><path d="M444.501,210.539l-17.676-40.206c-1.028-2.34-2.168-4.656-3.385-6.878-7.161-13.093-18.911-22.95-33.088-27.756-14.133-4.792-29.455-4.151-43.146,1.801l-8.412,3.658-15.823-35.992c-5.29-12.033-14.965-21.264-27.242-25.992-12.219-4.706-25.509-4.363-37.435.963l-23.937,10.37c-4.167-6.298-9.306-11.049-15.351-14.177-11.874-6.145-26.241-5.589-42.706,1.65l-17.777,7.815-21.639-49.223c-8.288-18.853-23.643-31.785-42.127-35.48-17.351-3.467-35.005,1.43-47.234,13.101-18.429,17.587-23.724,43.993-13.5,67.251l80.667,184.65c-24.236-5.899-52.415-1.223-68.77,13.384-.664.417-1.288.919-1.857,1.504-10.81,11.134-16.141,24.582-15.416,38.889.911,18.004,11.266,35.818,29.943,51.516.082.069.165.137.249.203L221.837,499.877c1.795,1.412,3.979,2.142,6.186,2.142c1.362,0,2.732-.278,4.023-.846L465.554,398.521c3.425-1.505,5.723-4.797,5.956-8.531l1.271-20.347c3.39-54.289-6.388-109.307-28.28-159.104Zm-92.012,11.47c1.647,3.747,5.313,5.978,9.159,5.978c1.344,0,2.711-.272,4.02-.848c5.056-2.223,7.353-8.123,5.13-13.179l-23.956-54.492l8.339-3.627c19.022-8.271,40.822-.872,50.714,17.214.942,1.721,1.824,3.513,2.621,5.326l17.676,40.207c20.612,46.888,29.819,98.691,26.628,149.809l-.891,14.267-222.438,97.785L71.339,355.976c-14.24-12.003-22.096-24.836-22.718-37.116-.407-8.047,2.353-15.514,8.208-22.226.381-.293.745-.616,1.09-.971c14.6-15.038,50.97-16.116,69.865-2.182l40.575,38.97c1.938,1.862,4.434,2.788,6.926,2.788c2.627,0,5.25-1.029,7.213-3.073c3.826-3.983,3.698-10.313-.285-14.139l-39.644-38.076L52.342,73.416c-8.261-18.79-.772-35.438,8.989-44.755c7.402-7.066,18.705-10.114,29.506-7.957c12.177,2.434,22.027,10.928,27.738,23.917l68.24,155.229c1.646,3.747,5.313,5.978,9.159,5.978c1.344,0,2.711-.272,4.02-.848c5.056-2.223,7.353-8.123,5.13-13.179l-38.553-87.698l17.777-7.815c10.657-4.686,19.225-5.425,25.465-2.196c4.429,2.292,8.123,6.749,10.979,13.245c0,.001.001.002.001.002l40.244,91.546c1.647,3.747,5.313,5.978,9.159,5.978c1.344,0,2.711-.272,4.02-.848c5.056-2.223,7.353-8.123,5.13-13.179l-36.198-82.342l23.15-10.029c.038-.017.076-.034.115-.051c7.039-3.156,14.897-3.361,22.127-.577c7.267,2.799,12.992,8.26,16.121,15.377l47.828,108.795Z" fill="#e558fb"/><g><path d="M239.019,461.021c-3.849,0-7.518-2.235-9.163-5.986-2.218-5.058.084-10.956,5.142-13.174l123.826-54.31c5.055-2.218,10.955.083,13.175,5.141c2.218,5.058-.084,10.956-5.142,13.174l-123.826,54.31c-1.306.573-2.67.845-4.012.845Z" fill="#e558fb"/></g></g></g><g transform="matrix(.056239 0 0 0.056239-1.607411 4.000025)" opacity="0.71"><g><path d="M229.948,103.316c-5.832-13.268-19.063-29.615-49.624-16.18L153.393,98.975L127.73,40.598C112.274,5.439,73.904,2.839,54.426,21.427C40.324,34.886,33.911,56.34,43.187,77.441l91.016,208.341c-22.169-16.79-64.508-16.601-83.459,2.916l.494-.748c-20.129,20.73-16.758,50.112,13.786,75.783L228.021,492.019L461.529,389.367l1.27-20.347c3.306-52.939-6.108-105.899-27.454-154.456L417.67,174.357c-.916-2.084-1.919-4.12-3.004-6.104-12.326-22.537-39.916-31.826-63.473-21.583l-17.547,7.63-19.83-45.109c-8.679-19.743-31.814-28.723-51.494-19.901l-32.374,14.026Z" fill="#44f6fb" stroke="#44f6fb"/><path d="M444.501,210.539l-17.676-40.206c-1.028-2.34-2.168-4.656-3.385-6.878-7.161-13.093-18.911-22.95-33.088-27.756-14.133-4.792-29.455-4.151-43.146,1.801l-8.412,3.658-15.823-35.992c-5.29-12.033-14.965-21.264-27.242-25.992-12.219-4.706-25.509-4.363-37.435.963l-23.937,10.37c-4.167-6.298-9.306-11.049-15.351-14.177-11.874-6.145-26.241-5.589-42.706,1.65l-17.777,7.815-21.639-49.223c-8.288-18.853-23.643-31.785-42.127-35.48-17.351-3.467-35.005,1.43-47.234,13.101-18.429,17.587-23.724,43.993-13.5,67.251l80.667,184.65c-24.236-5.899-52.415-1.223-68.77,13.384-.664.417-1.288.919-1.857,1.504-10.81,11.134-16.141,24.582-15.416,38.889.911,18.004,11.266,35.818,29.943,51.516.082.069.165.137.249.203L221.837,499.877c1.795,1.412,3.979,2.142,6.186,2.142c1.362,0,2.732-.278,4.023-.846L465.554,398.521c3.425-1.505,5.723-4.797,5.956-8.531l1.271-20.347c3.39-54.289-6.388-109.307-28.28-159.104Zm-92.012,11.47c1.647,3.747,5.313,5.978,9.159,5.978c1.344,0,2.711-.272,4.02-.848c5.056-2.223,7.353-8.123,5.13-13.179l-23.956-54.492l8.339-3.627c19.022-8.271,40.822-.872,50.714,17.214.942,1.721,1.824,3.513,2.621,5.326l17.676,40.207c20.612,46.888,29.819,98.691,26.628,149.809l-.891,14.267-222.438,97.785L71.339,355.976c-14.24-12.003-22.096-24.836-22.718-37.116-.407-8.047,2.353-15.514,8.208-22.226.381-.293.745-.616,1.09-.971c14.6-15.038,50.97-16.116,69.865-2.182l40.575,38.97c1.938,1.862,4.434,2.788,6.926,2.788c2.627,0,5.25-1.029,7.213-3.073c3.826-3.983,3.698-10.313-.285-14.139l-39.644-38.076L52.342,73.416c-8.261-18.79-.772-35.438,8.989-44.755c7.402-7.066,18.705-10.114,29.506-7.957c12.177,2.434,22.027,10.928,27.738,23.917l68.24,155.229c1.646,3.747,5.313,5.978,9.159,5.978c1.344,0,2.711-.272,4.02-.848c5.056-2.223,7.353-8.123,5.13-13.179l-38.553-87.698l17.777-7.815c10.657-4.686,19.225-5.425,25.465-2.196c4.429,2.292,8.123,6.749,10.979,13.245c0,.001.001.002.001.002l40.244,91.546c1.647,3.747,5.313,5.978,9.159,5.978c1.344,0,2.711-.272,4.02-.848c5.056-2.223,7.353-8.123,5.13-13.179l-36.198-82.342l23.15-10.029c.038-.017.076-.034.115-.051c7.039-3.156,14.897-3.361,22.127-.577c7.267,2.799,12.992,8.26,16.121,15.377l47.828,108.795Z" fill="#44f6fb"/></g></g><g transform="matrix(.056239 0 0 0.056239-1.607411 0.000025)"><g><path d="M229.948,103.316c-5.832-13.268-19.063-29.615-49.624-16.18L153.393,98.975L127.73,40.598C112.274,5.439,73.904,2.839,54.426,21.427C40.324,34.886,33.911,56.34,43.187,77.441l91.016,208.341c-22.169-16.79-64.508-16.601-83.459,2.916l.494-.748c-20.129,20.73-16.758,50.112,13.786,75.783L228.021,492.019L461.529,389.367l1.27-20.347c3.306-52.939-6.108-105.899-27.454-154.456L417.67,174.357c-.916-2.084-1.919-4.12-3.004-6.104-12.326-22.537-39.916-31.826-63.473-21.583l-17.547,7.63-19.83-45.109c-8.679-19.743-31.814-28.723-51.494-19.901l-32.374,14.026Z" fill="#fff"/><path d="M444.501,210.539l-17.676-40.206c-1.028-2.34-2.168-4.656-3.385-6.878-7.161-13.093-18.911-22.95-33.088-27.756-14.133-4.792-29.455-4.151-43.146,1.801l-8.412,3.658-15.823-35.992c-5.29-12.033-14.965-21.264-27.242-25.992-12.219-4.706-25.509-4.363-37.435.963l-23.937,10.37c-4.167-6.298-9.306-11.049-15.351-14.177-11.874-6.145-26.241-5.589-42.706,1.65l-17.777,7.815-21.639-49.223c-8.288-18.853-23.643-31.785-42.127-35.48-17.351-3.467-35.005,1.43-47.234,13.101-18.429,17.587-23.724,43.993-13.5,67.251l80.667,184.65c-24.236-5.899-52.415-1.223-68.77,13.384-.664.417-1.288.919-1.857,1.504-10.81,11.134-16.141,24.582-15.416,38.889.911,18.004,11.266,35.818,29.943,51.516.082.069.165.137.249.203L221.837,499.877c1.795,1.412,3.979,2.142,6.186,2.142c1.362,0,2.732-.278,4.023-.846L465.554,398.521c3.425-1.505,5.723-4.797,5.956-8.531l1.271-20.347c3.39-54.289-6.388-109.307-28.28-159.104Zm-92.012,11.47c1.647,3.747,5.313,5.978,9.159,5.978c1.344,0,2.711-.272,4.02-.848c5.056-2.223,7.353-8.123,5.13-13.179l-23.956-54.492l8.339-3.627c19.022-8.271,40.822-.872,50.714,17.214.942,1.721,1.824,3.513,2.621,5.326l17.676,40.207c20.612,46.888,29.819,98.691,26.628,149.809l-.891,14.267-222.438,97.785L71.339,355.976c-14.24-12.003-22.096-24.836-22.718-37.116-.407-8.047,2.353-15.514,8.208-22.226.381-.293.745-.616,1.09-.971c14.6-15.038,50.97-16.116,69.865-2.182l40.575,38.97c1.938,1.862,4.434,2.788,6.926,2.788c2.627,0,5.25-1.029,7.213-3.073c3.826-3.983,3.698-10.313-.285-14.139l-39.644-38.076L52.342,73.416c-8.261-18.79-.772-35.438,8.989-44.755c7.402-7.066,18.705-10.114,29.506-7.957c12.177,2.434,22.027,10.928,27.738,23.917l68.24,155.229c1.646,3.747,5.313,5.978,9.159,5.978c1.344,0,2.711-.272,4.02-.848c5.056-2.223,7.353-8.123,5.13-13.179l-38.553-87.698l17.777-7.815c10.657-4.686,19.225-5.425,25.465-2.196c4.429,2.292,8.123,6.749,10.979,13.245c0,.001.001.002.001.002l40.244,91.546c1.647,3.747,5.313,5.978,9.159,5.978c1.344,0,2.711-.272,4.02-.848c5.056-2.223,7.353-8.123,5.13-13.179l-36.198-82.342l23.15-10.029c.038-.017.076-.034.115-.051c7.039-3.156,14.897-3.361,22.127-.577c7.267,2.799,12.992,8.26,16.121,15.377l47.828,108.795Z"/><g><path d="M398.019,391.021c-3.849,0-7.518-2.235-9.163-5.986-2.218-5.058.084-10.956,5.142-13.174l11.595-5.085c5.056-2.217,10.955.082,13.175,5.141c2.218,5.058-.084,10.956-5.142,13.174l-11.595,5.085c-1.306.573-2.67.845-4.012.845Z"/></g><g><path d="M239.019,461.021c-3.849,0-7.518-2.235-9.163-5.986-2.218-5.058.084-10.956,5.142-13.174l123.826-54.31c5.055-2.218,10.955.083,13.175,5.141c2.218,5.058-.084,10.956-5.142,13.174l-123.826,54.31c-1.306.573-2.67.845-4.012.845Z"/></g></g></g></svg>
