<?xml version="1.0" encoding="UTF-8" standalone="no"?>
<!DOCTYPE svg PUBLIC "-//W3C//DTD SVG 1.1//EN" "http://www.w3.org/Graphics/SVG/1.1/DTD/svg11.dtd">
<svg xmlns="http://www.w3.org/2000/svg" version="1.1" viewBox="0.00 0.00 512.00 512.00">
<g stroke-width="2.00" fill="none" stroke-linecap="butt">
<path stroke="#98bce3" vector-effect="non-scaling-stroke" d="
  M 369.83 370.28
  Q 385.19 376.42 396.80 382.65
  Q 406.60 387.91 412.35 395.00
  Q 417.83 401.75 416.51 410.43
  C 414.15 426.03 394.37 430.02 381.51 430.26
  Q 345.81 430.92 317.30 407.79
  A 0.26 0.26 0.0 0 0 316.87 407.99
  L 316.87 456.96
  Q 316.87 457.50 317.36 457.74
  Q 330.22 463.92 344.49 466.63
  C 368.27 471.15 393.38 471.30 416.11 466.33
  C 444.52 460.13 466.53 442.30 469.57 411.90
  Q 471.00 397.64 467.99 385.71
  C 463.57 368.21 451.03 355.53 435.60 346.55
  Q 423.73 339.64 410.92 334.41
  C 404.56 331.81 398.23 328.93 392.07 325.87
  C 384.37 322.03 374.54 316.01 370.93 308.18
  C 365.84 297.10 372.35 286.67 382.86 282.14
  Q 394.85 276.97 411.64 277.86
  C 428.43 278.75 445.77 283.69 459.81 293.20
  A 0.19 0.19 0.0 0 0 460.11 293.04
  L 460.11 247.23
  A 1.11 1.10 9.7 0 0 459.37 246.19
  Q 441.89 240.15 423.73 238.75
  C 403.83 237.23 384.06 237.77 365.41 243.15
  C 344.89 249.07 327.31 261.70 319.69 281.91
  C 315.89 291.97 315.11 304.76 316.82 315.50
  C 321.38 344.19 344.85 360.28 369.83 370.28"
/>
<path stroke="#98bce3" vector-effect="non-scaling-stroke" d="
  M 181.43 284.12
  A 0.44 0.44 0.0 0 1 181.87 284.56
  L 181.86 466.56
  A 0.44 0.44 0.0 0 0 182.30 467.00
  L 232.31 467.00
  A 0.44 0.44 0.0 0 0 232.75 466.56
  L 232.75 284.56
  A 0.44 0.44 0.0 0 1 233.19 284.12
  L 296.56 284.13
  A 0.44 0.44 0.0 0 0 297.00 283.69
  L 297.00 243.44
  A 0.44 0.44 0.0 0 0 296.56 243.00
  L 118.44 243.00
  A 0.44 0.44 0.0 0 0 118.00 243.44
  L 118.00 283.68
  A 0.44 0.44 0.0 0 0 118.44 284.12
  L 181.43 284.12"
/>
</g>
<path fill="#3178c6" d="
  M 46.63 0.00
  L 465.49 0.00
  Q 482.23 1.57 494.13 11.62
  Q 509.95 24.99 512.00 46.63
  L 512.00 465.49
  Q 509.40 490.76 488.90 504.15
  Q 478.74 510.80 465.37 512.00
  L 46.51 512.00
  Q 26.41 510.11 13.20 495.79
  Q 1.58 483.19 0.00 465.36
  L 0.00 46.51
  Q 2.16 24.40 18.74 10.96
  Q 30.49 1.44 46.63 0.00
  Z
  M 369.83 370.28
  Q 385.19 376.42 396.80 382.65
  Q 406.60 387.91 412.35 395.00
  Q 417.83 401.75 416.51 410.43
  C 414.15 426.03 394.37 430.02 381.51 430.26
  Q 345.81 430.92 317.30 407.79
  A 0.26 0.26 0.0 0 0 316.87 407.99
  L 316.87 456.96
  Q 316.87 457.50 317.36 457.74
  Q 330.22 463.92 344.49 466.63
  C 368.27 471.15 393.38 471.30 416.11 466.33
  C 444.52 460.13 466.53 442.30 469.57 411.90
  Q 471.00 397.64 467.99 385.71
  C 463.57 368.21 451.03 355.53 435.60 346.55
  Q 423.73 339.64 410.92 334.41
  C 404.56 331.81 398.23 328.93 392.07 325.87
  C 384.37 322.03 374.54 316.01 370.93 308.18
  C 365.84 297.10 372.35 286.67 382.86 282.14
  Q 394.85 276.97 411.64 277.86
  C 428.43 278.75 445.77 283.69 459.81 293.20
  A 0.19 0.19 0.0 0 0 460.11 293.04
  L 460.11 247.23
  A 1.11 1.10 9.7 0 0 459.37 246.19
  Q 441.89 240.15 423.73 238.75
  C 403.83 237.23 384.06 237.77 365.41 243.15
  C 344.89 249.07 327.31 261.70 319.69 281.91
  C 315.89 291.97 315.11 304.76 316.82 315.50
  C 321.38 344.19 344.85 360.28 369.83 370.28
  Z
  M 181.43 284.12
  A 0.44 0.44 0.0 0 1 181.87 284.56
  L 181.86 466.56
  A 0.44 0.44 0.0 0 0 182.30 467.00
  L 232.31 467.00
  A 0.44 0.44 0.0 0 0 232.75 466.56
  L 232.75 284.56
  A 0.44 0.44 0.0 0 1 233.19 284.12
  L 296.56 284.13
  A 0.44 0.44 0.0 0 0 297.00 283.69
  L 297.00 243.44
  A 0.44 0.44 0.0 0 0 296.56 243.00
  L 118.44 243.00
  A 0.44 0.44 0.0 0 0 118.00 243.44
  L 118.00 283.68
  A 0.44 0.44 0.0 0 0 118.44 284.12
  L 181.43 284.12
  Z"
/>
<path fill="#ffffff" d="
  M 369.83 370.28
  C 344.85 360.28 321.38 344.19 316.82 315.50
  C 315.11 304.76 315.89 291.97 319.69 281.91
  C 327.31 261.70 344.89 249.07 365.41 243.15
  C 384.06 237.77 403.83 237.23 423.73 238.75
  Q 441.89 240.15 459.37 246.19
  A 1.11 1.10 9.7 0 1 460.11 247.23
  L 460.11 293.04
  A 0.19 0.19 0.0 0 1 459.81 293.20
  C 445.77 283.69 428.43 278.75 411.64 277.86
  Q 394.85 276.97 382.86 282.14
  C 372.35 286.67 365.84 297.10 370.93 308.18
  C 374.54 316.01 384.37 322.03 392.07 325.87
  C 398.23 328.93 404.56 331.81 410.92 334.41
  Q 423.73 339.64 435.60 346.55
  C 451.03 355.53 463.57 368.21 467.99 385.71
  Q 471.00 397.64 469.57 411.90
  C 466.53 442.30 444.52 460.13 416.11 466.33
  C 393.38 471.30 368.27 471.15 344.49 466.63
  Q 330.22 463.92 317.36 457.74
  Q 316.87 457.50 316.87 456.96
  L 316.87 407.99
  A 0.26 0.26 0.0 0 1 317.30 407.79
  Q 345.81 430.92 381.51 430.26
  C 394.37 430.02 414.15 426.03 416.51 410.43
  Q 417.83 401.75 412.35 395.00
  Q 406.60 387.91 396.80 382.65
  Q 385.19 376.42 369.83 370.28
  Z"
/>
<path fill="#ffffff" d="
  M 181.43 284.12
  L 118.44 284.12
  A 0.44 0.44 0.0 0 1 118.00 283.68
  L 118.00 243.44
  A 0.44 0.44 0.0 0 1 118.44 243.00
  L 296.56 243.00
  A 0.44 0.44 0.0 0 1 297.00 243.44
  L 297.00 283.69
  A 0.44 0.44 0.0 0 1 296.56 284.13
  L 233.19 284.12
  A 0.44 0.44 0.0 0 0 232.75 284.56
  L 232.75 466.56
  A 0.44 0.44 0.0 0 1 232.31 467.00
  L 182.30 467.00
  A 0.44 0.44 0.0 0 1 181.86 466.56
  L 181.87 284.56
  A 0.44 0.44 0.0 0 0 181.43 284.12
  Z"
/>
</svg>
