<?xml version="1.0" encoding="UTF-8" standalone="no"?>
<!DOCTYPE svg PUBLIC "-//W3C//DTD SVG 1.1//EN" "http://www.w3.org/Graphics/SVG/1.1/DTD/svg11.dtd">
<svg xmlns="http://www.w3.org/2000/svg" version="1.1" viewBox="0.00 0.00 1280.00 1280.00">
<g stroke-width="2.00" fill="none" stroke-linecap="butt">
<path stroke="#ab9ebe" vector-effect="non-scaling-stroke" d="
  M 868.46 605.73
  C 899.77 590.84 928.24 569.17 947.19 540.45
  C 972.06 502.79 975.91 454.26 970.47 409.88
  Q 968.20 391.37 963.34 375.81
  C 951.11 336.71 926.29 305.66 890.96 286.08
  Q 861.38 269.69 827.48 262.62
  Q 779.01 252.50 727.74 252.50
  Q 552.77 252.51 360.73 252.50
  A 0.37 0.37 0.0 0 0 360.36 252.87
  L 360.36 1026.55
  A 0.96 0.96 0.0 0 0 361.32 1027.51
  Q 546.63 1027.48 731.87 1027.52
  C 802.80 1027.53 875.73 1012.32 932.16 969.23
  Q 967.58 942.18 988.65 900.40
  C 997.48 882.90 1003.33 863.41 1006.28 844.17
  Q 1013.49 797.04 1004.54 751.73
  Q 997.09 713.99 976.68 682.30
  C 951.71 643.52 912.35 619.34 868.54 606.73
  Q 867.18 606.34 868.46 605.73"
/>
<path stroke="#ab9ebe" vector-effect="non-scaling-stroke" d="
  M 771.08 549.32
  Q 793.89 535.72 802.19 510.75
  C 807.31 495.36 808.58 477.26 806.90 460.45
  Q 803.10 422.27 772.45 402.74
  C 759.04 394.20 742.80 389.70 726.30 387.41
  Q 708.32 384.92 690.50 384.91
  Q 610.74 384.84 531.11 384.91
  Q 530.75 384.91 530.75 385.27
  L 530.75 565.53
  A 0.68 0.68 0.0 0 0 531.43 566.21
  Q 619.83 566.15 704.05 566.20
  C 727.71 566.21 750.59 561.54 771.08 549.32"
/>
<path stroke="#ab9ebe" vector-effect="non-scaling-stroke" d="
  M 791.71 879.33
  Q 807.02 871.52 817.18 859.83
  C 829.28 845.91 835.84 829.84 837.91 811.97
  Q 841.01 785.22 835.81 759.43
  C 831.80 739.56 822.42 721.17 806.56 708.75
  C 780.92 688.66 748.16 682.33 716.00 682.34
  Q 623.25 682.37 530.97 682.34
  A 0.22 0.22 0.0 0 0 530.75 682.56
  L 530.75 894.69
  A 0.41 0.41 0.0 0 0 531.16 895.10
  Q 621.85 895.11 712.50 895.10
  C 739.37 895.10 768.06 891.39 791.71 879.33"
/>
</g>
<path fill="#563d7c" d="
  M 158.62 0.00
  L 1121.50 0.00
  Q 1166.89 2.16 1203.38 25.61
  C 1249.45 55.21 1277.49 104.10 1280.00 158.88
  L 1280.00 1121.25
  C 1275.93 1207.99 1207.94 1276.07 1121.12 1280.00
  L 158.75 1280.00
  Q 111.00 1277.74 73.31 1252.19
  C 29.20 1222.29 2.46 1174.67 0.00 1121.38
  L 0.00 158.50
  Q 1.57 125.48 14.81 96.55
  Q 33.08 56.66 69.30 30.58
  Q 108.41 2.42 158.62 0.00
  Z
  M 868.46 605.73
  C 899.77 590.84 928.24 569.17 947.19 540.45
  C 972.06 502.79 975.91 454.26 970.47 409.88
  Q 968.20 391.37 963.34 375.81
  C 951.11 336.71 926.29 305.66 890.96 286.08
  Q 861.38 269.69 827.48 262.62
  Q 779.01 252.50 727.74 252.50
  Q 552.77 252.51 360.73 252.50
  A 0.37 0.37 0.0 0 0 360.36 252.87
  L 360.36 1026.55
  A 0.96 0.96 0.0 0 0 361.32 1027.51
  Q 546.63 1027.48 731.87 1027.52
  C 802.80 1027.53 875.73 1012.32 932.16 969.23
  Q 967.58 942.18 988.65 900.40
  C 997.48 882.90 1003.33 863.41 1006.28 844.17
  Q 1013.49 797.04 1004.54 751.73
  Q 997.09 713.99 976.68 682.30
  C 951.71 643.52 912.35 619.34 868.54 606.73
  Q 867.18 606.34 868.46 605.73
  Z"
/>
<path fill="#ffffff" d="
  M 868.46 605.73
  Q 867.18 606.34 868.54 606.73
  C 912.35 619.34 951.71 643.52 976.68 682.30
  Q 997.09 713.99 1004.54 751.73
  Q 1013.49 797.04 1006.28 844.17
  C 1003.33 863.41 997.48 882.90 988.65 900.40
  Q 967.58 942.18 932.16 969.23
  C 875.73 1012.32 802.80 1027.53 731.87 1027.52
  Q 546.63 1027.48 361.32 1027.51
  A 0.96 0.96 0.0 0 1 360.36 1026.55
  L 360.36 252.87
  A 0.37 0.37 0.0 0 1 360.73 252.50
  Q 552.77 252.51 727.74 252.50
  Q 779.01 252.50 827.48 262.62
  Q 861.38 269.69 890.96 286.08
  C 926.29 305.66 951.11 336.71 963.34 375.81
  Q 968.20 391.37 970.47 409.88
  C 975.91 454.26 972.06 502.79 947.19 540.45
  C 928.24 569.17 899.77 590.84 868.46 605.73
  Z
  M 771.08 549.32
  Q 793.89 535.72 802.19 510.75
  C 807.31 495.36 808.58 477.26 806.90 460.45
  Q 803.10 422.27 772.45 402.74
  C 759.04 394.20 742.80 389.70 726.30 387.41
  Q 708.32 384.92 690.50 384.91
  Q 610.74 384.84 531.11 384.91
  Q 530.75 384.91 530.75 385.27
  L 530.75 565.53
  A 0.68 0.68 0.0 0 0 531.43 566.21
  Q 619.83 566.15 704.05 566.20
  C 727.71 566.21 750.59 561.54 771.08 549.32
  Z
  M 791.71 879.33
  Q 807.02 871.52 817.18 859.83
  C 829.28 845.91 835.84 829.84 837.91 811.97
  Q 841.01 785.22 835.81 759.43
  C 831.80 739.56 822.42 721.17 806.56 708.75
  C 780.92 688.66 748.16 682.33 716.00 682.34
  Q 623.25 682.37 530.97 682.34
  A 0.22 0.22 0.0 0 0 530.75 682.56
  L 530.75 894.69
  A 0.41 0.41 0.0 0 0 531.16 895.10
  Q 621.85 895.11 712.50 895.10
  C 739.37 895.10 768.06 891.39 791.71 879.33
  Z"
/>
<path fill="#563d7c" d="
  M 771.08 549.32
  C 750.59 561.54 727.71 566.21 704.05 566.20
  Q 619.83 566.15 531.43 566.21
  A 0.68 0.68 0.0 0 1 530.75 565.53
  L 530.75 385.27
  Q 530.75 384.91 531.11 384.91
  Q 610.74 384.84 690.50 384.91
  Q 708.32 384.92 726.30 387.41
  C 742.80 389.70 759.04 394.20 772.45 402.74
  Q 803.10 422.27 806.90 460.45
  C 808.58 477.26 807.31 495.36 802.19 510.75
  Q 793.89 535.72 771.08 549.32
  Z"
/>
<path fill="#563d7c" d="
  M 791.71 879.33
  C 768.06 891.39 739.37 895.10 712.50 895.10
  Q 621.85 895.11 531.16 895.10
  A 0.41 0.41 0.0 0 1 530.75 894.69
  L 530.75 682.56
  A 0.22 0.22 0.0 0 1 530.97 682.34
  Q 623.25 682.37 716.00 682.34
  C 748.16 682.33 780.92 688.66 806.56 708.75
  C 822.42 721.17 831.80 739.56 835.81 759.43
  Q 841.01 785.22 837.91 811.97
  C 835.84 829.84 829.28 845.91 817.18 859.83
  Q 807.02 871.52 791.71 879.33
  Z"
/>
</svg>
