<?xml version="1.0" encoding="UTF-8" standalone="no"?>
<!DOCTYPE svg PUBLIC "-//W3C//DTD SVG 1.1//EN" "http://www.w3.org/Graphics/SVG/1.1/DTD/svg11.dtd">
<svg xmlns="http://www.w3.org/2000/svg" version="1.1" viewBox="0.00 0.00 187.00 187.00">
<g stroke-width="2.00" fill="none" stroke-linecap="butt">
<path stroke="#4b5ab6" vector-effect="non-scaling-stroke" d="
  M 172.72 47.00
  L 144.90 63.13"
/>
<path stroke="#aeb5e0" vector-effect="non-scaling-stroke" d="
  M 144.90 63.13
  Q 131.71 42.09 109.07 35.90
  C 73.00 26.03 37.70 51.68 33.99 87.50
  Q 32.11 105.72 41.15 122.21"
/>
<path stroke="#4250aa" vector-effect="non-scaling-stroke" d="
  M 41.15 122.21
  L 13.63 137.97"
/>
<path stroke="#9ca4d5" vector-effect="non-scaling-stroke" d="
  M 144.90 63.13
  Q 131.98 70.56 118.94 77.87
  Q 118.88 77.90 118.86 77.85
  Q 118.86 77.83 118.85 77.80"
/>
<path stroke="#aeb5e0" vector-effect="non-scaling-stroke" d="
  M 118.85 77.80
  C 111.02 65.47 95.94 60.48 82.36 65.87
  C 65.52 72.55 59.29 91.58 67.13 107.50"
/>
<path stroke="#949ac9" vector-effect="non-scaling-stroke" d="
  M 67.13 107.50
  C 77.90 127.71 107.50 128.91 119.15 108.60"
/>
<path stroke="#9ca4d5" vector-effect="non-scaling-stroke" d="
  M 119.15 108.60
  L 145.03 122.71
  Q 145.18 122.79 145.19 122.96
  Q 145.21 123.12 145.24 123.23"
/>
<path stroke="#949ac9" vector-effect="non-scaling-stroke" d="
  M 145.24 123.23
  C 121.41 163.12 64.53 163.55 41.15 122.21"
/>
<path stroke="#313f9f" vector-effect="non-scaling-stroke" d="
  M 173.11 138.31
  L 146.53 123.58
  Q 146.21 123.40 145.83 123.33
  L 145.24 123.23"
/>
<path stroke="#313f9f" vector-effect="non-scaling-stroke" d="
  M 119.15 108.60
  L 91.63 93.44"
/>
<path stroke="#4b5ab6" vector-effect="non-scaling-stroke" d="
  M 91.63 93.44
  L 118.85 77.80"
/>
<path stroke="#4250aa" vector-effect="non-scaling-stroke" d="
  M 91.63 93.44
  L 67.13 107.50"
/>
</g>
<path fill="#5c6bc0" d="
  M 172.72 47.00
  L 144.90 63.13
  Q 131.71 42.09 109.07 35.90
  C 73.00 26.03 37.70 51.68 33.99 87.50
  Q 32.11 105.72 41.15 122.21
  L 13.63 137.97
  Q 12.53 135.66 12.53 134.25
  Q 12.53 93.88 12.52 53.50
  Q 12.52 47.75 17.73 44.82
  Q 53.33 24.88 88.77 5.14
  C 92.57 3.03 95.85 3.97 99.72 6.11
  Q 136.18 26.27 172.72 47.00
  Z"
/>
<path fill="#ffffff" d="
  M 144.90 63.13
  Q 131.98 70.56 118.94 77.87
  Q 118.88 77.90 118.86 77.85
  Q 118.86 77.83 118.85 77.80
  C 111.02 65.47 95.94 60.48 82.36 65.87
  C 65.52 72.55 59.29 91.58 67.13 107.50
  C 77.90 127.71 107.50 128.91 119.15 108.60
  L 145.03 122.71
  Q 145.18 122.79 145.19 122.96
  Q 145.21 123.12 145.24 123.23
  C 121.41 163.12 64.53 163.55 41.15 122.21
  Q 32.11 105.72 33.99 87.50
  C 37.70 51.68 73.00 26.03 109.07 35.90
  Q 131.71 42.09 144.90 63.13
  Z"
/>
<path fill="#3949ab" d="
  M 172.72 47.00
  Q 174.44 51.44 174.44 53.25
  Q 174.46 93.50 174.50 133.75
  Q 174.51 135.91 173.11 138.31
  L 146.53 123.58
  Q 146.21 123.40 145.83 123.33
  L 145.24 123.23
  Q 145.21 123.12 145.19 122.96
  Q 145.18 122.79 145.03 122.71
  L 119.15 108.60
  L 91.63 93.44
  L 118.85 77.80
  Q 118.86 77.83 118.86 77.85
  Q 118.88 77.90 118.94 77.87
  Q 131.98 70.56 144.90 63.13
  L 172.72 47.00
  Z"
/>
<path fill="#5c6bc0" d="
  M 118.85 77.80
  L 91.63 93.44
  L 67.13 107.50
  C 59.29 91.58 65.52 72.55 82.36 65.87
  C 95.94 60.48 111.02 65.47 118.85 77.80
  Z"
/>
<path fill="#283593" d="
  M 91.63 93.44
  L 119.15 108.60
  C 107.50 128.91 77.90 127.71 67.13 107.50
  L 91.63 93.44
  Z"
/>
<path fill="#283593" d="
  M 41.15 122.21
  C 64.53 163.55 121.41 163.12 145.24 123.23
  L 145.83 123.33
  Q 146.21 123.40 146.53 123.58
  L 173.11 138.31
  Q 171.98 140.36 169.19 141.93
  Q 133.49 161.96 97.02 182.36
  Q 94.95 183.52 92.07 182.96
  Q 90.36 182.64 87.62 181.10
  Q 51.34 160.78 16.85 141.41
  Q 14.92 140.33 13.63 137.97
  L 41.15 122.21
  Z"
/>
</svg>
