<?xml version="1.0" encoding="UTF-8" standalone="no"?>
<!DOCTYPE svg PUBLIC "-//W3C//DTD SVG 1.1//EN" "http://www.w3.org/Graphics/SVG/1.1/DTD/svg11.dtd">
<svg xmlns="http://www.w3.org/2000/svg" version="1.1" viewBox="0.00 0.00 440.00 309.00">
<path fill="#1d63ed" d="
  M 195.56 0.00
  L 240.85 0.00
  L 240.98 41.48
  A 0.27 0.27 0.0 0 1 240.71 41.75
  L 195.78 41.75
  A 0.27 0.27 0.0 0 1 195.51 41.47
  L 195.56 0.00
  Z"
/>
<rect fill="#1d63ed" x="88.50" y="50.00" width="45.50" height="42.00" rx="0.65"/>
<rect fill="#1d63ed" x="-22.74" y="-21.00" transform="translate(164.74,71.00) rotate(0.1)" width="45.48" height="42.00" rx="0.27"/>
<rect fill="#1d63ed" x="195.49" y="49.99" width="45.50" height="42.02" rx="0.69"/>
<path fill="#1d63ed" d="
  M 440.00 123.29
  L 440.00 124.19
  Q 436.59 131.00 433.00 137.57
  Q 424.32 153.43 408.59 160.65
  C 397.25 165.86 384.57 167.30 372.08 166.98
  A 0.82 0.81 -77.4 0 0 371.30 167.48
  C 348.34 223.09 308.60 265.64 253.76 288.65
  C 218.16 303.59 179.01 309.58 140.32 308.74
  C 119.92 308.29 99.13 304.86 80.49 297.31
  Q 47.18 283.84 27.07 255.50
  C 7.29 227.62 -1.09 192.43 1.28 158.50
  Q 1.47 155.78 2.53 150.57
  Q 2.63 150.06 3.15 150.05
  Q 19.30 149.88 35.26 150.06
  C 54.62 150.28 73.91 149.91 93.25 150.08
  Q 103.07 150.16 113.25 150.05
  C 128.78 149.88 144.65 150.20 159.75 150.08
  C 178.78 149.93 198.00 150.18 217.25 150.08
  Q 238.99 149.97 262.75 150.04
  Q 278.75 150.08 296.95 150.09
  C 310.63 150.09 322.12 148.70 333.20 142.95
  A 0.48 0.48 0.0 0 0 333.39 142.28
  C 321.95 122.60 323.08 97.38 332.48 77.55
  Q 335.65 70.85 342.69 61.14
  Q 342.94 60.79 343.31 61.02
  Q 348.09 64.03 352.31 67.18
  C 366.77 77.98 377.94 92.93 380.58 110.84
  Q 380.69 111.54 381.37 111.42
  Q 402.67 107.84 422.65 113.43
  C 429.18 115.26 434.49 119.59 440.00 123.29
  Z"
/>
<rect fill="#1d63ed" x="-22.75" y="-20.99" transform="translate(57.75,120.99) rotate(0.1)" width="45.50" height="41.98" rx="0.44"/>
<rect fill="#1d63ed" x="88.50" y="100.01" width="45.52" height="41.98" rx="0.60"/>
<rect fill="#1d63ed" x="-22.75" y="-20.99" transform="translate(164.75,120.99) rotate(0.1)" width="45.50" height="41.98" rx="0.68"/>
<rect fill="#1d63ed" x="195.48" y="100.01" width="45.52" height="41.98" rx="0.75"/>
<rect fill="#1d63ed" x="249.25" y="100.00" width="45.50" height="42.00" rx="0.36"/>
</svg>
