<?xml version="1.0" encoding="UTF-8" standalone="no"?>
<!DOCTYPE svg PUBLIC "-//W3C//DTD SVG 1.1//EN" "http://www.w3.org/Graphics/SVG/1.1/DTD/svg11.dtd">
<svg xmlns="http://www.w3.org/2000/svg" version="1.1" viewBox="0.00 0.00 512.00 512.00">
<g stroke-width="2.00" fill="none" stroke-linecap="butt">
<path stroke="#ffb514" vector-effect="non-scaling-stroke" d="
  M 293.05 197.63
  L 257.76 232.44"
/>
<path stroke="#fa900c" vector-effect="non-scaling-stroke" d="
  M 257.76 232.44
  Q 257.07 232.04 256.92 231.52
  Q 256.83 231.22 256.70 230.96
  Q 246.37 210.06 236.35 189.93
  Q 236.23 189.68 235.95 189.65
  Q 235.80 189.63 235.94 189.55
  Q 236.02 189.50 236.04 189.40
  Q 236.07 189.27 236.01 189.14
  Q 232.64 182.21 229.18 175.51
  Q 228.35 173.90 227.43 172.39
  Q 227.16 171.93 226.79 172.32
  Q 225.67 173.52 224.76 175.25
  Q 176.21 267.70 127.64 360.13
  Q 127.59 360.24 127.18 361.44
  Q 126.80 362.55 125.46 362.54"
/>
<path stroke="#faa520" vector-effect="non-scaling-stroke" d="
  M 125.34 364.83
  Q 126.45 364.52 126.76 364.21
  C 131.64 359.44 136.85 353.80 141.08 349.57
  Q 199.36 291.26 257.66 232.96
  Q 257.85 232.77 257.76 232.44"
/>
</g>
<path fill="#ffa000" d="
  M 293.05 197.63
  L 257.76 232.44
  Q 257.07 232.04 256.92 231.52
  Q 256.83 231.22 256.70 230.96
  Q 246.37 210.06 236.35 189.93
  Q 236.23 189.68 235.95 189.65
  Q 235.80 189.63 235.94 189.55
  Q 236.02 189.50 236.04 189.40
  Q 236.07 189.27 236.01 189.14
  Q 232.64 182.21 229.18 175.51
  Q 228.35 173.90 227.43 172.39
  Q 227.16 171.93 226.79 172.32
  Q 225.67 173.52 224.76 175.25
  Q 176.21 267.70 127.64 360.13
  Q 127.59 360.24 127.18 361.44
  Q 126.80 362.55 125.46 362.54
  Q 156.82 166.22 170.47 81.50
  C 171.01 78.14 173.41 72.17 177.89 75.44
  C 179.70 76.76 181.21 79.00 182.22 81.05
  Q 204.74 126.63 226.75 170.91
  Q 227.01 171.44 227.25 170.90
  Q 235.74 151.72 244.25 132.79
  C 247.76 124.97 256.39 124.15 260.38 132.14
  Q 276.70 164.86 293.05 197.63
  Z"
/>
<path fill="#ffca28" d="
  M 125.34 364.83
  Q 126.45 364.52 126.76 364.21
  C 131.64 359.44 136.85 353.80 141.08 349.57
  Q 199.36 291.26 257.66 232.96
  Q 257.85 232.77 257.76 232.44
  L 293.05 197.63
  Q 326.59 164.22 336.37 154.37
  C 343.46 147.22 350.19 150.12 351.79 159.41
  Q 369.37 261.48 386.92 363.50
  Q 387.01 364.05 386.54 364.33
  Q 330.94 397.52 271.88 433.05
  Q 268.84 434.88 265.40 435.73
  Q 258.80 437.36 254.67 437.23
  Q 250.76 437.10 245.71 435.74
  Q 242.38 434.84 239.16 432.94
  Q 181.93 399.18 125.47 365.98
  Q 125.08 365.75 125.14 365.32
  Q 125.18 365.07 125.34 364.83
  Z"
/>
<path fill="#f57f17" d="
  M 257.76 232.44
  Q 257.85 232.77 257.66 232.96
  Q 199.36 291.26 141.08 349.57
  C 136.85 353.80 131.64 359.44 126.76 364.21
  Q 126.45 364.52 125.34 364.83
  Q 125.15 363.58 125.46 362.54
  Q 126.80 362.55 127.18 361.44
  Q 127.59 360.24 127.64 360.13
  Q 176.21 267.70 224.76 175.25
  Q 225.67 173.52 226.79 172.32
  Q 227.16 171.93 227.43 172.39
  Q 228.35 173.90 229.18 175.51
  Q 232.64 182.21 236.01 189.14
  Q 236.07 189.27 236.04 189.40
  Q 236.02 189.50 235.94 189.55
  Q 235.80 189.63 235.95 189.65
  Q 236.23 189.68 236.35 189.93
  Q 246.37 210.06 256.70 230.96
  Q 256.83 231.22 256.92 231.52
  Q 257.07 232.04 257.76 232.44
  Z"
/>
</svg>
