<?xml version="1.0" encoding="UTF-8" standalone="no"?>
<!DOCTYPE svg PUBLIC "-//W3C//DTD SVG 1.1//EN" "http://www.w3.org/Graphics/SVG/1.1/DTD/svg11.dtd">
<svg xmlns="http://www.w3.org/2000/svg" version="1.1" viewBox="0.00 0.00 560.00 560.00">
<path stroke="#8b8a8a" stroke-width="2.00" fill="none" stroke-linecap="butt" vector-effect="non-scaling-stroke" d="
  M 170.59 161.45
  C 177.48 160.51 185.15 162.16 191.77 164.49
  C 204.51 168.96 215.69 175.56 227.16 183.02
  A 1.35 1.35 0.0 0 0 228.26 183.20
  Q 280.24 169.54 332.27 183.24
  Q 332.76 183.37 333.17 183.08
  Q 348.59 172.26 365.94 165.40
  Q 377.30 160.90 388.77 161.22
  Q 390.38 161.27 390.95 162.77
  C 397.53 180.31 399.05 199.54 392.75 217.22
  Q 392.57 217.73 392.93 218.13
  Q 412.73 240.15 413.97 269.91
  C 415.61 309.51 403.91 349.03 365.37 366.87
  C 350.46 373.78 335.30 376.76 318.68 378.89
  A 0.27 0.27 0.0 0 0 318.52 379.35
  Q 325.44 385.88 328.74 395.36
  C 332.85 407.19 332.37 418.16 332.33 430.24
  Q 332.27 453.03 331.99 475.95
  C 331.88 484.53 339.17 488.96 346.98 486.31
  C 402.03 467.63 446.82 426.70 470.94 373.84
  Q 491.13 329.58 489.90 279.70
  C 486.70 150.38 369.11 53.86 241.37 77.63
  C 185.35 88.05 136.08 121.39 104.76 169.00
  C 55.71 243.56 58.85 342.38 112.68 413.53
  Q 151.28 464.55 212.43 486.20
  C 219.98 488.87 228.10 485.16 227.97 476.26
  Q 227.71 457.83 227.69 437.86
  Q 227.69 437.15 227.00 437.30
  C 213.62 440.12 199.05 440.97 186.43 437.19
  Q 164.30 430.57 156.44 410.67
  C 151.76 398.81 144.39 387.24 133.38 380.79
  C 130.61 379.17 120.28 371.55 128.83 369.03
  C 142.30 365.05 158.05 375.91 165.13 386.45
  Q 167.67 390.22 170.03 393.79
  C 183.77 414.54 206.64 417.27 228.27 407.56
  A 0.91 0.90 -8.7 0 0 228.80 406.84
  C 229.99 396.93 234.05 386.43 241.40 379.48
  A 0.41 0.40 25.6 0 0 241.15 378.79
  C 212.88 376.30 183.98 367.09 166.38 344.86
  C 150.25 324.47 145.51 296.57 146.30 271.39
  Q 147.26 241.06 167.41 218.15
  Q 167.76 217.74 167.58 217.24
  C 161.32 199.90 162.70 179.49 169.72 162.12
  Q 169.96 161.53 170.59 161.45"
/>
<path fill="#ffffff" d="
  M 0.00 0.00
  L 560.00 0.00
  L 560.00 560.00
  L 0.00 560.00
  L 0.00 0.00
  Z
  M 170.59 161.45
  C 177.48 160.51 185.15 162.16 191.77 164.49
  C 204.51 168.96 215.69 175.56 227.16 183.02
  A 1.35 1.35 0.0 0 0 228.26 183.20
  Q 280.24 169.54 332.27 183.24
  Q 332.76 183.37 333.17 183.08
  Q 348.59 172.26 365.94 165.40
  Q 377.30 160.90 388.77 161.22
  Q 390.38 161.27 390.95 162.77
  C 397.53 180.31 399.05 199.54 392.75 217.22
  Q 392.57 217.73 392.93 218.13
  Q 412.73 240.15 413.97 269.91
  C 415.61 309.51 403.91 349.03 365.37 366.87
  C 350.46 373.78 335.30 376.76 318.68 378.89
  A 0.27 0.27 0.0 0 0 318.52 379.35
  Q 325.44 385.88 328.74 395.36
  C 332.85 407.19 332.37 418.16 332.33 430.24
  Q 332.27 453.03 331.99 475.95
  C 331.88 484.53 339.17 488.96 346.98 486.31
  C 402.03 467.63 446.82 426.70 470.94 373.84
  Q 491.13 329.58 489.90 279.70
  C 486.70 150.38 369.11 53.86 241.37 77.63
  C 185.35 88.05 136.08 121.39 104.76 169.00
  C 55.71 243.56 58.85 342.38 112.68 413.53
  Q 151.28 464.55 212.43 486.20
  C 219.98 488.87 228.10 485.16 227.97 476.26
  Q 227.71 457.83 227.69 437.86
  Q 227.69 437.15 227.00 437.30
  C 213.62 440.12 199.05 440.97 186.43 437.19
  Q 164.30 430.57 156.44 410.67
  C 151.76 398.81 144.39 387.24 133.38 380.79
  C 130.61 379.17 120.28 371.55 128.83 369.03
  C 142.30 365.05 158.05 375.91 165.13 386.45
  Q 167.67 390.22 170.03 393.79
  C 183.77 414.54 206.64 417.27 228.27 407.56
  A 0.91 0.90 -8.7 0 0 228.80 406.84
  C 229.99 396.93 234.05 386.43 241.40 379.48
  A 0.41 0.40 25.6 0 0 241.15 378.79
  C 212.88 376.30 183.98 367.09 166.38 344.86
  C 150.25 324.47 145.51 296.57 146.30 271.39
  Q 147.26 241.06 167.41 218.15
  Q 167.76 217.74 167.58 217.24
  C 161.32 199.90 162.70 179.49 169.72 162.12
  Q 169.96 161.53 170.59 161.45
  Z"
/>
<path fill="#171515" d="
  M 169.72 162.12
  C 162.70 179.49 161.32 199.90 167.58 217.24
  Q 167.76 217.74 167.41 218.15
  Q 147.26 241.06 146.30 271.39
  C 145.51 296.57 150.25 324.47 166.38 344.86
  C 183.98 367.09 212.88 376.30 241.15 378.79
  A 0.41 0.40 25.6 0 1 241.40 379.48
  C 234.05 386.43 229.99 396.93 228.80 406.84
  A 0.91 0.90 -8.7 0 1 228.27 407.56
  C 206.64 417.27 183.77 414.54 170.03 393.79
  Q 167.67 390.22 165.13 386.45
  C 158.05 375.91 142.30 365.05 128.83 369.03
  C 120.28 371.55 130.61 379.17 133.38 380.79
  C 144.39 387.24 151.76 398.81 156.44 410.67
  Q 164.30 430.57 186.43 437.19
  C 199.05 440.97 213.62 440.12 227.00 437.30
  Q 227.69 437.15 227.69 437.86
  Q 227.71 457.83 227.97 476.26
  C 228.10 485.16 219.98 488.87 212.43 486.20
  Q 151.28 464.55 112.68 413.53
  C 58.85 342.38 55.71 243.56 104.76 169.00
  C 136.08 121.39 185.35 88.05 241.37 77.63
  C 369.11 53.86 486.70 150.38 489.90 279.70
  Q 491.13 329.58 470.94 373.84
  C 446.82 426.70 402.03 467.63 346.98 486.31
  C 339.17 488.96 331.88 484.53 331.99 475.95
  Q 332.27 453.03 332.33 430.24
  C 332.37 418.16 332.85 407.19 328.74 395.36
  Q 325.44 385.88 318.52 379.35
  A 0.27 0.27 0.0 0 1 318.68 378.89
  C 335.30 376.76 350.46 373.78 365.37 366.87
  C 403.91 349.03 415.61 309.51 413.97 269.91
  Q 412.73 240.15 392.93 218.13
  Q 392.57 217.73 392.75 217.22
  C 399.05 199.54 397.53 180.31 390.95 162.77
  Q 390.38 161.27 388.77 161.22
  Q 377.30 160.90 365.94 165.40
  Q 348.59 172.26 333.17 183.08
  Q 332.76 183.37 332.27 183.24
  Q 280.24 169.54 228.26 183.20
  A 1.35 1.35 0.0 0 1 227.16 183.02
  C 215.69 175.56 204.51 168.96 191.77 164.49
  C 185.15 162.16 177.48 160.51 170.59 161.45
  Q 169.96 161.53 169.72 162.12
  Z"
/>
</svg>
