<?xml version="1.0" encoding="UTF-8" standalone="no"?>
<!DOCTYPE svg PUBLIC "-//W3C//DTD SVG 1.1//EN" "http://www.w3.org/Graphics/SVG/1.1/DTD/svg11.dtd">
<svg xmlns="http://www.w3.org/2000/svg" version="1.1" viewBox="0.00 0.00 1061.00 938.00">
<path fill="#00aed9" d="
  M 633.26 545.12
  C 606.80 594.32 564.31 629.93 509.08 640.55
  Q 485.57 645.07 463.87 643.65
  Q 419.05 640.71 383.64 613.02
  C 358.84 593.62 341.72 567.32 335.30 536.96
  Q 325.09 488.66 342.86 443.74
  Q 346.50 434.57 351.37 425.70
  C 369.20 393.25 395.88 365.08 428.54 347.52
  Q 465.88 327.45 509.64 325.16
  C 567.95 322.12 621.43 353.49 643.73 407.80
  C 645.28 411.58 642.05 413.09 639.22 413.83
  Q 602.73 423.42 565.97 433.20
  Q 561.48 434.39 558.54 430.84
  C 552.59 423.60 546.26 417.22 537.59 412.91
  Q 502.88 395.66 468.54 414.62
  Q 453.41 422.97 441.80 435.66
  Q 421.44 457.91 419.37 490.29
  Q 418.04 511.10 426.11 527.46
  C 435.30 546.11 452.24 559.17 472.63 562.77
  Q 503.28 568.19 528.30 551.60
  C 540.55 543.47 549.00 533.42 557.07 521.30
  A 0.20 0.19 -73.5 0 0 556.91 520.99
  Q 517.33 521.04 477.74 520.96
  C 473.20 520.96 468.72 519.63 468.30 514.55
  Q 468.07 511.86 469.08 509.43
  Q 479.71 483.82 491.16 462.01
  C 493.36 457.82 497.18 455.74 501.78 455.74
  Q 571.75 455.76 633.96 455.74
  Q 634.54 455.74 634.72 455.20
  C 643.59 428.13 659.65 403.14 680.26 382.07
  Q 707.50 354.21 743.67 341.33
  Q 777.97 329.11 813.20 328.33
  C 852.26 327.46 886.89 340.54 915.59 366.14
  Q 951.35 398.05 957.58 445.91
  Q 960.57 468.92 958.28 489.56
  Q 953.93 528.80 931.55 561.04
  C 902.03 603.59 858.58 631.81 807.45 641.10
  C 798.13 642.80 788.19 643.45 778.65 644.33
  Q 775.53 644.61 772.44 644.51
  C 734.21 643.25 699.16 630.55 670.96 604.68
  Q 643.98 579.93 633.64 545.16
  Q 633.50 544.68 633.26 545.12
  Z
  M 770.55 562.77
  C 785.28 565.96 800.21 564.43 814.23 558.87
  C 828.12 553.36 841.68 544.55 851.82 533.69
  Q 873.13 510.87 875.37 477.34
  C 875.55 474.78 875.16 472.28 875.09 469.71
  Q 875.02 466.66 874.55 463.82
  C 867.77 422.32 830.11 397.43 788.87 406.89
  C 760.63 413.36 737.89 428.94 725.11 455.12
  Q 717.90 469.89 715.59 485.24
  Q 713.25 500.68 717.96 515.70
  C 725.69 540.41 745.08 557.25 770.55 562.77
  Z"
/>
<path fill="#00aed9" d="
  M 329.28 409.91
  Q 326.12 414.69 323.47 418.91
  C 322.32 420.76 320.03 421.53 317.94 421.53
  Q 242.39 421.49 167.57 421.50
  A 1.37 1.36 18.9 0 1 166.49 419.30
  Q 171.32 413.03 175.43 407.89
  C 176.66 406.35 178.59 405.75 180.62 405.75
  Q 242.17 405.77 302.19 405.74
  C 309.02 405.73 320.24 405.31 329.43 405.61
  A 1.37 1.36 13.7 0 1 330.62 407.56
  Q 330.06 408.73 329.28 409.91
  Z"
/>
<path fill="#00aed9" d="
  M 309.58 446.62
  Q 307.86 451.56 306.41 456.44
  A 4.62 4.62 0.0 0 1 301.98 459.75
  L 104.69 459.75
  A 1.10 1.04 -28.2 0 1 104.14 459.60
  Q 102.86 458.84 103.92 457.47
  Q 108.35 451.75 112.60 446.35
  C 113.92 444.69 115.83 444.00 118.01 444.00
  Q 199.71 444.00 281.42 444.00
  C 287.32 443.99 298.33 443.68 306.75 443.80
  C 308.43 443.82 310.31 444.54 309.58 446.62
  Z"
/>
<path fill="#00aed9" d="
  M 208.24 488.84
  C 209.89 485.98 211.10 482.21 215.10 482.21
  Q 254.27 482.29 298.58 482.23
  A 2.35 2.35 0.0 0 1 300.93 484.80
  L 299.92 495.18
  A 3.12 3.11 -87.3 0 1 296.82 498.00
  L 205.72 498.00
  A 1.20 1.17 -24.3 0 1 204.95 497.72
  Q 203.83 496.76 204.52 495.49
  Q 206.36 492.09 208.24 488.84
  Z"
/>
</svg>
