<?xml version="1.0" encoding="UTF-8" standalone="no"?>
<!DOCTYPE svg PUBLIC "-//W3C//DTD SVG 1.1//EN" "http://www.w3.org/Graphics/SVG/1.1/DTD/svg11.dtd">
<svg xmlns="http://www.w3.org/2000/svg" version="1.1" viewBox="0.00 0.00 188.00 188.00">
<path fill="#e76f00" d="
  M 113.49 5.79
  C 122.95 20.85 110.64 37.91 98.96 47.47
  C 87.68 56.71 73.51 67.94 83.76 84.63
  Q 87.35 90.49 91.93 96.97
  Q 93.15 98.69 94.09 100.80
  Q 94.48 101.66 93.77 101.03
  Q 83.99 92.38 77.80 84.64
  C 71.40 76.66 68.05 67.43 75.37 58.51
  Q 79.26 53.78 83.57 50.31
  Q 91.44 43.99 98.61 38.18
  C 108.52 30.14 115.45 19.44 112.60 6.16
  Q 112.01 3.42 113.49 5.79
  Z"
/>
<path fill="#e76f00" d="
  M 101.34 107.19
  C 105.32 103.18 107.68 97.14 104.56 92.08
  Q 103.07 89.67 100.91 87.11
  C 96.93 82.39 93.98 75.56 95.01 69.28
  C 97.54 53.96 119.35 44.94 132.45 41.19
  Q 134.57 40.58 132.66 41.68
  Q 122.88 47.30 114.71 53.57
  Q 110.57 56.75 107.33 61.04
  C 102.08 67.98 106.07 74.99 110.64 80.65
  Q 112.56 83.03 113.66 85.44
  C 117.87 94.67 109.00 103.20 101.50 107.40
  A 0.13 0.13 0.0 0 1 101.34 107.19
  Z"
/>
<path fill="#5382a1" d="
  M 132.02 134.79
  Q 142.22 130.00 148.74 122.57
  C 152.60 118.17 154.41 111.41 150.23 106.63
  C 146.57 102.45 141.86 101.99 136.62 103.51
  Q 135.70 103.78 136.33 103.06
  Q 136.94 102.37 137.88 102.00
  C 145.73 98.91 156.46 100.63 159.34 109.49
  C 162.08 117.91 154.94 125.12 148.38 128.91
  Q 141.00 133.17 132.44 135.32
  Q 132.18 135.38 132.08 135.13
  L 131.99 134.87
  Q 131.96 134.81 132.02 134.79
  Z"
/>
<path fill="#5382a1" d="
  M 55.98 109.34
  A 1.40 1.39 -68.3 0 0 56.81 111.28
  Q 62.26 112.99 68.93 113.21
  Q 100.39 114.24 131.80 108.81
  Q 131.90 108.79 131.87 108.88
  Q 131.77 109.13 131.77 109.13
  Q 131.81 109.02 131.70 109.07
  Q 128.65 110.39 125.93 112.07
  C 123.94 113.30 121.55 113.81 119.27 114.23
  Q 95.97 118.50 71.48 117.69
  Q 61.41 117.36 52.02 115.90
  Q 47.72 115.24 44.14 113.41
  Q 42.54 112.60 43.38 111.01
  Q 43.89 110.04 44.96 109.49
  Q 57.76 102.90 72.11 102.09
  Q 74.88 101.93 72.19 102.61
  C 68.85 103.46 57.30 106.62 55.98 109.34
  Z"
/>
<path fill="#5382a1" d="
  M 65.93 123.19
  Q 63.81 124.97 64.44 126.72
  C 65.10 128.57 68.07 128.95 69.80 129.17
  Q 93.84 132.18 117.79 127.08
  Q 118.34 126.97 118.75 127.34
  Q 121.54 129.85 125.19 131.24
  A 0.20 0.19 -42.2 0 1 125.17 131.61
  Q 97.85 139.35 70.16 135.56
  Q 64.96 134.84 59.73 132.29
  C 57.62 131.26 56.03 128.70 58.26 126.80
  Q 61.45 124.09 65.76 122.86
  Q 66.62 122.62 65.93 123.19
  Z"
/>
<path fill="#5382a1" d="
  M 69.39 145.33
  Q 70.91 146.38 72.72 146.69
  Q 92.07 150.08 111.79 145.78
  Q 112.35 145.66 112.87 145.91
  L 121.99 150.34
  A 0.21 0.21 0.0 0 1 121.97 150.72
  Q 99.63 159.42 76.13 155.20
  C 73.13 154.66 60.99 151.71 62.60 146.86
  C 63.39 144.48 67.60 142.87 69.80 142.32
  Q 70.56 142.13 69.96 142.63
  Q 69.06 143.38 68.98 144.48
  A 0.95 0.94 19.6 0 0 69.39 145.33
  Z"
/>
<path fill="#5382a1" d="
  M 40.17 161.42
  A 1.47 1.46 -64.3 0 0 40.88 163.45
  Q 48.45 166.73 56.59 167.54
  Q 93.83 171.24 131.73 166.19
  C 134.54 165.82 153.15 163.03 149.55 157.16
  Q 149.22 156.62 149.80 156.88
  C 152.47 158.08 153.05 160.64 150.67 162.44
  C 146.92 165.28 142.54 166.91 137.87 168.13
  Q 127.91 170.74 117.79 171.94
  Q 78.25 176.60 36.01 169.61
  C 33.72 169.23 27.47 167.68 29.06 164.20
  Q 29.91 162.33 32.02 161.07
  C 38.59 157.17 48.47 153.71 56.30 155.19
  Q 57.23 155.36 56.30 155.55
  Q 54.47 155.93 52.57 156.24
  C 49.77 156.69 41.54 158.84 40.17 161.42
  Z"
/>
<path fill="#5382a1" d="
  M 141.00 174.22
  C 147.03 172.81 155.06 170.52 159.66 166.17
  Q 160.16 165.70 159.98 166.36
  C 157.09 177.26 131.17 180.24 122.03 181.08
  Q 96.11 183.48 69.92 181.09
  Q 62.57 180.42 55.55 178.42
  Q 50.02 176.83 55.73 177.54
  Q 87.74 181.50 120.25 177.80
  Q 130.87 176.59 141.00 174.22
  Z"
/>
</svg>
