<?xml version="1.0" encoding="UTF-8" standalone="no"?>
<!DOCTYPE svg PUBLIC "-//W3C//DTD SVG 1.1//EN" "http://www.w3.org/Graphics/SVG/1.1/DTD/svg11.dtd">
<svg xmlns="http://www.w3.org/2000/svg" version="1.1" viewBox="0.00 0.00 512.00 512.00">
<g stroke-width="2.00" fill="none" stroke-linecap="butt">
<path stroke="#817a56" vector-effect="non-scaling-stroke" d="
  M 343.50 15.93
  L 343.46 77.49"
/>
<path stroke="#eea9a5" vector-effect="non-scaling-stroke" d="
  M 343.46 77.49
  L 162.54 77.48
  Q 162.24 77.48 162.22 77.78
  L 148.93 247.26
  Q 148.89 247.71 149.27 247.93
  L 173.46 262.26
  Q 173.90 262.52 174.39 262.41
  Q 200.08 256.88 223.10 255.46
  Q 245.42 254.08 265.18 259.06
  C 288.55 264.95 304.87 279.35 308.92 303.63
  Q 311.70 320.32 308.00 336.90
  C 298.87 377.83 257.58 386.17 222.14 383.77
  C 195.09 381.93 165.95 374.79 142.25 361.51
  Q 141.74 361.22 141.74 361.80
  L 141.75 411.25
  Q 141.75 411.65 141.93 412.00
  Q 142.00 412.13 142.05 412.27"
/>
<path stroke="#817a56" vector-effect="non-scaling-stroke" d="
  M 142.05 412.27
  L 141.84 485.02"
/>
<path stroke="#92d0b1" vector-effect="non-scaling-stroke" d="
  M 142.05 412.27
  C 172.44 428.34 208.06 431.65 241.77 430.70
  C 264.67 430.06 288.62 425.84 308.66 415.78
  C 351.79 394.15 369.53 353.13 367.66 306.46
  Q 366.96 288.89 361.87 274.08
  C 351.40 243.64 326.66 222.63 295.85 213.86
  Q 276.46 208.33 252.59 208.40
  Q 238.77 208.43 229.20 209.66
  Q 217.18 211.20 204.19 213.66
  A 0.36 0.36 0.0 0 1 203.77 213.27
  L 211.58 127.52
  A 0.23 0.23 0.0 0 1 211.81 127.31
  L 343.02 127.30
  A 0.45 0.45 0.0 0 0 343.47 126.85
  L 343.46 77.49"
/>
</g>
<path fill="#dc524a" d="
  M 248.64 0.00
  L 260.49 0.00
  Q 303.43 1.23 343.50 15.93
  L 343.46 77.49
  L 162.54 77.48
  Q 162.24 77.48 162.22 77.78
  L 148.93 247.26
  Q 148.89 247.71 149.27 247.93
  L 173.46 262.26
  Q 173.90 262.52 174.39 262.41
  Q 200.08 256.88 223.10 255.46
  Q 245.42 254.08 265.18 259.06
  C 288.55 264.95 304.87 279.35 308.92 303.63
  Q 311.70 320.32 308.00 336.90
  C 298.87 377.83 257.58 386.17 222.14 383.77
  C 195.09 381.93 165.95 374.79 142.25 361.51
  Q 141.74 361.22 141.74 361.80
  L 141.75 411.25
  Q 141.75 411.65 141.93 412.00
  Q 142.00 412.13 142.05 412.27
  L 141.84 485.02
  Q 75.66 451.65 37.52 389.25
  Q 2.58 332.09 0.00 263.59
  L 0.00 248.24
  Q 4.02 152.96 66.81 83.55
  Q 97.99 49.08 141.32 27.06
  Q 190.67 1.97 248.64 0.00
  Z"
/>
<path fill="#25a162" d="
  M 343.50 15.93
  C 378.07 27.70 410.14 48.80 435.92 74.17
  Q 442.94 81.08 449.55 88.81
  Q 508.49 157.70 512.00 250.11
  L 512.00 263.48
  Q 509.87 324.75 481.94 376.45
  Q 457.38 421.90 418.79 453.55
  Q 351.61 508.66 263.12 512.00
  L 248.75 512.00
  Q 245.14 511.65 241.51 511.45
  Q 188.99 508.44 141.84 485.02
  L 142.05 412.27
  C 172.44 428.34 208.06 431.65 241.77 430.70
  C 264.67 430.06 288.62 425.84 308.66 415.78
  C 351.79 394.15 369.53 353.13 367.66 306.46
  Q 366.96 288.89 361.87 274.08
  C 351.40 243.64 326.66 222.63 295.85 213.86
  Q 276.46 208.33 252.59 208.40
  Q 238.77 208.43 229.20 209.66
  Q 217.18 211.20 204.19 213.66
  A 0.36 0.36 0.0 0 1 203.77 213.27
  L 211.58 127.52
  A 0.23 0.23 0.0 0 1 211.81 127.31
  L 343.02 127.30
  A 0.45 0.45 0.0 0 0 343.47 126.85
  L 343.46 77.49
  L 343.50 15.93
  Z"
/>
<path fill="#ffffff" d="
  M 343.46 77.49
  L 343.47 126.85
  A 0.45 0.45 0.0 0 1 343.02 127.30
  L 211.81 127.31
  A 0.23 0.23 0.0 0 0 211.58 127.52
  L 203.77 213.27
  A 0.36 0.36 0.0 0 0 204.19 213.66
  Q 217.18 211.20 229.20 209.66
  Q 238.77 208.43 252.59 208.40
  Q 276.46 208.33 295.85 213.86
  C 326.66 222.63 351.40 243.64 361.87 274.08
  Q 366.96 288.89 367.66 306.46
  C 369.53 353.13 351.79 394.15 308.66 415.78
  C 288.62 425.84 264.67 430.06 241.77 430.70
  C 208.06 431.65 172.44 428.34 142.05 412.27
  Q 142.00 412.13 141.93 412.00
  Q 141.75 411.65 141.75 411.25
  L 141.74 361.80
  Q 141.74 361.22 142.25 361.51
  C 165.95 374.79 195.09 381.93 222.14 383.77
  C 257.58 386.17 298.87 377.83 308.00 336.90
  Q 311.70 320.32 308.92 303.63
  C 304.87 279.35 288.55 264.95 265.18 259.06
  Q 245.42 254.08 223.10 255.46
  Q 200.08 256.88 174.39 262.41
  Q 173.90 262.52 173.46 262.26
  L 149.27 247.93
  Q 148.89 247.71 148.93 247.26
  L 162.22 77.78
  Q 162.24 77.48 162.54 77.48
  L 343.46 77.49
  Z"
/>
</svg>
