<?xml version="1.0" encoding="UTF-8" standalone="no"?>
<!DOCTYPE svg PUBLIC "-//W3C//DTD SVG 1.1//EN" "http://www.w3.org/Graphics/SVG/1.1/DTD/svg11.dtd">
<svg xmlns="http://www.w3.org/2000/svg" version="1.1" viewBox="0.00 0.00 120.00 257.00">
<path fill="#00ed64" d="
  M 59.82 0.00
  L 60.20 0.00
  Q 72.19 16.72 77.80 23.21
  Q 99.79 48.65 111.42 78.35
  Q 118.64 96.76 120.00 118.38
  L 120.00 128.74
  Q 118.37 155.22 106.11 178.62
  Q 91.58 206.38 67.18 225.96
  Q 66.74 226.32 66.69 226.89
  Q 65.62 241.33 63.99 255.38
  Q 63.92 256.00 63.29 256.00
  L 56.43 256.00
  Q 55.87 256.00 55.82 255.44
  L 53.11 226.87
  Q 53.06 226.33 52.64 225.99
  Q 29.87 207.53 15.59 181.94
  Q 1.46 156.62 0.00 127.63
  L 0.00 118.48
  Q 1.98 88.28 16.17 61.45
  Q 22.53 49.42 30.37 38.32
  Q 33.07 34.49 42.65 22.57
  Q 51.55 11.51 59.82 0.00
  Z
  M 59.62 89.47
  L 53.86 217.15
  Q 53.82 217.97 54.41 218.54
  L 59.46 223.53
  Q 59.97 224.04 60.48 223.52
  Q 62.73 221.20 65.12 218.97
  Q 66.08 218.07 66.03 216.84
  Q 63.16 153.53 60.29 89.53
  Q 60.28 89.38 60.19 89.27
  A 0.33 0.33 0.0 0 0 59.62 89.47
  Z"
/>
</svg>
