<?xml version="1.0" encoding="UTF-8" standalone="no"?>
<!DOCTYPE svg PUBLIC "-//W3C//DTD SVG 1.1//EN" "http://www.w3.org/Graphics/SVG/1.1/DTD/svg11.dtd">
<svg xmlns="http://www.w3.org/2000/svg" version="1.1" viewBox="0.00 0.00 520.00 512.00">
<path fill="#00546b" d="
  M 29.88 0.00
  L 31.76 0.00
  C 49.99 1.58 65.80 8.65 81.97 17.67
  Q 89.39 21.80 93.79 25.70
  C 96.96 28.50 102.64 34.20 106.67 34.46
  Q 116.38 35.09 125.61 35.47
  Q 131.84 35.73 138.22 37.24
  C 151.71 40.42 165.24 43.60 176.90 50.26
  Q 203.67 65.56 228.13 84.45
  Q 265.33 113.18 292.77 150.77
  Q 301.05 162.11 309.71 175.54
  Q 315.87 185.10 318.98 192.04
  Q 323.48 202.07 329.22 216.22
  Q 340.37 243.73 358.47 279.44
  Q 361.79 285.98 364.52 291.99
  C 367.65 298.89 370.57 305.20 374.97 310.96
  C 376.79 313.33 379.26 314.62 382.02 315.50
  C 388.12 317.46 393.81 320.52 399.60 323.04
  Q 407.87 326.64 415.88 330.40
  Q 423.67 334.05 433.42 340.56
  Q 459.29 357.84 483.41 378.51
  Q 487.25 381.80 488.94 384.07
  Q 495.47 392.84 501.73 400.19
  A 2.23 2.22 60.6 0 1 500.74 403.74
  Q 490.01 407.33 480.17 409.36
  C 473.84 410.67 466.94 411.09 460.42 411.90
  C 448.73 413.36 437.75 418.47 426.08 419.46
  Q 425.53 419.51 425.75 420.02
  C 428.45 426.31 433.46 430.96 438.99 434.80
  Q 446.66 440.14 456.22 445.48
  C 473.41 455.11 488.96 469.00 500.94 484.39
  C 504.50 488.96 508.70 492.63 512.84 496.61
  C 513.94 497.66 514.96 498.95 515.49 500.36
  Q 517.32 505.20 519.55 509.20
  Q 520.10 510.19 519.03 509.80
  Q 517.04 509.08 515.31 507.49
  C 512.47 504.89 510.16 502.12 506.92 499.87
  C 497.77 493.52 488.82 485.99 479.29 480.96
  Q 470.38 476.25 456.00 469.72
  C 444.52 464.52 435.07 457.67 424.83 450.16
  Q 417.13 444.49 412.62 439.68
  Q 406.83 433.48 401.70 425.29
  C 399.28 421.42 398.58 417.05 395.90 413.53
  Q 395.53 413.04 395.70 412.46
  C 397.16 407.55 402.23 406.69 406.57 405.51
  Q 409.48 404.72 412.32 403.58
  C 432.77 395.36 455.78 394.11 478.07 394.53
  Q 478.75 394.54 478.54 393.89
  Q 478.01 392.24 476.93 390.97
  C 470.60 383.48 460.85 379.21 452.95 373.45
  Q 436.40 361.39 418.65 350.17
  C 416.47 348.78 413.45 347.49 411.02 346.64
  C 402.87 343.79 394.99 340.43 386.95 337.93
  C 378.91 335.43 370.84 333.38 363.51 329.39
  Q 360.09 327.53 358.17 324.90
  Q 348.40 311.50 340.56 293.84
  Q 328.37 266.41 315.06 238.66
  Q 311.43 231.09 307.80 222.26
  C 304.80 214.95 302.51 207.54 298.77 200.49
  Q 260.18 127.80 193.06 83.55
  Q 173.00 70.32 151.11 61.25
  C 141.50 57.27 132.83 54.71 122.67 54.53
  Q 113.43 54.37 104.58 53.01
  C 101.08 52.48 97.30 53.48 94.05 51.99
  C 89.72 50.00 85.70 45.99 82.21 42.87
  Q 78.11 39.21 69.18 34.40
  Q 59.47 29.18 47.28 24.12
  C 42.00 21.93 36.86 19.82 31.28 18.77
  Q 26.38 17.85 21.47 20.09
  Q 18.71 21.34 17.58 23.80
  Q 15.78 27.69 16.32 31.09
  C 17.55 38.88 22.96 47.14 27.86 53.18
  Q 38.80 66.67 48.75 81.36
  C 55.76 91.69 60.29 102.99 63.89 114.36
  Q 68.94 130.33 73.74 144.59
  Q 79.13 160.63 89.18 175.84
  C 95.40 185.26 106.99 189.45 104.26 203.00
  C 102.67 210.91 99.81 218.65 96.82 226.26
  C 91.92 238.69 89.69 252.33 89.10 266.25
  C 87.99 292.39 92.05 316.94 104.32 339.51
  Q 108.61 347.41 116.52 350.17
  A 1.94 1.94 0.0 0 0 119.09 348.55
  Q 120.22 337.73 121.60 326.12
  C 122.94 314.91 125.16 302.98 130.41 292.96
  C 134.17 285.77 140.58 279.32 145.46 272.73
  Q 145.81 272.26 146.25 272.65
  C 148.60 274.70 149.15 278.16 150.01 281.00
  Q 150.74 283.40 151.75 285.92
  Q 173.34 339.60 208.65 386.59
  Q 212.42 391.61 220.05 399.94
  Q 224.33 404.62 229.14 407.91
  C 230.30 408.71 231.17 409.78 232.18 410.72
  Q 235.13 413.47 231.49 411.75
  C 226.81 409.54 222.34 405.83 218.74 401.94
  Q 211.89 394.55 203.09 387.75
  Q 184.98 373.77 169.14 354.50
  Q 163.66 347.84 160.99 342.41
  Q 155.00 330.24 147.26 314.78
  Q 146.93 314.14 146.58 314.77
  Q 145.90 316.00 145.73 317.28
  Q 145.24 320.95 144.42 324.95
  C 143.05 331.63 142.10 338.29 141.32 345.01
  C 140.30 353.78 137.66 363.18 129.16 367.37
  C 118.53 372.61 108.40 368.24 100.61 360.11
  C 86.45 345.36 79.02 324.84 75.60 304.36
  Q 69.12 265.58 80.67 227.02
  C 82.98 219.31 83.59 209.92 88.22 202.41
  Q 88.50 201.95 88.39 201.42
  C 87.16 195.53 81.36 192.67 78.17 187.88
  Q 65.50 168.82 57.68 147.24
  Q 52.82 133.84 47.99 120.01
  C 45.40 112.57 44.49 104.68 40.44 97.79
  Q 36.75 91.49 31.77 84.95
  Q 22.41 72.62 13.05 60.48
  Q 5.55 50.75 1.51 39.28
  Q 0.94 37.64 0.00 31.13
  L 0.00 28.48
  Q 0.56 19.98 5.27 12.74
  Q 12.28 1.95 25.28 0.53
  Q 27.56 0.28 29.88 0.00
  Z"
/>
<path fill="#00546b" d="
  M 123.54 120.78
  C 121.23 116.07 119.03 111.25 116.77 106.48
  C 114.30 101.30 109.45 97.78 106.33 93.00
  Q 105.21 91.29 103.95 89.71
  Q 103.55 89.20 104.18 89.05
  Q 111.10 87.47 117.58 87.44
  Q 118.05 87.44 118.43 87.74
  C 121.79 90.37 126.28 92.64 128.25 96.50
  Q 129.93 99.79 131.76 102.93
  Q 131.98 103.31 131.97 103.76
  C 131.80 110.61 129.99 116.80 124.21 120.95
  Q 123.78 121.26 123.54 120.78
  Z"
/>
</svg>
