<?xml version="1.0" encoding="UTF-8" standalone="no"?>
<!DOCTYPE svg PUBLIC "-//W3C//DTD SVG 1.1//EN" "http://www.w3.org/Graphics/SVG/1.1/DTD/svg11.dtd">
<svg xmlns="http://www.w3.org/2000/svg" version="1.1" viewBox="0.00 0.00 187.00 188.00">
<path fill="#8cc84b" d="
  M 160.22 55.96
  A 0.80 0.79 -81.1 0 0 159.82 55.41
  L 94.24 18.47
  A 2.08 2.06 44.7 0 0 92.21 18.47
  L 27.24 55.21
  A 2.36 2.36 0.0 0 0 26.05 57.26
  L 26.04 130.49
  A 2.24 2.23 14.6 0 0 27.19 132.44
  Q 35.15 136.88 43.64 141.73
  C 47.38 143.86 52.11 145.24 56.12 143.19
  C 58.88 141.78 60.52 139.00 60.52 135.88
  Q 60.51 64.94 60.54 63.21
  A 1.73 1.73 0.0 0 1 62.27 61.50
  L 70.76 61.50
  Q 72.69 61.50 72.69 63.43
  Q 72.71 101.07 72.67 135.41
  Q 72.65 152.00 58.75 155.27
  C 50.82 157.13 43.64 154.87 36.32 150.68
  Q 28.85 146.42 21.05 142.18
  C 15.70 139.28 14.21 134.29 14.23 128.51
  Q 14.31 94.00 14.27 57.42
  C 14.26 51.12 17.47 47.52 22.81 44.52
  Q 54.67 26.60 85.60 8.98
  Q 93.22 4.64 101.17 9.16
  Q 131.87 26.59 165.36 45.40
  C 169.45 47.70 172.27 51.89 172.27 56.66
  Q 172.29 91.11 172.29 130.26
  C 172.29 135.18 169.99 139.61 165.62 142.07
  Q 134.33 159.77 100.24 179.03
  C 94.32 182.38 89.26 180.78 83.25 177.25
  Q 73.10 171.31 63.38 165.80
  A 1.10 1.08 4.4 0 1 62.91 165.26
  Q 62.44 164.15 63.50 163.81
  Q 69.32 161.97 73.90 159.33
  A 1.69 1.68 45.2 0 1 75.60 159.34
  L 92.46 169.27
  A 1.55 1.53 -44.2 0 0 94.00 169.28
  L 159.54 132.31
  A 1.87 1.85 75.6 0 0 160.49 130.68
  Q 160.54 56.92 160.46 56.73
  Q 160.29 56.36 160.22 55.96
  Z"
/>
<path fill="#8cc84b" d="
  M 129.71 103.52
  Q 125.79 101.63 121.68 101.04
  Q 111.64 99.62 102.32 98.54
  Q 97.38 97.97 91.53 95.67
  C 82.84 92.26 79.48 84.32 81.44 75.67
  C 85.16 59.22 106.45 58.51 119.48 60.03
  C 132.80 61.57 142.12 67.64 143.25 81.97
  A 1.78 1.77 -2.1 0 1 141.47 83.88
  L 132.58 83.85
  A 1.37 1.36 -6.9 0 1 131.27 82.83
  C 129.75 76.88 127.30 73.11 121.02 71.74
  C 114.58 70.33 91.74 68.36 94.14 81.25
  Q 94.59 83.67 97.17 84.60
  Q 102.09 86.39 106.51 86.95
  Q 119.05 88.54 128.85 90.48
  C 136.26 91.96 144.14 95.76 145.44 103.90
  C 149.66 130.46 117.87 132.06 100.43 129.11
  C 87.99 127.02 78.87 119.89 78.91 106.40
  A 1.65 1.65 0.0 0 1 80.56 104.76
  L 89.01 104.75
  A 2.03 2.03 0.0 0 1 91.03 106.56
  Q 91.92 114.23 98.24 116.77
  C 104.84 119.43 112.77 119.23 119.70 118.73
  C 125.52 118.31 132.61 116.10 132.95 109.13
  Q 133.14 105.17 129.71 103.52
  Z"
/>
</svg>
