<?xml version="1.0" encoding="UTF-8" standalone="no"?>
<!DOCTYPE svg PUBLIC "-//W3C//DTD SVG 1.1//EN" "http://www.w3.org/Graphics/SVG/1.1/DTD/svg11.dtd">
<svg xmlns="http://www.w3.org/2000/svg" version="1.1" viewBox="0.00 0.00 187.00 188.00">
<path fill="#3772a4" d="
  M 93.41 45.90
  L 51.35 45.93
  A 0.31 0.31 0.0 0 1 51.04 45.62
  Q 51.13 36.69 50.93 26.80
  C 50.71 15.62 61.85 10.40 71.17 8.54
  Q 91.29 4.53 111.75 8.13
  C 120.81 9.73 131.73 14.27 134.90 23.19
  Q 136.05 26.42 136.03 30.67
  Q 135.93 50.39 135.97 68.38
  C 136.00 83.48 125.33 91.36 111.15 91.35
  Q 90.39 91.35 69.07 91.39
  C 54.27 91.42 45.54 101.83 45.42 116.34
  Q 45.33 126.07 45.44 136.49
  Q 45.45 137.19 44.75 137.20
  Q 37.38 137.31 30.19 137.19
  Q 22.65 137.06 16.76 131.24
  C 6.44 121.03 5.02 103.05 5.69 88.51
  C 6.35 74.32 10.81 58.81 24.69 53.41
  Q 29.07 51.71 40.83 51.84
  Q 69.02 52.14 93.55 51.85
  Q 93.72 51.85 93.72 51.68
  L 93.74 46.23
  Q 93.74 45.90 93.41 45.90
  Z
  M 77.13 27.63
  A 7.73 7.73 0.0 0 0 69.40 19.90
  A 7.73 7.73 0.0 0 0 61.67 27.63
  A 7.73 7.73 0.0 0 0 69.40 35.36
  A 7.73 7.73 0.0 0 0 77.13 27.63
  Z"
/>
<path fill="#ffd444" d="
  M 93.57 142.08
  L 135.53 142.07
  Q 136.04 142.07 136.04 142.58
  Q 135.89 151.85 136.07 160.65
  Q 136.16 164.86 134.92 167.51
  C 131.61 174.59 122.34 178.22 115.17 179.58
  C 99.31 182.59 58.17 184.58 51.90 164.07
  Q 50.99 161.10 51.03 156.77
  Q 51.21 136.91 51.11 118.55
  C 51.04 105.07 61.85 96.69 74.56 96.66
  Q 95.18 96.62 117.72 96.59
  C 132.62 96.57 141.35 86.36 141.64 71.89
  Q 141.84 61.98 141.67 51.36
  Q 141.66 50.68 142.33 50.70
  Q 147.84 50.85 154.33 50.69
  C 181.25 50.03 182.94 87.46 180.76 105.62
  C 179.29 117.85 173.96 130.41 161.79 134.69
  Q 157.68 136.14 150.59 136.09
  Q 123.04 135.91 93.53 136.07
  Q 93.36 136.07 93.36 136.24
  L 93.33 141.83
  Q 93.33 142.08 93.57 142.08
  Z
  M 125.39 160.33
  A 7.74 7.74 0.0 0 0 117.65 152.59
  A 7.74 7.74 0.0 0 0 109.91 160.33
  A 7.74 7.74 0.0 0 0 117.65 168.07
  A 7.74 7.74 0.0 0 0 125.39 160.33
  Z"
/>
</svg>
