<?xml version="1.0" encoding="UTF-8" standalone="no"?>
<!DOCTYPE svg PUBLIC "-//W3C//DTD SVG 1.1//EN" "http://www.w3.org/Graphics/SVG/1.1/DTD/svg11.dtd">
<svg xmlns="http://www.w3.org/2000/svg" version="1.1" viewBox="0.00 0.00 188.00 187.00">
<path fill="#00d8ff" d="
  M 145.59 123.60
  C 148.60 135.50 149.85 149.68 145.31 160.87
  C 139.53 175.11 125.79 173.57 114.51 167.76
  C 107.55 164.18 100.81 158.87 94.78 153.14
  Q 94.32 152.70 93.85 153.14
  C 84.34 162.20 66.71 175.51 52.57 171.06
  C 44.05 168.37 40.74 158.36 40.15 150.07
  Q 39.24 137.21 42.78 124.04
  Q 42.95 123.43 42.34 123.25
  C 29.79 119.71 11.98 111.60 6.90 98.86
  C 2.93 88.91 10.73 79.98 18.46 74.86
  Q 29.20 67.75 42.40 64.20
  A 0.66 0.66 0.0 0 0 42.86 63.39
  Q 39.73 51.37 40.01 39.75
  C 40.24 30.07 43.44 17.80 53.99 15.63
  C 67.73 12.81 84.37 25.14 93.63 34.24
  Q 94.05 34.64 94.46 34.24
  C 102.75 26.19 112.16 19.06 123.23 15.98
  C 138.62 11.68 146.19 22.21 147.56 35.92
  Q 148.87 49.07 145.18 63.54
  Q 145.02 64.15 145.63 64.31
  C 157.84 67.57 184.01 78.60 182.01 95.06
  C 180.24 109.66 158.13 119.35 146.03 122.83
  Q 145.44 123.00 145.59 123.60
  Z
  M 138.01 61.63
  C 140.28 50.93 141.47 41.22 139.20 31.69
  Q 138.07 26.95 135.02 24.23
  C 132.28 21.78 128.05 22.33 124.79 23.34
  Q 112.45 27.19 99.74 39.54
  Q 99.33 39.94 99.72 40.36
  Q 107.11 48.44 113.88 58.04
  Q 114.21 58.51 114.78 58.56
  Q 126.44 59.65 137.27 62.11
  Q 137.88 62.25 138.01 61.63
  Z
  M 50.22 61.86
  A 0.27 0.26 77.6 0 0 50.53 62.06
  Q 62.52 59.46 73.24 58.56
  Q 73.84 58.51 74.18 58.02
  Q 80.51 49.00 88.39 40.40
  Q 88.86 39.88 88.35 39.41
  C 80.90 32.52 72.74 26.54 62.95 23.45
  C 41.78 16.77 47.66 52.49 50.22 61.86
  Z
  M 84.00 57.07
  A 0.32 0.32 0.0 0 0 84.25 57.59
  L 103.86 57.63
  A 0.32 0.32 0.0 0 0 104.11 57.10
  L 94.32 45.31
  A 0.32 0.32 0.0 0 0 93.83 45.30
  L 84.00 57.07
  Z
  M 78.65 121.54
  C 88.42 122.21 99.15 122.21 109.52 121.50
  Q 110.08 121.46 110.39 120.99
  Q 119.03 107.82 125.87 94.32
  A 1.83 1.81 45.3 0 0 125.87 92.65
  Q 119.11 79.30 110.33 66.10
  Q 110.04 65.65 109.50 65.61
  Q 94.91 64.52 78.51 65.58
  Q 77.98 65.61 77.68 66.05
  Q 68.76 79.28 62.05 92.99
  Q 61.78 93.55 62.05 94.10
  Q 68.93 108.04 77.78 121.05
  A 1.15 1.13 73.8 0 0 78.65 121.54
  Z
  M 57.43 84.09
  A 0.31 0.31 0.0 0 0 57.99 84.14
  L 67.83 67.02
  A 0.31 0.31 0.0 0 0 67.51 66.56
  L 52.33 69.22
  A 0.31 0.31 0.0 0 0 52.10 69.63
  L 57.43 84.09
  Z
  M 120.53 66.58
  A 0.33 0.33 0.0 0 0 120.19 67.07
  L 130.03 84.19
  A 0.33 0.33 0.0 0 0 130.63 84.14
  L 135.95 69.69
  A 0.33 0.33 0.0 0 0 135.70 69.25
  L 120.53 66.58
  Z
  M 45.05 115.51
  C 47.51 107.79 50.28 101.05 53.35 93.95
  Q 53.56 93.46 53.33 92.97
  Q 48.56 82.74 45.12 71.75
  Q 45.00 71.37 44.62 71.47
  Q 32.77 74.59 23.05 80.78
  C 19.07 83.32 13.50 88.14 13.34 93.16
  C 13.16 98.79 19.94 104.41 24.41 107.15
  Q 34.43 113.31 44.36 115.89
  A 0.58 0.57 -73.4 0 0 45.05 115.51
  Z
  M 142.93 71.93
  Q 139.25 83.25 134.69 93.05
  A 0.94 0.93 -46.1 0 0 134.70 93.86
  Q 139.71 104.23 143.31 115.30
  A 0.41 0.41 0.0 0 0 143.81 115.57
  Q 155.94 112.17 166.16 105.17
  C 170.64 102.10 177.02 95.72 173.74 89.80
  C 168.54 80.41 153.67 74.32 143.54 71.61
  Q 143.08 71.48 142.93 71.93
  Z
  M 130.72 102.68
  A 0.32 0.32 0.0 0 0 130.14 102.63
  L 120.12 120.13
  A 0.32 0.32 0.0 0 0 120.45 120.60
  L 136.06 117.93
  A 0.32 0.32 0.0 0 0 136.31 117.50
  L 130.72 102.68
  Z
  M 67.67 120.72
  A 0.33 0.33 0.0 0 0 68.01 120.23
  L 57.98 103.01
  A 0.33 0.33 0.0 0 0 57.39 103.06
  L 51.99 117.73
  A 0.33 0.33 0.0 0 0 52.24 118.17
  L 67.67 120.72
  Z
  M 137.68 125.05
  C 130.04 126.78 122.38 127.87 114.76 128.55
  Q 114.23 128.60 113.94 129.03
  Q 107.74 138.17 99.93 146.88
  Q 99.56 147.30 99.95 147.69
  Q 110.04 157.72 121.07 162.39
  C 126.75 164.79 134.14 166.35 137.64 159.64
  C 142.58 150.15 141.02 136.14 138.35 125.47
  Q 138.22 124.93 137.68 125.05
  Z
  M 47.80 151.46
  C 48.60 158.02 51.41 165.37 59.69 164.29
  C 70.31 162.91 80.66 155.41 88.60 147.82
  Q 89.06 147.38 88.63 146.91
  Q 80.95 138.49 74.32 129.18
  Q 73.97 128.69 73.36 128.64
  Q 61.99 127.77 50.75 125.37
  Q 50.16 125.25 50.01 125.83
  Q 46.40 139.87 47.80 151.46
  Z
  M 104.34 129.90
  A 0.31 0.31 0.0 0 0 104.10 129.39
  L 84.30 129.50
  A 0.31 0.31 0.0 0 0 84.06 130.00
  L 94.02 141.95
  A 0.31 0.31 0.0 0 0 94.50 141.95
  L 104.34 129.90
  Z"
/>
<circle fill="#00d8ff" cx="93.99" cy="93.36" r="15.68"/>
</svg>
