<?xml version="1.0" encoding="UTF-8" standalone="no"?>
<!DOCTYPE svg PUBLIC "-//W3C//DTD SVG 1.1//EN" "http://www.w3.org/Graphics/SVG/1.1/DTD/svg11.dtd">
<svg xmlns="http://www.w3.org/2000/svg" version="1.1" viewBox="0.00 0.00 400.00 400.00">
<path fill="#764abc" d="
  M 145.11 241.32
  C 145.75 241.02 146.36 240.89 147.07 240.92
  Q 153.11 241.20 155.90 242.34
  Q 169.41 247.86 171.44 261.46
  C 173.73 276.82 160.05 290.24 144.50 287.80
  Q 135.46 286.37 129.59 279.09
  C 124.26 272.47 122.30 261.25 127.25 253.59
  Q 127.53 253.16 127.27 252.73
  C 112.85 228.10 103.32 199.72 101.51 171.61
  Q 98.97 132.07 114.88 96.36
  C 126.35 70.60 149.25 49.18 176.74 41.87
  Q 206.07 34.07 232.58 48.29
  C 266.29 66.37 282.06 104.93 284.92 141.77
  A 0.49 0.48 -83.8 0 1 284.30 142.27
  L 264.52 136.25
  Q 264.03 136.10 263.98 135.59
  C 261.65 114.61 252.96 92.79 238.45 76.94
  C 225.90 63.24 209.26 56.95 190.34 60.12
  C 176.63 62.41 162.38 67.95 152.32 77.41
  Q 145.96 83.38 139.94 92.87
  Q 122.87 119.75 122.12 153.80
  Q 122.08 155.23 121.93 156.60
  Q 121.71 158.64 121.74 160.95
  Q 122.36 205.63 144.12 241.02
  Q 144.48 241.61 145.11 241.32
  Z"
/>
<path fill="#764abc" d="
  M 199.12 168.98
  C 190.52 186.96 165.37 186.90 156.69 168.99
  C 152.35 160.03 154.34 149.35 161.24 142.45
  Q 169.68 134.01 181.69 135.79
  Q 192.04 137.32 198.37 147.40
  Q 198.89 148.24 199.88 148.21
  Q 206.97 148.05 214.51 148.32
  C 267.85 150.24 318.58 175.05 348.62 219.42
  Q 361.26 238.09 364.91 260.91
  Q 366.42 270.32 365.69 281.60
  Q 363.85 310.23 341.91 329.31
  C 320.53 347.90 292.27 355.45 264.26 352.08
  Q 243.57 349.60 223.02 340.00
  Q 222.63 339.81 222.98 339.56
  Q 232.37 332.91 241.03 325.20
  Q 241.54 324.74 242.18 325.01
  C 254.09 330.00 266.61 332.92 279.52 333.49
  C 305.86 334.64 327.46 323.25 340.39 299.45
  C 347.77 285.88 348.22 269.33 343.29 254.57
  Q 331.94 220.56 301.55 198.90
  Q 256.51 166.79 201.09 168.23
  Q 200.41 168.25 199.77 168.43
  Q 199.32 168.56 199.12 168.98
  Z"
/>
<path fill="#764abc" d="
  M 244.65 250.73
  C 235.91 241.12 236.16 226.79 245.43 217.81
  C 255.12 208.42 270.71 209.06 279.54 219.28
  C 290.27 231.71 285.75 250.22 270.61 256.68
  C 268.81 257.44 266.77 257.76 264.85 258.22
  A 1.16 1.12 5.4 0 0 264.10 258.82
  Q 234.53 317.96 174.12 340.59
  Q 165.74 343.73 155.51 346.24
  Q 145.51 348.69 136.93 350.05
  Q 126.12 351.77 113.82 350.97
  C 85.75 349.16 56.38 336.00 43.67 309.70
  Q 37.43 296.78 35.79 283.05
  C 30.98 242.63 51.40 208.89 83.62 185.47
  Q 84.10 185.12 84.21 185.70
  Q 86.19 195.73 89.41 205.89
  Q 89.58 206.43 89.13 206.78
  C 73.31 219.01 60.33 235.59 55.27 254.73
  Q 48.49 280.36 63.68 304.41
  C 72.50 318.38 86.69 326.53 102.91 329.48
  C 123.90 333.30 146.30 330.36 165.76 321.96
  Q 174.30 318.27 183.88 312.78
  Q 201.95 302.43 215.71 289.82
  Q 233.06 273.93 244.77 251.69
  Q 245.05 251.17 244.65 250.73
  Z"
/>
</svg>
