<?xml version="1.0" encoding="UTF-8" standalone="no"?>
<!DOCTYPE svg PUBLIC "-//W3C//DTD SVG 1.1//EN" "http://www.w3.org/Graphics/SVG/1.1/DTD/svg11.dtd">
<svg xmlns="http://www.w3.org/2000/svg" version="1.1" viewBox="0.00 0.00 48.00 48.00">
<g stroke-width="2.00" fill="none" stroke-linecap="butt">
<path stroke="#9c9c9c" vector-effect="non-scaling-stroke" d="
  M 15.49 20.76
  C 12.38 20.59 9.70 20.79 7.58 23.27
  C 3.82 27.67 8.25 35.33 13.92 33.70
  C 17.86 32.56 19.29 29.06 19.22 25.20
  Q 19.21 24.46 19.94 24.49
  Q 21.28 24.53 22.68 24.46
  C 29.30 24.14 31.80 16.27 26.38 12.54
  Q 22.68 10.00 19.12 12.79
  Q 16.04 15.21 16.28 19.97
  Q 16.32 20.80 15.49 20.76"
/>
<path stroke="#9c9c9c" vector-effect="non-scaling-stroke" d="
  M 20.14 17.08
  Q 19.54 18.70 19.50 20.41
  Q 19.49 20.95 20.04 20.99
  C 31.41 21.79 22.55 10.51 20.14 17.08"
/>
<path stroke="#9c9c9c" vector-effect="non-scaling-stroke" d="
  M 16.10 25.73
  Q 16.42 24.04 14.70 24.14
  Q 13.53 24.21 12.44 24.33
  C 9.24 24.69 9.06 29.00 11.74 29.92
  Q 15.07 31.05 16.10 25.73"
/>
</g>
<path fill="#383838" d="
  M 34.76 17.64
  C 36.43 17.90 38.28 18.00 39.78 18.84
  Q 46.71 22.70 45.15 30.62
  C 44.41 34.38 40.69 38.20 36.55 38.32
  Q 22.78 38.72 10.80 38.29
  Q 8.49 38.21 6.68 36.81
  Q 0.92 32.36 2.50 25.51
  C 3.38 21.72 6.69 18.28 10.84 17.95
  Q 11.76 17.87 12.66 17.69
  Q 13.28 17.56 13.42 16.94
  Q 15.39 8.14 23.67 7.84
  C 29.13 7.65 33.50 11.76 34.20 17.08
  A 0.66 0.66 0.0 0 0 34.76 17.64
  Z
  M 15.49 20.76
  C 12.38 20.59 9.70 20.79 7.58 23.27
  C 3.82 27.67 8.25 35.33 13.92 33.70
  C 17.86 32.56 19.29 29.06 19.22 25.20
  Q 19.21 24.46 19.94 24.49
  Q 21.28 24.53 22.68 24.46
  C 29.30 24.14 31.80 16.27 26.38 12.54
  Q 22.68 10.00 19.12 12.79
  Q 16.04 15.21 16.28 19.97
  Q 16.32 20.80 15.49 20.76
  Z"
/>
<path fill="#ffffff" d="
  M 16.28 19.97
  Q 16.04 15.21 19.12 12.79
  Q 22.68 10.00 26.38 12.54
  C 31.80 16.27 29.30 24.14 22.68 24.46
  Q 21.28 24.53 19.94 24.49
  Q 19.21 24.46 19.22 25.20
  C 19.29 29.06 17.86 32.56 13.92 33.70
  C 8.25 35.33 3.82 27.67 7.58 23.27
  C 9.70 20.79 12.38 20.59 15.49 20.76
  Q 16.32 20.80 16.28 19.97
  Z
  M 20.14 17.08
  Q 19.54 18.70 19.50 20.41
  Q 19.49 20.95 20.04 20.99
  C 31.41 21.79 22.55 10.51 20.14 17.08
  Z
  M 16.10 25.73
  Q 16.42 24.04 14.70 24.14
  Q 13.53 24.21 12.44 24.33
  C 9.24 24.69 9.06 29.00 11.74 29.92
  Q 15.07 31.05 16.10 25.73
  Z"
/>
<path fill="#383838" d="
  M 20.14 17.08
  C 22.55 10.51 31.41 21.79 20.04 20.99
  Q 19.49 20.95 19.50 20.41
  Q 19.54 18.70 20.14 17.08
  Z"
/>
<path fill="#383838" d="
  M 16.10 25.73
  Q 15.07 31.05 11.74 29.92
  C 9.06 29.00 9.24 24.69 12.44 24.33
  Q 13.53 24.21 14.70 24.14
  Q 16.42 24.04 16.10 25.73
  Z"
/>
</svg>
